{
.appVersion = "3039";
.formatVersion = 3;
DisplayStrings = (
"anothenrn
fling
",

glyphs = (
{
glyphname = A;
kernLeft = A;
kernRight = A;
lastChange = "2020-11-29 19:02:35 +0000";
layers = (
{
anchors = (
{
name = bottom;
pos = (339,0);
},
{
name = ogonek;
pos = (648,0);
},
{
name = ring;
pos = (339,737);
},
{
name = top;
pos = (339,727);
}
);
layerId = master01;
shapes = (
{
closed = 1;
nodes = (
(549,233,l),
(549,234,l),
(128,234,l),
(128,233,l)
);
},
{
closed = 1;
nodes = (
(648,0,l),
(339,737,l),
(338,737,l),
(30,0,l),
(31,0,l),
(339,737,l),
(338,735,l),
(339,735,l),
(338,737,l),
(646,0,l)
);
}
);
userData = {
com.rafalbuchner.mirroringDrawingLocal = {
mirroringOptions = 3;
offset = (
0,
0
);
};
};
width = 677;
},
{
anchors = (
{
name = bottom;
pos = (339,0);
},
{
name = ogonek;
pos = (648,0);
},
{
name = ring;
pos = (339,737);
},
{
name = top;
pos = (339,727);
}
);
associatedMasterId = master01;
layerId = "CE34F541-AE2D-4F7A-8190-719384411D30";
name = foreground;
shapes = (
{
closed = 1;
nodes = (
(549,233,l),
(549,234,l),
(128,234,l),
(128,233,l)
);
},
{
closed = 1;
nodes = (
(648,0,l),
(339,737,l),
(338,737,l),
(30,0,l),
(31,0,l),
(339,737,l),
(338,735,l),
(339,735,l),
(338,737,l),
(646,0,l)
);
}
);
userData = {
com.rafalbuchner.mirroringDrawingLocal = {
mirroringOptions = 3;
offset = (
0,
0
);
};
};
width = 677;
},
{
associatedMasterId = master01;
layerId = "473BDC69-E5ED-487D-9236-B0B5266259F9";
name = "another one";
width = 291;
},
{
anchors = (
{
name = bottom;
pos = (364,0);
},
{
name = ogonek;
pos = (724,0);
},
{
name = ring;
pos = (362,726);
},
{
name = top;
pos = (362,727);
}
);
layerId = master02;
shapes = (
{
closed = 1;
nodes = (
(585,118,l),
(533,251,l),
(192,251,l),
(140,118,l)
);
},
{
closed = 1;
nodes = (
(724,0,l),
(422,727,l),
(307,727,l),
(-4,0,l),
(165,0,l),
(359,482,l),
(322,476,l),
(396,476,l),
(360,482,l),
(552,0,l)
);
}
);
userData = {
com.rafalbuchner.mirroringDrawingLocal = {
mirroringOptions = 3;
offset = (
0,
0
);
};
};
width = 720;
},
{
anchors = (
{
name = bottom;
pos = (364,0);
},
{
name = ogonek;
pos = (724,0);
},
{
name = ring;
pos = (362,726);
},
{
name = top;
pos = (362,727);
}
);
associatedMasterId = master02;
layerId = "79D9FDCB-5942-4DE6-A56E-97D957B0514E";
name = foreground;
shapes = (
{
closed = 1;
nodes = (
(585,118,l),
(533,251,l),
(192,251,l),
(140,118,l)
);
},
{
closed = 1;
nodes = (
(724,0,l),
(422,727,l),
(307,727,l),
(-4,0,l),
(165,0,l),
(359,482,l),
(322,476,l),
(396,476,l),
(360,482,l),
(552,0,l)
);
}
);
userData = {
com.rafalbuchner.mirroringDrawingLocal = {
mirroringOptions = 3;
offset = (
0,
0
);
};
};
width = 720;
},
{
anchors = (
{
name = bottom;
pos = (373,0);
},
{
name = ogonek;
pos = (754,0);
},
{
name = ring;
pos = (369,727);
},
{
name = top;
pos = (369,727);
}
);
layerId = master03;
shapes = (
{
closed = 1;
nodes = (
(576,64,l),
(492,188,l),
(193,188,l),
(109,64,l)
);
},
{
closed = 1;
nodes = (
(754,0,l),
(512,727,l),
(235,727,l),
(-8,0,l),
(255,0,l),
(346,305,l),
(288,301,l),
(406,301,l),
(349,305,l),
(439,0,l)
);
}
);
userData = {
com.rafalbuchner.mirroringDrawingLocal = {
mirroringOptions = 3;
offset = (
0,
0
);
};
};
width = 747;
},
{
anchors = (
{
name = bottom;
pos = (373,0);
},
{
name = ogonek;
pos = (754,0);
},
{
name = ring;
pos = (369,727);
},
{
name = top;
pos = (369,727);
}
);
associatedMasterId = master03;
layerId = "88856847-D828-45D3-8A16-318C23249F91";
name = foreground;
shapes = (
{
closed = 1;
nodes = (
(576,64,l),
(492,188,l),
(193,188,l),
(109,64,l)
);
},
{
closed = 1;
nodes = (
(754,0,l),
(512,727,l),
(235,727,l),
(-8,0,l),
(255,0,l),
(346,305,l),
(288,301,l),
(406,301,l),
(349,305,l),
(439,0,l)
);
}
);
userData = {
com.rafalbuchner.mirroringDrawingLocal = {
mirroringOptions = 3;
offset = (
0,
0
);
};
};
width = 747;
},
{
associatedMasterId = master03;
layerId = "0874CF5E-F990-4D98-87E4-ECDDBF6E8793";
name = bg;
shapes = (
{
closed = 1;
nodes = (
(554,188,l),
(255,188,l),
(171,64,l),
(638,64,l)
);
},
{
closed = 1;
nodes = (
(398,305,l),
(341,301,l),
(459,301,l),
(401,305,l),
(492,0,l),
(754,0,l),
(511,727,l),
(234,727,l),
(-8,0,l),
(308,0,l)
);
}
);
width = 747;
}
);
unicode = 65;
},
{
glyphname = B;
kernLeft = H;
kernRight = Germandbls;
lastChange = "2020-11-29 18:57:13 +0000";
layers = (
{
layerId = master01;
shapes = (
{
closed = 1;
nodes = (
(320,0,ls),
(464,0,o),
(543,70,o),
(543,194,cs),
(543,321,o),
(466,378,o),
(293,380,c),
(299,379,l),
(299,380,l),
(293,380,l),
(451,382,o),
(529,442,o),
(529,559,cs),
(529,667,o),
(450,727,o),
(309,727,cs),
(85,727,l),
(85,0,l)
);
},
{
closed = 1;
nodes = (
(450,726,o),
(528,667,o),
(528,559,cs),
(528,440,o),
(446,380,o),
(281,380,cs),
(86,380,l),
(86,726,l),
(309,726,ls)
);
},
{
closed = 1;
nodes = (
(463,379,o),
(542,323,o),
(542,194,cs),
(542,70,o),
(463,1,o),
(320,1,cs),
(86,1,l),
(86,379,l),
(281,379,ls)
);
}
);
userData = {
com.rafalbuchner.mirroringDrawingLocal = {
mirroringOptions = 3;
offset = (
0,
0
);
};
};
width = 605;
},
{
associatedMasterId = master01;
layerId = "95AE0BDE-B583-46AE-92B3-A021A28A65BA";
name = foreground;
shapes = (
{
closed = 1;
nodes = (
(320,0,ls),
(464,0,o),
(543,70,o),
(543,194,cs),
(543,321,o),
(466,378,o),
(293,380,c),
(299,379,l),
(299,380,l),
(293,380,l),
(451,382,o),
(529,442,o),
(529,559,cs),
(529,667,o),
(450,727,o),
(309,727,cs),
(85,727,l),
(85,0,l)
);
},
{
closed = 1;
nodes = (
(450,726,o),
(528,667,o),
(528,559,cs),
(528,440,o),
(446,380,o),
(281,380,cs),
(86,380,l),
(86,726,l),
(309,726,ls)
);
},
{
closed = 1;
nodes = (
(463,379,o),
(542,323,o),
(542,194,cs),
(542,70,o),
(463,1,o),
(320,1,cs),
(86,1,l),
(86,379,l),
(281,379,ls)
);
}
);
userData = {
com.rafalbuchner.mirroringDrawingLocal = {
mirroringOptions = 3;
offset = (
0,
0
);
};
};
width = 605;
},
{
associatedMasterId = master01;
layerId = "645913EF-3523-4420-A46F-6136A04127FA";
name = "another one";
width = 291;
},
{
layerId = master02;
shapes = (
{
closed = 1;
nodes = (
(357,0,ls),
(506,0,o),
(600,79,o),
(600,215,cs),
(600,291,o),
(566,356,o),
(484,384,c),
(502,361,l),
(502,398,l),
(485,374,l),
(542,401,o),
(579,456,o),
(579,526,cs),
(579,651,o),
(491,727,o),
(331,727,cs),
(40,727,l),
(40,0,l)
);
},
{
closed = 1;
nodes = (
(392,594,o),
(421,566,o),
(421,516,cs),
(426,464,o),
(395,434,o),
(319,434,cs),
(198,434,l),
(198,594,l),
(317,594,ls)
);
},
{
closed = 1;
nodes = (
(408,304,o),
(442,274,o),
(442,219,cs),
(442,158,o),
(403,133,o),
(336,133,cs),
(198,133,l),
(198,304,l),
(345,304,ls)
);
}
);
userData = {
com.rafalbuchner.mirroringDrawingLocal = {
mirroringOptions = 3;
offset = (
0,
0
);
};
};
width = 622;
},
{
associatedMasterId = master02;
layerId = "F34A5AE3-2829-4AA1-9861-A6890711C791";
name = foreground;
shapes = (
{
closed = 1;
nodes = (
(357,0,ls),
(506,0,o),
(600,79,o),
(600,215,cs),
(600,291,o),
(566,356,o),
(484,384,c),
(502,361,l),
(502,398,l),
(485,374,l),
(548,400,o),
(584,453,o),
(584,526,cs),
(584,651,o),
(496,727,o),
(336,727,cs),
(40,727,l),
(40,0,l)
);
},
{
closed = 1;
nodes = (
(397,594,o),
(426,566,o),
(426,516,cs),
(426,464,o),
(395,434,o),
(324,434,cs),
(198,434,l),
(198,594,l),
(322,594,ls)
);
},
{
closed = 1;
nodes = (
(408,304,o),
(442,274,o),
(442,219,cs),
(442,158,o),
(403,133,o),
(336,133,cs),
(198,133,l),
(198,304,l),
(345,304,ls)
);
}
);
userData = {
com.rafalbuchner.mirroringDrawingLocal = {
mirroringOptions = 3;
offset = (
0,
0
);
};
};
width = 623;
},
{
layerId = master03;
shapes = (
{
closed = 1;
nodes = (
(455,0,ls),
(628,0,o),
(725,90,o),
(725,212,cs),
(725,299,o),
(675,368,o),
(567,378,c),
(611,344,l),
(611,403,l),
(567,364,l),
(652,376,o),
(704,438,o),
(704,526,cs),
(704,644,o),
(612,727,o),
(434,727,cs),
(20,727,l),
(20,0,l)
);
},
{
closed = 1;
nodes = (
(397,514,o),
(414,500,o),
(414,473,cs),
(414,446,o),
(396,430,o),
(366,430,cs),
(317,430,l),
(317,514,l),
(365,514,ls)
);
},
{
closed = 1;
nodes = (
(407,301,o),
(424,286,o),
(424,258,cs),
(424,229,o),
(406,212,o),
(376,212,cs),
(317,212,l),
(317,301,l),
(375,301,ls)
);
}
);
userData = {
com.rafalbuchner.mirroringDrawingLocal = {
mirroringOptions = 3;
offset = (
0,
0
);
};
};
width = 730;
},
{
associatedMasterId = master03;
layerId = "05555A55-3212-4395-825B-6DC01A2EB5D8";
name = foreground;
shapes = (
{
closed = 1;
nodes = (
(455,0,ls),
(628,0,o),
(725,90,o),
(725,212,cs),
(725,299,o),
(675,368,o),
(567,378,c),
(611,344,l),
(611,403,l),
(567,364,l),
(652,376,o),
(704,438,o),
(704,526,cs),
(704,644,o),
(612,727,o),
(434,727,cs),
(20,727,l),
(20,0,l)
);
},
{
closed = 1;
nodes = (
(397,514,o),
(414,500,o),
(414,473,cs),
(414,446,o),
(396,430,o),
(366,430,cs),
(317,430,l),
(317,514,l),
(365,514,ls)
);
},
{
closed = 1;
nodes = (
(407,301,o),
(424,286,o),
(424,258,cs),
(424,229,o),
(406,212,o),
(376,212,cs),
(317,212,l),
(317,301,l),
(375,301,ls)
);
}
);
userData = {
com.rafalbuchner.mirroringDrawingLocal = {
mirroringOptions = 3;
offset = (
0,
0
);
};
};
width = 730;
}
);
unicode = 66;
},
{
glyphname = C;
kernLeft = O;
kernRight = C;
lastChange = "2020-12-08 18:20:41 +0000";
layers = (
{
anchors = (
{
name = bottom;
pos = (403,-17);
},
{
name = top;
pos = (403,727);
}
);
background = {
shapes = (
{
closed = 1;
nodes = (
(41,555,o),
(266,784,o),
(429,784,qs),
(564,784,o),
(740,655,o),
(778,532,q),
(631,492,l),
(607,568,o),
(505,639,o),
(429,639,qs),
(326,639,o),
(200,495,o),
(200,384,q),
(41,384,l)
);
},
{
closed = 1;
nodes = (
(200,384,l),
(200,272,o),
(326,129,o),
(429,129,qs),
(505,129,o),
(607,200,o),
(631,275,q),
(778,236,l),
(740,112,o),
(564,-16,o),
(429,-16,qs),
(266,-16,o),
(41,212,o),
(41,384,q)
);
}
);
};
guides = (
{
angle = 90;
pos = (1044,1286);
},
{
angle = 90;
pos = (2591.978,1909.105);
},
{
pos = (2195.471,1934.805);
}
);
layerId = master01;
shapes = (
{
closed = 1;
nodes = (
(63,136,o),
(199,-17,o),
(403,-17,cs),
(533,-17,o),
(628,34,o),
(684,131,c),
(683,131,l),
(628,35,o),
(532,-16,o),
(403,-16,cs),
(200,-16,o),
(64,137,o),
(64,363,cs),
(64,589,o),
(200,741,o),
(403,741,cs),
(532,741,o),
(627,691,o),
(684,594,c),
(685,594,l),
(628,691,o),
(533,742,o),
(403,742,cs),
(199,742,o),
(63,590,o),
(63,363,c)
);
}
);
width = 767;
},
{
anchors = (
{
name = bottom;
pos = (403,-17);
},
{
name = top;
pos = (403,727);
}
);
associatedMasterId = master01;
guides = (
{
angle = 90;
pos = (1044,1286);
},
{
angle = 90;
pos = (2591.978,1909.105);
},
{
pos = (2195.471,1934.805);
}
);
layerId = "36EB5EB6-5B27-435E-9CFE-1E33C0D24903";
name = foreground;
shapes = (
{
closed = 1;
nodes = (
(63,136,o),
(199,-17,o),
(403,-17,cs),
(533,-17,o),
(628,34,o),
(684,131,c),
(683,131,l),
(628,35,o),
(532,-16,o),
(403,-16,cs),
(200,-16,o),
(64,137,o),
(64,363,cs),
(64,589,o),
(200,741,o),
(403,741,cs),
(532,741,o),
(627,691,o),
(684,594,c),
(685,594,l),
(628,691,o),
(533,742,o),
(403,742,cs),
(199,742,o),
(63,590,o),
(63,363,c)
);
}
);
width = 767;
},
{
associatedMasterId = master01;
layerId = "04F1B05B-04A5-4951-8C1B-14847AAC36D5";
name = "another one";
width = 291;
},
{
anchors = (
{
name = bottom;
pos = (390,0);
},
{
name = top;
pos = (390,727);
}
);
background = {
shapes = (
{
closed = 1;
nodes = (
(26,141,o),
(176,-17,o),
(401,-17,cs),
(538,-17,o),
(635,37,o),
(701,130,c),
(584,223,l),
(541,163,o),
(486,133,o),
(404,133,cs),
(269,133,o),
(190,232,o),
(190,363,cs),
(190,493,o),
(269,592,o),
(404,592,cs),
(486,592,o),
(541,563,o),
(584,503,c),
(701,595,l),
(635,688,o),
(538,742,o),
(401,742,cs),
(176,742,o),
(26,584,o),
(26,363,cs)
);
}
);
};
layerId = master02;
shapes = (
{
closed = 1;
nodes = (
(570,272,l),
(546,177,o),
(484,132,o),
(386,134,cs),
(266,137,o),
(192,224,o),
(192,364,cs),
(192,500,o),
(266,593,o),
(386,593,cs),
(484,593,o),
(547,549,o),
(569,454,c),
(731,454,l),
(699,642,o),
(573,742,o),
(390,742,cs),
(170,742,o),
(27,588,o),
(27,363,cs),
(27,138,o),
(169,-16,o),
(386,-16,cs),
(573,-16,o),
(699,84,o),
(731,272,c)
);
}
);
width = 748;
},
{
anchors = (
{
name = bottom;
pos = (405,0);
},
{
name = top;
pos = (407,727);
}
);
associatedMasterId = master02;
layerId = "4C1588E0-FDE1-4E65-B985-DEF1341C5174";
name = foreground;
shapes = (
{
closed = 1;
nodes = (
(27,141,o),
(177,-17,o),
(402,-17,cs),
(539,-17,o),
(636,37,o),
(702,130,c),
(585,223,l),
(542,163,o),
(487,133,o),
(405,133,cs),
(270,133,o),
(191,232,o),
(191,363,cs),
(191,493,o),
(270,592,o),
(405,592,cs),
(487,592,o),
(542,563,o),
(585,503,c),
(702,595,l),
(636,688,o),
(539,742,o),
(402,742,cs),
(177,742,o),
(27,584,o),
(27,363,cs)
);
}
);
width = 728;
},
{
associatedMasterId = master02;
layerId = "69AB5979-1C97-49BB-A5C4-BD623C0B75FF";
name = bg;
shapes = (
{
closed = 1;
nodes = (
(27,141,o),
(177,-17,o),
(402,-17,cs),
(545,-17,o),
(651,53,o),
(711,162,c),
(582,235,l),
(539,163,o),
(482,133,o),
(403,133,cs),
(270,133,o),
(191,232,o),
(191,363,cs),
(191,493,o),
(270,592,o),
(403,592,cs),
(482,592,o),
(539,562,o),
(582,490,c),
(711,565,l),
(651,674,o),
(545,742,o),
(402,742,cs),
(177,742,o),
(27,584,o),
(27,363,cs)
);
}
);
width = 731;
},
{
anchors = (
{
name = bottom;
pos = (400,0);
},
{
name = top;
pos = (398,727);
}
);
guides = (
{
pos = (335,725);
}
);
layerId = master03;
shapes = (
{
closed = 1;
nodes = (
(10,136,o),
(169,-20,o),
(400,-20,cs),
(626,-20,o),
(773,115,o),
(787,346,c),
(491,346,l),
(483,290,o),
(456,261,o),
(411,261,cs),
(359,261,o),
(325,301,o),
(325,363,cs),
(325,424,o),
(359,465,o),
(411,465,cs),
(456,465,o),
(483,436,o),
(491,380,c),
(787,380,l),
(766,619,o),
(622,747,o),
(400,747,cs),
(170,747,o),
(10,590,o),
(10,363,cs)
);
}
);
width = 796;
},
{
anchors = (
{
name = bottom;
pos = (400,0);
},
{
name = top;
pos = (398,727);
}
);
associatedMasterId = master03;
guides = (
{
pos = (335,725);
}
);
layerId = "2C7D7430-EEB9-4018-A9FE-ED7E3BFD9109";
name = foreground;
shapes = (
{
closed = 1;
nodes = (
(10,136,o),
(169,-20,o),
(400,-20,cs),
(596,-20,o),
(743,93,o),
(775,293,c),
(491,341,l),
(483,288,o),
(453,261,o),
(411,261,cs),
(359,261,o),
(325,301,o),
(325,363,cs),
(325,424,o),
(359,465,o),
(411,465,cs),
(453,465,o),
(483,438,o),
(491,385,c),
(775,449,l),
(740,640,o),
(596,747,o),
(400,747,cs),
(170,747,o),
(10,590,o),
(10,363,cs)
);
}
);
width = 782;
}
);
unicode = 67;
},
{
glyphname = D;
kernLeft = H;
kernRight = O;
lastChange = "2020-11-26 16:42:11 +0000";
layers = (
{
anchors = (
{
name = top;
pos = (332,727);
}
);
layerId = master01;
shapes = (
{
closed = 1;
nodes = (
(85,0,l),
(85,727,l),
(272,727,ls),
(502,727,o),
(644,588,o),
(644,363,cs),
(644,138,o),
(503,0,o),
(272,0,cs)
);
},
{
closed = 1;
nodes = (
(86,726,l),
(86,1,l),
(272,1,ls),
(502,1,o),
(643,139,o),
(643,363,cs),
(643,587,o),
(501,726,o),
(272,726,cs)
);
}
);
width = 707;
},
{
anchors = (
{
name = top;
pos = (332,727);
}
);
associatedMasterId = master01;
layerId = "DF1F33C4-D4D6-4783-8134-A8FEE2E341F2";
name = foreground;
shapes = (
{
closed = 1;
nodes = (
(85,0,l),
(85,727,l),
(272,727,ls),
(502,727,o),
(644,588,o),
(644,363,cs),
(644,138,o),
(503,0,o),
(272,0,cs)
);
},
{
closed = 1;
nodes = (
(86,726,l),
(86,1,l),
(272,1,ls),
(502,1,o),
(643,139,o),
(643,363,cs),
(643,587,o),
(501,726,o),
(272,726,cs)
);
}
);
width = 707;
},
{
associatedMasterId = master01;
layerId = "DE689A37-8101-46AA-8C7E-05E996A6C426";
name = "another one";
width = 291;
},
{
anchors = (
{
name = top;
pos = (329,727);
}
);
layerId = master02;
shapes = (
{
closed = 1;
nodes = (
(40,0,l),
(40,727,l),
(298,727,ls),
(519,727,o),
(668,585,o),
(668,363,cs),
(668,140,o),
(519,0,o),
(299,0,cs)
);
},
{
closed = 1;
nodes = (
(198,576,l),
(198,152,l),
(298,152,ls),
(432,152,o),
(508,227,o),
(508,363,cs),
(508,499,o),
(432,576,o),
(299,576,cs)
);
}
);
width = 694;
},
{
anchors = (
{
name = top;
pos = (329,727);
}
);
associatedMasterId = master02;
layerId = "35F84416-7AC0-4FE1-8663-C6D6308F4867";
name = foreground;
shapes = (
{
closed = 1;
nodes = (
(40,0,l),
(40,727,l),
(298,727,ls),
(519,727,o),
(668,585,o),
(668,363,cs),
(668,140,o),
(519,0,o),
(299,0,cs)
);
},
{
closed = 1;
nodes = (
(198,576,l),
(198,152,l),
(298,152,ls),
(432,152,o),
(508,227,o),
(508,363,cs),
(508,499,o),
(432,576,o),
(299,576,cs)
);
}
);
width = 694;
},
{
anchors = (
{
name = top;
pos = (351,727);
}
);
layerId = master03;
shapes = (
{
closed = 1;
nodes = (
(20,0,l),
(20,727,l),
(354,727,ls),
(570,727,o),
(737,594,o),
(737,363,cs),
(737,131,o),
(574,0,o),
(364,0,cs)
);
},
{
closed = 1;
nodes = (
(312,459,l),
(312,269,l),
(340,269,ls),
(396,269,o),
(435,304,o),
(435,364,cs),
(435,424,o),
(396,459,o),
(341,459,cs)
);
}
);
width = 747;
},
{
anchors = (
{
name = top;
pos = (351,727);
}
);
associatedMasterId = master03;
layerId = "60D5F840-3C03-4590-95BD-C73B4466D7FA";
name = foreground;
shapes = (
{
closed = 1;
nodes = (
(20,0,l),
(20,727,l),
(354,727,ls),
(570,727,o),
(737,594,o),
(737,363,cs),
(737,131,o),
(574,0,o),
(364,0,cs)
);
},
{
closed = 1;
nodes = (
(312,459,l),
(312,269,l),
(340,269,ls),
(396,269,o),
(435,304,o),
(435,364,cs),
(435,424,o),
(396,459,o),
(341,459,cs)
);
}
);
width = 747;
}
);
unicode = 68;
},
{
glyphname = E;
kernLeft = H;
kernRight = E;
lastChange = "2020-12-08 18:16:10 +0000";
layers = (
{
anchors = (
{
name = bottom;
pos = (307,0);
},
{
name = ogonek;
pos = (518,0);
},
{
name = top;
pos = (307,727);
}
);
layerId = master01;
shapes = (
{
closed = 1;
nodes = (
(518,1,l),
(86,1,l),
(86,374,l),
(411,374,l),
(411,375,l),
(86,375,l),
(86,726,l),
(518,726,l),
(518,727,l),
(85,727,l),
(85,0,l),
(518,0,l)
);
}
);
width = 573;
},
{
anchors = (
{
name = bottom;
pos = (307,0);
},
{
name = ogonek;
pos = (518,0);
},
{
name = top;
pos = (307,727);
}
);
associatedMasterId = master01;
layerId = "CB4B7BBC-A742-465D-A808-7D6C7A05EDAC";
name = foreground;
shapes = (
{
closed = 1;
nodes = (
(518,1,l),
(86,1,l),
(86,374,l),
(411,374,l),
(411,375,l),
(86,375,l),
(86,726,l),
(518,726,l),
(518,727,l),
(85,727,l),
(85,0,l),
(518,0,l)
);
}
);
width = 573;
},
{
associatedMasterId = master01;
layerId = "6669188F-701F-49FC-A61C-94AD9935F4A5";
name = "another one";
width = 291;
},
{
anchors = (
{
name = bottom;
pos = (284,0);
},
{
name = ogonek;
pos = (539,0);
},
{
name = top;
pos = (298,727);
}
);
layerId = master02;
shapes = (
{
closed = 1;
nodes = (
(539,145,l),
(199,145,l),
(199,300,l),
(447,300,l),
(447,443,l),
(199,443,l),
(199,583,l),
(523,583,l),
(523,727,l),
(40,727,l),
(40,0,l),
(539,0,l)
);
}
);
width = 561;
},
{
anchors = (
{
name = bottom;
pos = (284,0);
},
{
name = ogonek;
pos = (539,0);
},
{
name = top;
pos = (298,727);
}
);
associatedMasterId = master02;
layerId = "5837BD45-8015-44BE-B3B2-040B9824A61C";
name = foreground;
shapes = (
{
closed = 1;
nodes = (
(539,145,l),
(199,145,l),
(199,300,l),
(367,300,l),
(367,443,l),
(199,443,l),
(199,583,l),
(523,583,l),
(523,727,l),
(40,727,l),
(40,0,l),
(539,0,l)
);
}
);
width = 561;
},
{
anchors = (
{
name = bottom;
pos = (289,0);
},
{
name = ogonek;
pos = (534,0);
},
{
name = top;
pos = (288,727);
}
);
layerId = master03;
shapes = (
{
closed = 1;
nodes = (
(534,213,l),
(317,213,l),
(317,269,l),
(478,269,l),
(478,458,l),
(317,458,l),
(317,514,l),
(534,514,l),
(534,727,l),
(20,727,l),
(20,0,l),
(534,0,l)
);
}
);
userData = {
com.typemytype.robofont.guideline.magnetic.0Zfrt4k7IQ = 0;
com.typemytype.robofont.guideline.magnetic.4BBGI50hUT = 0;
com.typemytype.robofont.guideline.magnetic.80GQILoHHF = 0;
com.typemytype.robofont.guideline.magnetic.8AKi0RxN6m = 0;
com.typemytype.robofont.guideline.magnetic.9HWNHhy6tV = 0;
com.typemytype.robofont.guideline.magnetic.9fF8JS2urx = 0;
com.typemytype.robofont.guideline.magnetic.BFvMOyVbh6 = 0;
com.typemytype.robofont.guideline.magnetic.CQLxD1dYPD = 0;
com.typemytype.robofont.guideline.magnetic.Fz8ILRdo09 = 0;
com.typemytype.robofont.guideline.magnetic.Gw6Fh70nSK = 0;
com.typemytype.robofont.guideline.magnetic.Hp2fJs7DVP = 0;
com.typemytype.robofont.guideline.magnetic.KYABwIXvUj = 0;
com.typemytype.robofont.guideline.magnetic.KqLBVjvSQ3 = 0;
com.typemytype.robofont.guideline.magnetic.NTitbykYqJ = 0;
com.typemytype.robofont.guideline.magnetic.Qta0trd0bn = 0;
com.typemytype.robofont.guideline.magnetic.R7ZrzUkvSX = 0;
com.typemytype.robofont.guideline.magnetic.UN9SLRlF9f = 0;
com.typemytype.robofont.guideline.magnetic.Uljh0gNSwC = 0;
com.typemytype.robofont.guideline.magnetic.WXETIXBPwI = 0;
com.typemytype.robofont.guideline.magnetic.Xrw3Z8jwAk = 0;
com.typemytype.robofont.guideline.magnetic.cHJrBIRae1 = 0;
com.typemytype.robofont.guideline.magnetic.ey1tksU5vx = 0;
com.typemytype.robofont.guideline.magnetic.fClZUzWsxG = 0;
com.typemytype.robofont.guideline.magnetic.hgHmRzw0t0 = 0;
com.typemytype.robofont.guideline.magnetic.iIxq0S2N2e = 0;
com.typemytype.robofont.guideline.magnetic.qUrv2frev8 = 0;
com.typemytype.robofont.guideline.magnetic.rnJdg8QAFV = 0;
com.typemytype.robofont.guideline.magnetic.srpyfeYb9L = 0;
com.typemytype.robofont.guideline.magnetic.ss2bmTiA5P = 0;
com.typemytype.robofont.guideline.magnetic.xDWvnlFdPS = 0;
com.typemytype.robofont.guideline.magnetic.zLWt4vdyaP = 0;
com.typemytype.robofont.guideline.magnetic.zfXpBhdgce = 0;
};
width = 549;
},
{
anchors = (
{
name = bottom;
pos = (289,0);
},
{
name = ogonek;
pos = (534,0);
},
{
name = top;
pos = (288,727);
}
);
associatedMasterId = master03;
layerId = "55A39E25-98C2-45DE-9156-2F91F3B76E6D";
name = foreground;
shapes = (
{
closed = 1;
nodes = (
(534,213,l),
(317,213,l),
(317,269,l),
(448,269,l),
(448,458,l),
(317,458,l),
(317,514,l),
(534,514,l),
(534,727,l),
(20,727,l),
(20,0,l),
(534,0,l)
);
}
);
userData = {
com.typemytype.robofont.guideline.magnetic.0Zfrt4k7IQ = 0;
com.typemytype.robofont.guideline.magnetic.4BBGI50hUT = 0;
com.typemytype.robofont.guideline.magnetic.80GQILoHHF = 0;
com.typemytype.robofont.guideline.magnetic.8AKi0RxN6m = 0;
com.typemytype.robofont.guideline.magnetic.9HWNHhy6tV = 0;
com.typemytype.robofont.guideline.magnetic.9fF8JS2urx = 0;
com.typemytype.robofont.guideline.magnetic.BFvMOyVbh6 = 0;
com.typemytype.robofont.guideline.magnetic.CQLxD1dYPD = 0;
com.typemytype.robofont.guideline.magnetic.Fz8ILRdo09 = 0;
com.typemytype.robofont.guideline.magnetic.Gw6Fh70nSK = 0;
com.typemytype.robofont.guideline.magnetic.Hp2fJs7DVP = 0;
com.typemytype.robofont.guideline.magnetic.KYABwIXvUj = 0;
com.typemytype.robofont.guideline.magnetic.KqLBVjvSQ3 = 0;
com.typemytype.robofont.guideline.magnetic.NTitbykYqJ = 0;
com.typemytype.robofont.guideline.magnetic.Qta0trd0bn = 0;
com.typemytype.robofont.guideline.magnetic.R7ZrzUkvSX = 0;
com.typemytype.robofont.guideline.magnetic.UN9SLRlF9f = 0;
com.typemytype.robofont.guideline.magnetic.Uljh0gNSwC = 0;
com.typemytype.robofont.guideline.magnetic.WXETIXBPwI = 0;
com.typemytype.robofont.guideline.magnetic.Xrw3Z8jwAk = 0;
com.typemytype.robofont.guideline.magnetic.cHJrBIRae1 = 0;
com.typemytype.robofont.guideline.magnetic.ey1tksU5vx = 0;
com.typemytype.robofont.guideline.magnetic.fClZUzWsxG = 0;
com.typemytype.robofont.guideline.magnetic.hgHmRzw0t0 = 0;
com.typemytype.robofont.guideline.magnetic.iIxq0S2N2e = 0;
com.typemytype.robofont.guideline.magnetic.qUrv2frev8 = 0;
com.typemytype.robofont.guideline.magnetic.rnJdg8QAFV = 0;
com.typemytype.robofont.guideline.magnetic.srpyfeYb9L = 0;
com.typemytype.robofont.guideline.magnetic.ss2bmTiA5P = 0;
com.typemytype.robofont.guideline.magnetic.xDWvnlFdPS = 0;
com.typemytype.robofont.guideline.magnetic.zLWt4vdyaP = 0;
com.typemytype.robofont.guideline.magnetic.zfXpBhdgce = 0;
};
width = 549;
}
);
unicode = 69;
},
{
glyphname = F;
kernLeft = H;
lastChange = "2020-12-08 18:16:19 +0000";
layers = (
{
layerId = master01;
shapes = (
{
closed = 1;
nodes = (
(518,727,l),
(85,727,l),
(85,0,l),
(86,0,l),
(86,353,l),
(411,353,l),
(411,354,l),
(86,354,l),
(86,726,l),
(518,726,l)
);
}
);
userData = {
com.rafalbuchner.mirroringDrawingLocal = {
mirroringOptions = 3;
offset = (
0,
0
);
};
};
width = 568;
},
{
associatedMasterId = master01;
layerId = "37D013AC-BB7F-4949-80F1-8E9CB3D47CC9";
name = foreground;
shapes = (
{
closed = 1;
nodes = (
(518,727,l),
(85,727,l),
(85,0,l),
(86,0,l),
(86,353,l),
(411,353,l),
(411,354,l),
(86,354,l),
(86,726,l),
(518,726,l)
);
}
);
userData = {
com.rafalbuchner.mirroringDrawingLocal = {
mirroringOptions = 3;
offset = (
0,
0
);
};
};
width = 568;
},
{
associatedMasterId = master01;
layerId = "C7289BF2-76AA-4D11-9184-CB05AEB92668";
name = "another one";
width = 291;
},
{
layerId = master02;
shapes = (
{
closed = 1;
nodes = (
(525,727,l),
(40,727,l),
(40,0,l),
(198,0,l),
(198,253,l),
(464,253,l),
(464,395,l),
(198,395,l),
(198,582,l),
(525,582,l)
);
}
);
userData = {
com.rafalbuchner.mirroringDrawingLocal = {
mirroringOptions = 3;
offset = (
0,
0
);
};
};
width = 545;
},
{
associatedMasterId = master02;
layerId = "568028F3-4760-44ED-BADF-3300FBE8168F";
name = foreground;
shapes = (
{
closed = 1;
nodes = (
(525,727,l),
(40,727,l),
(40,0,l),
(198,0,l),
(198,248,l),
(404,248,l),
(404,387,l),
(198,387,l),
(198,582,l),
(525,582,l)
);
}
);
userData = {
com.rafalbuchner.mirroringDrawingLocal = {
mirroringOptions = 3;
offset = (
0,
0
);
};
};
width = 535;
},
{
guides = (
{
angle = 270;
},
{
angle = 270;
pos = (97,0);
},
{
angle = 270;
pos = (194,0);
},
{
angle = 270;
pos = (291,0);
},
{
angle = 270;
pos = (388,0);
},
{
angle = 270;
pos = (485,0);
},
{
angle = 270;
pos = (582,0);
},
{
angle = 270;
pos = (679,0);
},
{
angle = 270;
pos = (776,0);
},
{
angle = 270;
pos = (873,0);
},
{
angle = 270;
pos = (970,0);
},
{
angle = 270;
pos = (1067,0);
},
{
angle = 270;
pos = (1164,0);
},
{
},
{
pos = (0,97);
},
{
pos = (0,194);
},
{
pos = (0,291);
},
{
pos = (0,388);
},
{
pos = (0,485);
},
{
pos = (1088,580);
},
{
pos = (0,679);
},
{
pos = (0,776);
},
{
pos = (0,873);
},
{
pos = (0,970);
},
{
pos = (0,1067);
},
{
pos = (0,1164);
},
{
pos = (0,1261);
},
{
pos = (0,1358);
},
{
pos = (0,1455);
},
{
pos = (0,1552);
},
{
pos = (0,1649);
},
{
pos = (0,1746);
},
{
},
{
pos = (0,-97);
},
{
pos = (0,-194);
},
{
pos = (0,-291);
}
);
layerId = master03;
shapes = (
{
closed = 1;
nodes = (
(559,727,l),
(30,727,l),
(30,0,l),
(327,0,l),
(327,145,l),
(502,145,l),
(502,383,l),
(327,383,l),
(327,453,l),
(559,453,l)
);
}
);
userData = {
com.rafalbuchner.mirroringDrawingLocal = {
mirroringOptions = 3;
offset = (
0,
0
);
};
com.typemytype.robofont.guideline.magnetic.32ladxgK2e = 0;
com.typemytype.robofont.guideline.magnetic.3caxsd1v1g = 0;
com.typemytype.robofont.guideline.magnetic.52kpj8IwoO = 0;
com.typemytype.robofont.guideline.magnetic.6AHgNymSTs = 0;
com.typemytype.robofont.guideline.magnetic.6Qgn2lkLSO = 0;
com.typemytype.robofont.guideline.magnetic.6osCJNu6rN = 0;
com.typemytype.robofont.guideline.magnetic.AiZ6nIPk76 = 0;
com.typemytype.robofont.guideline.magnetic.Awu1fNqjm0 = 0;
com.typemytype.robofont.guideline.magnetic.BEtP0wIhuk = 0;
com.typemytype.robofont.guideline.magnetic.BTz6Scr6jR = 0;
com.typemytype.robofont.guideline.magnetic.DPVyEX7uo6 = 0;
com.typemytype.robofont.guideline.magnetic.DdCgci5NYW = 0;
com.typemytype.robofont.guideline.magnetic.Iv4uVOieEv = 0;
com.typemytype.robofont.guideline.magnetic.MDZ4B62Lld = 0;
com.typemytype.robofont.guideline.magnetic.Mswn6RMtEy = 0;
com.typemytype.robofont.guideline.magnetic.NEFopX3dXq = 0;
com.typemytype.robofont.guideline.magnetic.ODioNiUp9l = 0;
com.typemytype.robofont.guideline.magnetic.RCUO7GrRl6 = 0;
com.typemytype.robofont.guideline.magnetic.RItjh1PUy9 = 0;
com.typemytype.robofont.guideline.magnetic.VHk8i0KCLS = 0;
com.typemytype.robofont.guideline.magnetic.W6T6xqFoMY = 0;
com.typemytype.robofont.guideline.magnetic.ZyNiMtBEAh = 0;
com.typemytype.robofont.guideline.magnetic.cnhxyRMAL1 = 0;
com.typemytype.robofont.guideline.magnetic.d1PhIIlq3P = 0;
com.typemytype.robofont.guideline.magnetic.kZJYf9D4Ib = 0;
com.typemytype.robofont.guideline.magnetic.lRqPKAgcAY = 0;
com.typemytype.robofont.guideline.magnetic.lvIeIgB2xv = 0;
com.typemytype.robofont.guideline.magnetic.pU4Pgjd47W = 0;
com.typemytype.robofont.guideline.magnetic.qIOJXgQyXz = 0;
com.typemytype.robofont.guideline.magnetic.rORbXUq8eo = 0;
com.typemytype.robofont.guideline.magnetic.sSPEBoMwoK = 0;
com.typemytype.robofont.guideline.magnetic.sbtdY3s1ht = 0;
com.typemytype.robofont.guideline.magnetic.sf83X2qw1q = 0;
com.typemytype.robofont.guideline.magnetic.vrmmUAZK20 = 0;
com.typemytype.robofont.guideline.magnetic.yYll9pqCXX = 0;
com.typemytype.robofont.guideline.magnetic.zxgx1svE1I = 0;
};
width = 576;
},
{
associatedMasterId = master03;
guides = (
{
angle = 270;
},
{
angle = 270;
pos = (97,0);
},
{
angle = 270;
pos = (194,0);
},
{
angle = 270;
pos = (291,0);
},
{
angle = 270;
pos = (388,0);
},
{
angle = 270;
pos = (485,0);
},
{
angle = 270;
pos = (582,0);
},
{
angle = 270;
pos = (679,0);
},
{
angle = 270;
pos = (776,0);
},
{
angle = 270;
pos = (873,0);
},
{
angle = 270;
pos = (970,0);
},
{
angle = 270;
pos = (1067,0);
},
{
angle = 270;
pos = (1164,0);
},
{
},
{
pos = (0,97);
},
{
pos = (0,194);
},
{
pos = (0,291);
},
{
pos = (0,388);
},
{
pos = (0,485);
},
{
pos = (1088,580);
},
{
pos = (0,679);
},
{
pos = (0,776);
},
{
pos = (0,873);
},
{
pos = (0,970);
},
{
pos = (0,1067);
},
{
pos = (0,1164);
},
{
pos = (0,1261);
},
{
pos = (0,1358);
},
{
pos = (0,1455);
},
{
pos = (0,1552);
},
{
pos = (0,1649);
},
{
pos = (0,1746);
},
{
},
{
pos = (0,-97);
},
{
pos = (0,-194);
},
{
pos = (0,-291);
}
);
layerId = "DD88BD2E-7E1C-4C4E-A7E4-23FAA54F0CE8";
name = foreground;
shapes = (
{
closed = 1;
nodes = (
(559,727,l),
(30,727,l),
(30,0,l),
(327,0,l),
(327,145,l),
(453,145,l),
(453,383,l),
(327,383,l),
(327,453,l),
(559,453,l)
);
}
);
userData = {
com.rafalbuchner.mirroringDrawingLocal = {
mirroringOptions = 3;
offset = (
0,
0
);
};
com.typemytype.robofont.guideline.magnetic.32ladxgK2e = 0;
com.typemytype.robofont.guideline.magnetic.3caxsd1v1g = 0;
com.typemytype.robofont.guideline.magnetic.52kpj8IwoO = 0;
com.typemytype.robofont.guideline.magnetic.6AHgNymSTs = 0;
com.typemytype.robofont.guideline.magnetic.6Qgn2lkLSO = 0;
com.typemytype.robofont.guideline.magnetic.6osCJNu6rN = 0;
com.typemytype.robofont.guideline.magnetic.AiZ6nIPk76 = 0;
com.typemytype.robofont.guideline.magnetic.Awu1fNqjm0 = 0;
com.typemytype.robofont.guideline.magnetic.BEtP0wIhuk = 0;
com.typemytype.robofont.guideline.magnetic.BTz6Scr6jR = 0;
com.typemytype.robofont.guideline.magnetic.DPVyEX7uo6 = 0;
com.typemytype.robofont.guideline.magnetic.DdCgci5NYW = 0;
com.typemytype.robofont.guideline.magnetic.Iv4uVOieEv = 0;
com.typemytype.robofont.guideline.magnetic.MDZ4B62Lld = 0;
com.typemytype.robofont.guideline.magnetic.Mswn6RMtEy = 0;
com.typemytype.robofont.guideline.magnetic.NEFopX3dXq = 0;
com.typemytype.robofont.guideline.magnetic.ODioNiUp9l = 0;
com.typemytype.robofont.guideline.magnetic.RCUO7GrRl6 = 0;
com.typemytype.robofont.guideline.magnetic.RItjh1PUy9 = 0;
com.typemytype.robofont.guideline.magnetic.VHk8i0KCLS = 0;
com.typemytype.robofont.guideline.magnetic.W6T6xqFoMY = 0;
com.typemytype.robofont.guideline.magnetic.ZyNiMtBEAh = 0;
com.typemytype.robofont.guideline.magnetic.cnhxyRMAL1 = 0;
com.typemytype.robofont.guideline.magnetic.d1PhIIlq3P = 0;
com.typemytype.robofont.guideline.magnetic.kZJYf9D4Ib = 0;
com.typemytype.robofont.guideline.magnetic.lRqPKAgcAY = 0;
com.typemytype.robofont.guideline.magnetic.lvIeIgB2xv = 0;
com.typemytype.robofont.guideline.magnetic.pU4Pgjd47W = 0;
com.typemytype.robofont.guideline.magnetic.qIOJXgQyXz = 0;
com.typemytype.robofont.guideline.magnetic.rORbXUq8eo = 0;
com.typemytype.robofont.guideline.magnetic.sSPEBoMwoK = 0;
com.typemytype.robofont.guideline.magnetic.sbtdY3s1ht = 0;
com.typemytype.robofont.guideline.magnetic.sf83X2qw1q = 0;
com.typemytype.robofont.guideline.magnetic.vrmmUAZK20 = 0;
com.typemytype.robofont.guideline.magnetic.yYll9pqCXX = 0;
com.typemytype.robofont.guideline.magnetic.zxgx1svE1I = 0;
};
width = 576;
}
);
unicode = 70;
},
{
glyphname = G;
kernLeft = O;
kernRight = G;
lastChange = "2020-12-08 18:15:44 +0000";
layers = (
{
anchors = (
{
name = bottom;
pos = (413,0);
},
{
name = top;
pos = (413,727);
}
);
background = {
shapes = (
{
closed = 1;
nodes = (
(603,254,l),
(603,92,l),
(630,92,l),
(640,0,l),
(741,0,l),
(741,381,l),
(455,381,l),
(455,254,l)
);
},
{
closed = 1;
nodes = (
(621,254,l),
(587,161,o),
(513,123,o),
(410,123,cs),
(271,123,o),
(189,210,o),
(189,363,cs),
(189,517,o),
(282,604,o),
(404,604,c),
(500,604,o),
(562,570,o),
(605,486,c),
(732,553,l),
(669,674,o),
(564,743,o),
(404,743,c),
(192,743,o),
(39,595,o),
(39,363,cs),
(39,132,o),
(173,-15,o),
(394,-15,cs),
(525,-15,o),
(619,44,o),
(648,143,c)
);
},
{
closed = 1;
nodes = (
(201,742,o),
(62,581,o),
(62,363,c),
(62,145,o),
(201,-17,o),
(412,-17,cs),
(572,-17,o),
(678,60,o),
(732,196,c),
(731,197,l),
(677,61,o),
(572,-16,o),
(412,-16,cs),
(201,-16,o),
(63,145,o),
(63,363,cs),
(63,580,o),
(201,741,o),
(412,741,cs),
(562,741,o),
(663,674,o),
(714,554,c),
(714,555,l),
(664,675,o),
(562,742,o),
(412,742,cs)
);
},
{
closed = 1;
nodes = (
(731,327,l),
(731,196,l),
(732,196,l),
(731,0,l),
(732,0,l),
(732,328,l),
(455,328,l),
(455,327,l)
);
}
);
};
layerId = master01;
shapes = (
{
closed = 1;
nodes = (
(456,327,l),
(733,327,l),
(732,328,l),
(732,292,l),
(732,102,o),
(611,-16,o),
(413,-16,cs),
(205,-16,o),
(64,134,o),
(64,355,cs),
(64,587,o),
(203,741,o),
(413,741,cs),
(560,741,o),
(663,677,o),
(715,554,c),
(716,555,l),
(664,677,o),
(560,742,o),
(413,742,cs),
(202,742,o),
(63,588,o),
(63,355,cs),
(63,133,o),
(204,-17,o),
(413,-17,cs),
(604,-17,o),
(725,93,o),
(732,271,c),
(733,271,l),
(732,0,l),
(733,0,l),
(733,328,l),
(456,328,l)
);
}
);
userData = {
com.rafalbuchner.mirroringDrawingLocal = {
mirroringOptions = 2;
offset = (
0,
1
);
};
};
width = 818;
},
{
anchors = (
{
name = bottom;
pos = (413,0);
},
{
name = top;
pos = (413,727);
}
);
associatedMasterId = master01;
layerId = "B954D3FC-42E5-4C1C-8E13-ACA4BC61681C";
name = foreground;
shapes = (
{
closed = 1;
nodes = (
(456,327,l),
(733,327,l),
(732,328,l),
(732,292,l),
(732,102,o),
(611,-16,o),
(413,-16,cs),
(205,-16,o),
(64,134,o),
(64,355,cs),
(64,587,o),
(203,741,o),
(413,741,cs),
(560,741,o),
(663,677,o),
(715,554,c),
(716,555,l),
(664,677,o),
(560,742,o),
(413,742,cs),
(202,742,o),
(63,588,o),
(63,355,cs),
(63,133,o),
(204,-17,o),
(413,-17,cs),
(604,-17,o),
(725,93,o),
(732,271,c),
(733,271,l),
(732,0,l),
(733,0,l),
(733,328,l),
(456,328,l)
);
}
);
userData = {
com.rafalbuchner.mirroringDrawingLocal = {
mirroringOptions = 2;
offset = (
0,
1
);
};
};
width = 818;
},
{
associatedMasterId = master01;
layerId = "5D60DDBE-917F-4838-8CFF-E5A581B34D89";
name = "another one";
shapes = (
{
closed = 1;
nodes = (
(377,365,l),
(74,365,l),
(74,768,l),
(187,768,l),
(192,711,l),
(213,711,l),
(255,750,o),
(370,783,o),
(431,783,qs),
(606,783,o),
(835,555,o),
(835,385,qs),
(835,208,o),
(603,-16,o),
(431,-16,qs),
(305,-16,o),
(120,103,o),
(81,206,q),
(213,268,l),
(242,205,o),
(352,130,o),
(431,130,qs),
(545,130,o),
(677,273,o),
(677,385,qs),
(677,493,o),
(546,638,o),
(431,638,qs),
(369,638,o),
(258,597,o),
(220,559,q),
(220,499,l),
(377,499,l)
);
}
);
userData = {
com.rafalbuchner.mirroringDrawingLocal = {
mirroringOptions = 3;
offset = (
0,
0
);
};
};
width = 291;
},
{
anchors = (
{
name = bottom;
pos = (400,0);
},
{
name = top;
pos = (400,727);
}
);
background = {
shapes = (
{
closed = 1;
nodes = (
(455,259,l),
(590,259,l),
(582,280,l),
(582,271,l),
(582,194,o),
(512,132,o),
(403,132,cs),
(263,132,o),
(190,224,o),
(190,362,cs),
(190,500,o),
(276,592,o),
(400,592,cs),
(481,592,o),
(531,564,o),
(576,494,c),
(702,579,l),
(631,691,o),
(537,742,o),
(399,742,cs),
(188,742,o),
(27,595,o),
(27,364,cs),
(27,137,o),
(174,-15,o),
(384,-15,cs),
(478,-15,o),
(558,20,o),
(597,77,c),
(601,77,l),
(608,0,l),
(731,0,l),
(731,384,l),
(455,384,l)
);
}
);
};
layerId = master02;
shapes = (
{
closed = 1;
nodes = (
(487,592,o),
(540,553,o),
(558,482,c),
(722,482,l),
(689,647,o),
(568,742,o),
(394,742,cs),
(186,742,o),
(27,595,o),
(27,364,cs),
(27,137,o),
(172,-15,o),
(379,-15,cs),
(475,-15,o),
(557,20,o),
(597,77,c),
(601,77,l),
(608,0,l),
(731,0,l),
(731,384,l),
(455,384,l),
(455,259,l),
(590,259,l),
(582,280,l),
(582,271,l),
(582,194,o),
(510,132,o),
(398,132,cs),
(261,132,o),
(190,224,o),
(190,362,cs),
(190,500,o),
(274,592,o),
(395,592,cs)
);
}
);
userData = {
com.rafalbuchner.mirroringDrawingLocal = {
mirroringOptions = 2;
offset = (
0,
1
);
};
};
width = 769;
},
{
anchors = (
{
name = bottom;
pos = (400,0);
},
{
name = top;
pos = (400,727);
}
);
associatedMasterId = master02;
layerId = "918F35B4-5FFD-4D79-A39A-7C99F833FBCC";
name = foreground;
shapes = (
{
closed = 1;
nodes = (
(455,259,l),
(590,259,l),
(582,280,l),
(582,271,l),
(582,194,o),
(512,132,o),
(403,132,cs),
(263,132,o),
(190,224,o),
(190,362,cs),
(190,500,o),
(276,592,o),
(400,592,cs),
(481,592,o),
(531,564,o),
(576,494,c),
(702,579,l),
(631,691,o),
(537,742,o),
(399,742,cs),
(188,742,o),
(27,595,o),
(27,364,cs),
(27,137,o),
(174,-15,o),
(384,-15,cs),
(478,-15,o),
(558,20,o),
(597,77,c),
(601,77,l),
(608,0,l),
(731,0,l),
(731,384,l),
(455,384,l)
);
}
);
userData = {
com.rafalbuchner.mirroringDrawingLocal = {
mirroringOptions = 2;
offset = (
0,
1
);
};
};
width = 769;
},
{
anchors = (
{
name = bottom;
pos = (398,0);
},
{
name = top;
pos = (398,727);
}
);
background = {
shapes = (
{
closed = 1;
nodes = (
(396,289,l),
(488,289,l),
(483,315,l),
(483,302,l),
(483,266,o),
(454,242,o),
(404,242,cs),
(352,242,o),
(320,288,o),
(320,352,cs),
(320,418,o),
(351,465,o),
(404,465,cs),
(439,465,o),
(460,450,o),
(475,418,c),
(756,500,l),
(700,660,o),
(580,747,o),
(398,747,cs),
(170,747,o),
(10,598,o),
(10,363,cs),
(10,132,o),
(159,-15,o),
(380,-15,cs),
(463,-15,o),
(531,18,o),
(566,64,c),
(572,64,l),
(594,0,l),
(759,0,l),
(759,400,l),
(396,400,l)
);
}
);
};
layerId = master03;
shapes = (
{
closed = 1;
nodes = (
(396,280,l),
(476,280,l),
(468,312,l),
(468,299,l),
(468,263,o),
(447,242,o),
(410,242,cs),
(349,242,o),
(320,290,o),
(320,357,cs),
(320,426,o),
(346,475,o),
(402,475,cs),
(430,475,o),
(450,458,o),
(457,431,c),
(758,431,l),
(735,606,o),
(625,747,o),
(398,747,cs),
(170,747,o),
(10,598,o),
(10,363,cs),
(10,132,o),
(159,-15,o),
(387,-15,cs),
(479,-15,o),
(553,6,o),
(609,54,c),
(615,54,l),
(639,0,l),
(759,0,l),
(759,405,l),
(396,405,l)
);
}
);
userData = {
com.rafalbuchner.mirroringDrawingLocal = {
mirroringOptions = 2;
offset = (
0,
1
);
};
};
width = 774;
},
{
anchors = (
{
name = bottom;
pos = (398,0);
},
{
name = top;
pos = (398,727);
}
);
associatedMasterId = master03;
layerId = "9236790F-952A-4F8D-8326-1BCF1EFACF0F";
name = foreground;
shapes = (
{
closed = 1;
nodes = (
(396,289,l),
(488,289,l),
(483,315,l),
(483,302,l),
(483,266,o),
(454,242,o),
(410,242,cs),
(349,242,o),
(320,290,o),
(320,357,cs),
(320,423,o),
(348,470,o),
(406,470,cs),
(438,470,o),
(463,454,o),
(477,421,c),
(745,520,l),
(696,657,o),
(567,747,o),
(398,747,cs),
(170,747,o),
(10,598,o),
(10,363,cs),
(10,132,o),
(159,-15,o),
(371,-15,cs),
(463,-15,o),
(529,17,o),
(566,64,c),
(572,64,l),
(594,0,l),
(759,0,l),
(759,405,l),
(396,405,l)
);
}
);
userData = {
com.rafalbuchner.mirroringDrawingLocal = {
mirroringOptions = 2;
offset = (
0,
1
);
};
};
width = 776;
},
{
associatedMasterId = master03;
layerId = "C582B292-A43C-4D53-BC7F-B7C2E795551E";
name = bg;
shapes = (
{
closed = 1;
nodes = (
(425,300,l),
(479,300,l),
(472,310,l),
(472,293,l),
(472,232,o),
(441,228,o),
(411,228,c),
(313,228,o),
(277,274,o),
(277,365,cs),
(277,455,o),
(327,501,o),
(390,501,c),
(442,501,o),
(470,488,o),
(492,445,c),
(720,544,l),
(664,674,o),
(560,745,o),
(390,745,c),
(188,745,o),
(14,608,o),
(14,365,cs),
(14,125,o),
(162,-13,o),
(380,-13,c),
(410,-13,o),
(477,8,o),
(493,64,c),
(499,64,l),
(511,0,l),
(741,0,l),
(741,421,l),
(425,421,l)
);
}
);
width = 807;
},
{
associatedMasterId = master03;
layerId = "603A5360-B81C-4455-AF38-8443346EA269";
name = "another one";
shapes = (
{
closed = 1;
nodes = (
(396,289,l),
(488,289,l),
(483,315,l),
(483,302,l),
(483,266,o),
(454,242,o),
(404,242,cs),
(352,242,o),
(320,288,o),
(320,352,cs),
(320,418,o),
(351,465,o),
(404,465,cs),
(439,465,o),
(462,452,o),
(483,416,c),
(735,550,l),
(669,677,o),
(558,747,o),
(398,747,cs),
(170,747,o),
(10,598,o),
(10,363,cs),
(10,132,o),
(159,-15,o),
(380,-15,cs),
(463,-15,o),
(531,18,o),
(566,64,c),
(572,64,l),
(594,0,l),
(759,0,l),
(759,400,l),
(396,400,l)
);
}
);
width = 776;
}
);
unicode = 71;
},
{
glyphname = H;
kernLeft = H;
kernRight = H;
lastChange = "2020-11-29 15:59:08 +0000";
layers = (
{
layerId = master01;
shapes = (
{
closed = 1;
nodes = (
(86,0,l),
(85,0,l),
(85,727,l),
(86,727,l)
);
},
{
closed = 1;
nodes = (
(86,374,l),
(600,374,l),
(600,373,l),
(86,373,l)
);
},
{
closed = 1;
nodes = (
(600,0,l),
(599,0,l),
(599,727,l),
(600,727,l)
);
}
);
width = 685;
},
{
associatedMasterId = master01;
layerId = "AC0738B0-7A9E-4ACD-A1EB-DC7588F055C3";
name = foreground;
shapes = (
{
closed = 1;
nodes = (
(86,0,l),
(85,0,l),
(85,727,l),
(86,727,l)
);
},
{
closed = 1;
nodes = (
(86,374,l),
(600,374,l),
(600,373,l),
(86,373,l)
);
},
{
closed = 1;
nodes = (
(600,0,l),
(599,0,l),
(599,727,l),
(600,727,l)
);
}
);
width = 685;
},
{
associatedMasterId = master01;
layerId = "FF7E778A-E9F7-4EFE-B8C8-DA9225772C83";
name = "another one";
width = 291;
},
{
layerId = master02;
shapes = (
{
closed = 1;
nodes = (
(199,0,l),
(40,0,l),
(40,727,l),
(199,727,l)
);
},
{
closed = 1;
nodes = (
(118,433,l),
(572,433,l),
(572,295,l),
(118,295,l)
);
},
{
closed = 1;
nodes = (
(641,0,l),
(482,0,l),
(482,727,l),
(641,727,l)
);
}
);
width = 681;
},
{
associatedMasterId = master02;
layerId = "2F5363B2-AD2C-4130-B404-3EEC0AD24B32";
name = foreground;
shapes = (
{
closed = 1;
nodes = (
(199,0,l),
(40,0,l),
(40,727,l),
(199,727,l)
);
},
{
closed = 1;
nodes = (
(118,433,l),
(572,433,l),
(572,295,l),
(118,295,l)
);
},
{
closed = 1;
nodes = (
(641,0,l),
(482,0,l),
(482,727,l),
(641,727,l)
);
}
);
width = 681;
},
{
guides = (
{
angle = 270;
},
{
angle = 270;
pos = (97,0);
},
{
angle = 270;
pos = (194,0);
},
{
angle = 270;
pos = (291,0);
},
{
angle = 270;
pos = (388,0);
},
{
angle = 270;
pos = (485,0);
},
{
angle = 270;
pos = (582,0);
},
{
angle = 270;
pos = (679,0);
},
{
angle = 270;
pos = (776,0);
},
{
angle = 270;
pos = (873,0);
},
{
angle = 270;
pos = (970,0);
},
{
angle = 270;
pos = (1067,0);
},
{
angle = 270;
pos = (1164,0);
},
{
angle = 270;
pos = (1261,0);
},
{
angle = 270;
pos = (1358,0);
},
{
angle = 270;
pos = (1455,0);
},
{
},
{
pos = (0,97);
},
{
pos = (0,194);
},
{
pos = (0,291);
},
{
pos = (0,388);
},
{
pos = (0,485);
},
{
pos = (0,582);
},
{
pos = (0,679);
},
{
pos = (0,776);
},
{
pos = (0,873);
},
{
pos = (0,970);
},
{
pos = (0,1067);
},
{
pos = (0,1164);
},
{
pos = (0,1261);
},
{
pos = (0,1358);
},
{
pos = (0,1455);
},
{
pos = (0,1552);
},
{
pos = (0,1649);
},
{
pos = (0,1746);
},
{
},
{
pos = (0,-97);
},
{
pos = (0,-194);
},
{
pos = (0,-291);
}
);
layerId = master03;
shapes = (
{
closed = 1;
nodes = (
(322,0,l),
(20,0,l),
(20,727,l),
(322,727,l)
);
},
{
closed = 1;
nodes = (
(155,485,l),
(589,485,l),
(589,243,l),
(155,243,l)
);
},
{
closed = 1;
nodes = (
(707,0,l),
(405,0,l),
(405,727,l),
(707,727,l)
);
}
);
userData = {
com.typemytype.robofont.guideline.magnetic.086S2H24hY = 0;
com.typemytype.robofont.guideline.magnetic.17cAK1hEcd = 0;
com.typemytype.robofont.guideline.magnetic.1lRdfyRgCV = 0;
com.typemytype.robofont.guideline.magnetic.5cIi0aFMlD = 0;
com.typemytype.robofont.guideline.magnetic.7sJiU8DE1y = 0;
com.typemytype.robofont.guideline.magnetic.8Glykw24nU = 0;
com.typemytype.robofont.guideline.magnetic.9j1dc0DK6O = 0;
com.typemytype.robofont.guideline.magnetic.AZ9F9q2DRh = 0;
com.typemytype.robofont.guideline.magnetic.EKoaAqbeK7 = 0;
com.typemytype.robofont.guideline.magnetic.EfuyZLyQ8E = 0;
com.typemytype.robofont.guideline.magnetic.FEcEbS1aAy = 0;
com.typemytype.robofont.guideline.magnetic.Htcdivh8fO = 0;
com.typemytype.robofont.guideline.magnetic.IyXaUwDaj1 = 0;
com.typemytype.robofont.guideline.magnetic.Jb5c2t8yHp = 0;
com.typemytype.robofont.guideline.magnetic.KcIrjV54Pn = 0;
com.typemytype.robofont.guideline.magnetic.LQb9afaSgw = 0;
com.typemytype.robofont.guideline.magnetic.MRPbJP9aQw = 0;
com.typemytype.robofont.guideline.magnetic.N00umqVUXX = 0;
com.typemytype.robofont.guideline.magnetic.OH2hUvifMg = 0;
com.typemytype.robofont.guideline.magnetic.RcnMvjbP3B = 0;
com.typemytype.robofont.guideline.magnetic.TBVaYXEAkq = 0;
com.typemytype.robofont.guideline.magnetic.Tn5XfQsdzY = 0;
com.typemytype.robofont.guideline.magnetic.Vp8DJQP6qB = 0;
com.typemytype.robofont.guideline.magnetic.Weah9yJUDL = 0;
com.typemytype.robofont.guideline.magnetic.WtYeZriNLl = 0;
com.typemytype.robofont.guideline.magnetic.YCDV05u5pF = 0;
com.typemytype.robofont.guideline.magnetic.anMSukarWD = 0;
com.typemytype.robofont.guideline.magnetic.asGVK1FF5y = 0;
com.typemytype.robofont.guideline.magnetic.cb5Ey1I7lA = 0;
com.typemytype.robofont.guideline.magnetic.hhPC46yjBU = 0;
com.typemytype.robofont.guideline.magnetic.iFEvMMjUhv = 0;
com.typemytype.robofont.guideline.magnetic.iVqFFHmbV5 = 0;
com.typemytype.robofont.guideline.magnetic.nVxhrZqCqQ = 0;
com.typemytype.robofont.guideline.magnetic.qd5EoIWn8o = 0;
com.typemytype.robofont.guideline.magnetic.ssON0jhc9A = 0;
com.typemytype.robofont.guideline.magnetic.xGVfggbKAJ = 0;
com.typemytype.robofont.guideline.magnetic.xYDjVsdRAf = 0;
com.typemytype.robofont.guideline.magnetic.zERZAczoJL = 0;
com.typemytype.robofont.guideline.magnetic.zIAnIWyBdQ = 0;
};
width = 727;
},
{
associatedMasterId = master03;
guides = (
{
angle = 270;
},
{
angle = 270;
pos = (97,0);
},
{
angle = 270;
pos = (194,0);
},
{
angle = 270;
pos = (291,0);
},
{
angle = 270;
pos = (388,0);
},
{
angle = 270;
pos = (485,0);
},
{
angle = 270;
pos = (582,0);
},
{
angle = 270;
pos = (679,0);
},
{
angle = 270;
pos = (776,0);
},
{
angle = 270;
pos = (873,0);
},
{
angle = 270;
pos = (970,0);
},
{
angle = 270;
pos = (1067,0);
},
{
angle = 270;
pos = (1164,0);
},
{
angle = 270;
pos = (1261,0);
},
{
angle = 270;
pos = (1358,0);
},
{
angle = 270;
pos = (1455,0);
},
{
},
{
pos = (0,97);
},
{
pos = (0,194);
},
{
pos = (0,291);
},
{
pos = (0,388);
},
{
pos = (0,485);
},
{
pos = (0,582);
},
{
pos = (0,679);
},
{
pos = (0,776);
},
{
pos = (0,873);
},
{
pos = (0,970);
},
{
pos = (0,1067);
},
{
pos = (0,1164);
},
{
pos = (0,1261);
},
{
pos = (0,1358);
},
{
pos = (0,1455);
},
{
pos = (0,1552);
},
{
pos = (0,1649);
},
{
pos = (0,1746);
},
{
},
{
pos = (0,-97);
},
{
pos = (0,-194);
},
{
pos = (0,-291);
}
);
layerId = "11CC033A-8671-49D7-BAD1-77C62E7EF164";
name = foreground;
shapes = (
{
closed = 1;
nodes = (
(322,0,l),
(20,0,l),
(20,727,l),
(322,727,l)
);
},
{
closed = 1;
nodes = (
(155,485,l),
(589,485,l),
(589,243,l),
(155,243,l)
);
},
{
closed = 1;
nodes = (
(707,0,l),
(405,0,l),
(405,727,l),
(707,727,l)
);
}
);
userData = {
com.typemytype.robofont.guideline.magnetic.086S2H24hY = 0;
com.typemytype.robofont.guideline.magnetic.17cAK1hEcd = 0;
com.typemytype.robofont.guideline.magnetic.1lRdfyRgCV = 0;
com.typemytype.robofont.guideline.magnetic.5cIi0aFMlD = 0;
com.typemytype.robofont.guideline.magnetic.7sJiU8DE1y = 0;
com.typemytype.robofont.guideline.magnetic.8Glykw24nU = 0;
com.typemytype.robofont.guideline.magnetic.9j1dc0DK6O = 0;
com.typemytype.robofont.guideline.magnetic.AZ9F9q2DRh = 0;
com.typemytype.robofont.guideline.magnetic.EKoaAqbeK7 = 0;
com.typemytype.robofont.guideline.magnetic.EfuyZLyQ8E = 0;
com.typemytype.robofont.guideline.magnetic.FEcEbS1aAy = 0;
com.typemytype.robofont.guideline.magnetic.Htcdivh8fO = 0;
com.typemytype.robofont.guideline.magnetic.IyXaUwDaj1 = 0;
com.typemytype.robofont.guideline.magnetic.Jb5c2t8yHp = 0;
com.typemytype.robofont.guideline.magnetic.KcIrjV54Pn = 0;
com.typemytype.robofont.guideline.magnetic.LQb9afaSgw = 0;
com.typemytype.robofont.guideline.magnetic.MRPbJP9aQw = 0;
com.typemytype.robofont.guideline.magnetic.N00umqVUXX = 0;
com.typemytype.robofont.guideline.magnetic.OH2hUvifMg = 0;
com.typemytype.robofont.guideline.magnetic.RcnMvjbP3B = 0;
com.typemytype.robofont.guideline.magnetic.TBVaYXEAkq = 0;
com.typemytype.robofont.guideline.magnetic.Tn5XfQsdzY = 0;
com.typemytype.robofont.guideline.magnetic.Vp8DJQP6qB = 0;
com.typemytype.robofont.guideline.magnetic.Weah9yJUDL = 0;
com.typemytype.robofont.guideline.magnetic.WtYeZriNLl = 0;
com.typemytype.robofont.guideline.magnetic.YCDV05u5pF = 0;
com.typemytype.robofont.guideline.magnetic.anMSukarWD = 0;
com.typemytype.robofont.guideline.magnetic.asGVK1FF5y = 0;
com.typemytype.robofont.guideline.magnetic.cb5Ey1I7lA = 0;
com.typemytype.robofont.guideline.magnetic.hhPC46yjBU = 0;
com.typemytype.robofont.guideline.magnetic.iFEvMMjUhv = 0;
com.typemytype.robofont.guideline.magnetic.iVqFFHmbV5 = 0;
com.typemytype.robofont.guideline.magnetic.nVxhrZqCqQ = 0;
com.typemytype.robofont.guideline.magnetic.qd5EoIWn8o = 0;
com.typemytype.robofont.guideline.magnetic.ssON0jhc9A = 0;
com.typemytype.robofont.guideline.magnetic.xGVfggbKAJ = 0;
com.typemytype.robofont.guideline.magnetic.xYDjVsdRAf = 0;
com.typemytype.robofont.guideline.magnetic.zERZAczoJL = 0;
com.typemytype.robofont.guideline.magnetic.zIAnIWyBdQ = 0;
};
width = 727;
}
);
unicode = 72;
},
{
glyphname = I;
kernLeft = H;
kernRight = H;
lastChange = "2020-11-26 16:42:11 +0000";
layers = (
{
anchors = (
{
name = bottom;
pos = (96,0);
},
{
name = ogonek;
pos = (96,0);
},
{
name = top;
pos = (96,727);
}
);
layerId = master01;
shapes = (
{
closed = 1;
nodes = (
(95,727,l),
(95,0,l),
(96,0,l),
(96,727,l)
);
}
);
width = 191;
},
{
anchors = (
{
name = bottom;
pos = (96,0);
},
{
name = ogonek;
pos = (96,0);
},
{
name = top;
pos = (96,727);
}
);
associatedMasterId = master01;
layerId = "47FDEB75-A1C3-4F92-AF8B-BF0B57011056";
name = foreground;
shapes = (
{
closed = 1;
nodes = (
(95,727,l),
(95,0,l),
(96,0,l),
(96,727,l)
);
}
);
width = 191;
},
{
associatedMasterId = master01;
layerId = "FDA9F44D-CAE9-467F-B65E-9C1F4B0B2A87";
name = "another one";
width = 291;
},
{
anchors = (
{
name = bottom;
pos = (119,0);
},
{
name = ogonek;
pos = (199,0);
},
{
name = top;
pos = (119,727);
}
);
layerId = master02;
shapes = (
{
closed = 1;
nodes = (
(40,727,l),
(40,0,l),
(199,0,l),
(199,727,l)
);
}
);
width = 239;
},
{
anchors = (
{
name = bottom;
pos = (119,0);
},
{
name = ogonek;
pos = (199,0);
},
{
name = top;
pos = (119,727);
}
);
associatedMasterId = master02;
layerId = "1FC7EA38-CED6-4066-9773-C97839ED8FCD";
name = foreground;
shapes = (
{
closed = 1;
nodes = (
(40,727,l),
(40,0,l),
(199,0,l),
(199,727,l)
);
}
);
width = 239;
},
{
anchors = (
{
name = bottom;
pos = (169,0);
},
{
name = ogonek;
pos = (317,0);
},
{
name = top;
pos = (169,727);
}
);
layerId = master03;
shapes = (
{
closed = 1;
nodes = (
(20,727,l),
(20,0,l),
(317,0,l),
(317,727,l)
);
}
);
width = 337;
},
{
anchors = (
{
name = bottom;
pos = (169,0);
},
{
name = ogonek;
pos = (317,0);
},
{
name = top;
pos = (169,727);
}
);
associatedMasterId = master03;
layerId = "0E91878B-8742-4E7D-BE7A-39FFCD7A51F1";
name = foreground;
shapes = (
{
closed = 1;
nodes = (
(20,727,l),
(20,0,l),
(317,0,l),
(317,727,l)
);
}
);
width = 337;
}
);
unicode = 73;
},
{
glyphname = J;
kernRight = J;
lastChange = "2020-12-08 18:22:20 +0000";
layers = (
{
layerId = master01;
shapes = (
{
closed = 1;
nodes = (
(466,216,ls),
(466,70,o),
(391,-14,o),
(259,-14,cs),
(154,-14,o),
(85,50,o),
(61,170,c),
(62,170,l),
(86,51,o),
(154,-13,o),
(259,-13,cs),
(391,-13,o),
(465,70,o),
(465,216,cs),
(465,727,l),
(466,727,l)
);
}
);
width = 541;
},
{
associatedMasterId = master01;
layerId = "3CE98BBB-3CD5-4B78-8107-5445A79D7D0C";
name = foreground;
shapes = (
{
closed = 1;
nodes = (
(466,216,ls),
(466,70,o),
(391,-14,o),
(259,-14,cs),
(154,-14,o),
(85,50,o),
(61,170,c),
(62,170,l),
(86,51,o),
(154,-13,o),
(259,-13,cs),
(391,-13,o),
(465,70,o),
(465,216,cs),
(465,727,l),
(466,727,l)
);
}
);
width = 541;
},
{
background = {
shapes = (
{
closed = 1;
nodes = (
(507,242,ls),
(507,72,o),
(404,-15,o),
(253,-15,cs),
(141,-15,o),
(68,27,o),
(30,118,c),
(158,190,l),
(178,148,o),
(204,128,o),
(247,128,cs),
(315,128,o),
(347,166,o),
(347,242,cs),
(347,727,l),
(507,727,l)
);
}
);
};
layerId = master02;
shapes = (
{
closed = 1;
nodes = (
(507,242,ls),
(507,72,o),
(406,-15,o),
(258,-15,cs),
(127,-15,o),
(17,45,o),
(9,216,c),
(164,216,l),
(168,152,o),
(198,128,o),
(256,128,cs),
(318,128,o),
(347,166,o),
(347,242,cs),
(347,727,l),
(507,727,l)
);
}
);
width = 542;
},
{
associatedMasterId = master02;
layerId = "5E07AE03-0E9B-4A64-80B8-1A03FE89B00E";
name = foreground;
shapes = (
{
closed = 1;
nodes = (
(487,242,ls),
(487,72,o),
(384,-15,o),
(233,-15,cs),
(121,-15,o),
(48,27,o),
(10,118,c),
(138,190,l),
(158,148,o),
(184,128,o),
(227,128,cs),
(295,128,o),
(327,166,o),
(327,242,cs),
(327,727,l),
(487,727,l)
);
}
);
width = 522;
},
{
layerId = master03;
shapes = (
{
closed = 1;
nodes = (
(15,254,l),
(45,250,o),
(61,248,o),
(86,248,cs),
(99,248,o),
(106,255,o),
(106,266,cs),
(106,727,l),
(403,727,l),
(404,223,ls),
(404,59,o),
(305,-15,o),
(150,-15,cs),
(101,-15,o),
(59,-11,o),
(15,0,c)
);
}
);
width = 421;
},
{
associatedMasterId = master03;
layerId = "ACD9D82D-9A42-4302-849D-2A034DA8D58B";
name = foreground;
shapes = (
{
closed = 1;
nodes = (
(604,260,ls),
(604,77,o),
(479,-20,o),
(301,-20,cs),
(136,-20,o),
(34,53,o),
(-4,211,c),
(236,275,l),
(239,248,o),
(253,238,o),
(271,238,cs),
(294,238,o),
(307,252,o),
(307,277,cs),
(307,727,l),
(604,727,l)
);
}
);
width = 620;
},
{
associatedMasterId = master03;
layerId = "8D2EA17C-05E4-42AE-A98F-98ACFB6AC9F9";
name = bg;
shapes = (
{
closed = 1;
nodes = (
(550,280,ls),
(550,86,o),
(440,-14,o),
(266,-14,c),
(116,-14,o),
(18,70,o),
(-2,199,c),
(227,248,l),
(230,230,o),
(240,223,o),
(258,223,cs),
(279,223,o),
(290,236,o),
(290,258,cs),
(290,727,l),
(550,727,l)
);
},
{
closed = 1;
nodes = (
(550,280,ls),
(550,86,o),
(440,-14,o),
(266,-14,c),
(116,-14,o),
(17,72,o),
(-1,210,c),
(224,257,l),
(226,233,o),
(239,223,o),
(256,223,cs),
(279,223,o),
(290,236,o),
(290,258,cs),
(290,727,l),
(550,727,l)
);
},
{
closed = 1;
nodes = (
(561,245,ls),
(561,70,o),
(429,-20,o),
(268,-20,cs),
(119,-20,o),
(14,47,o),
(-3,215,c),
(187,276,l),
(188,247,o),
(204,235,o),
(223,235,cs),
(250,235,o),
(264,250,o),
(264,277,cs),
(264,727,l),
(561,727,l)
);
}
);
width = 566;
}
);
metricRight = t;
unicode = 74;
},
{
glyphname = K;
kernLeft = H;
kernRight = K;
lastChange = "2020-12-08 18:15:05 +0000";
layers = (
{
anchors = (
{
name = bottom;
pos = (307,0);
},
{
name = top;
pos = (307,727);
}
);
background = {
shapes = (
{
closed = 1;
nodes = (
(95,0,l),
(94,0,l),
(94,727,l),
(95,727,l)
);
},
{
closed = 1;
nodes = (
(223,426,l),
(222,426,l),
(95,318,l),
(94,320,l),
(95,320,l),
(579,727,l),
(580,727,l)
);
},
{
closed = 1;
nodes = (
(222,426,l),
(221,426,l),
(223,427,l),
(631,0,l),
(629,0,l)
);
}
);
};
guides = (
{
angle = 40.1026;
pos = (189.075,636.062);
}
);
layerId = master01;
shapes = (
{
closed = 1;
nodes = (
(86,0,l),
(85,0,l),
(85,727,l),
(86,727,l)
);
},
{
closed = 1;
nodes = (
(245,452,l),
(244,451,l),
(86,318,l),
(86,320,l),
(87,320,l),
(570,727,l),
(572,727,l)
);
},
{
closed = 1;
nodes = (
(244,451,l),
(243,451,l),
(245,452,l),
(592,0,l),
(591,0,l)
);
}
);
width = 641;
},
{
anchors = (
{
name = bottom;
pos = (307,0);
},
{
name = top;
pos = (307,727);
}
);
associatedMasterId = master01;
guides = (
{
angle = 40.1026;
pos = (189.075,636.062);
}
);
layerId = "1C1DDA2C-0B52-4C6C-B1D9-5109E30BD30F";
name = foreground;
shapes = (
{
closed = 1;
nodes = (
(86,0,l),
(85,0,l),
(85,727,l),
(86,727,l)
);
},
{
closed = 1;
nodes = (
(245,452,l),
(244,451,l),
(86,318,l),
(86,320,l),
(87,320,l),
(570,727,l),
(572,727,l)
);
},
{
closed = 1;
nodes = (
(244,451,l),
(243,451,l),
(245,452,l),
(592,0,l),
(591,0,l)
);
}
);
width = 641;
},
{
associatedMasterId = master01;
layerId = "F1749707-0112-4891-B9BF-84453B6195A1";
name = "another one";
width = 291;
},
{
anchors = (
{
name = bottom;
pos = (308,0);
},
{
name = top;
pos = (308,727);
}
);
layerId = master02;
shapes = (
{
closed = 1;
nodes = (
(198,0,l),
(40,0,l),
(40,727,l),
(198,727,l)
);
},
{
closed = 1;
nodes = (
(350,404,l),
(305,372,l),
(176,233,l),
(176,455,l),
(205,455,l),
(451,727,l),
(651,727,l)
);
},
{
closed = 1;
nodes = (
(273,329,l),
(237,329,l),
(368,471,l),
(657,0,l),
(467,0,l)
);
}
);
width = 662;
},
{
anchors = (
{
name = bottom;
pos = (308,0);
},
{
name = top;
pos = (308,727);
}
);
associatedMasterId = master02;
layerId = "FDDB89A8-5B3B-43BA-9613-B65B64E745DB";
name = foreground;
shapes = (
{
closed = 1;
nodes = (
(198,0,l),
(40,0,l),
(40,727,l),
(198,727,l)
);
},
{
closed = 1;
nodes = (
(350,404,l),
(305,372,l),
(176,233,l),
(176,455,l),
(205,455,l),
(451,727,l),
(651,727,l)
);
},
{
closed = 1;
nodes = (
(273,329,l),
(237,329,l),
(371,474,l),
(657,0,l),
(467,0,l)
);
}
);
width = 662;
},
{
anchors = (
{
name = bottom;
pos = (369,0);
},
{
name = top;
pos = (369,727);
}
);
guides = (
{
angle = 220.1026;
pos = (449.893,174.247);
}
);
layerId = master03;
shapes = (
{
closed = 1;
nodes = (
(317,0,l),
(20,0,l),
(20,727,l),
(317,727,l)
);
},
{
closed = 1;
nodes = (
(507,352,l),
(410,325,l),
(281,146,l),
(277,552,l),
(323,552,l),
(434,727,l),
(774,727,l)
);
},
{
closed = 1;
nodes = (
(335,213,l),
(297,213,l),
(530,520,l),
(771,0,l),
(427,0,l)
);
}
);
width = 761;
},
{
anchors = (
{
name = bottom;
pos = (369,0);
},
{
name = top;
pos = (369,727);
}
);
associatedMasterId = master03;
guides = (
{
angle = 220.1026;
pos = (449.893,174.247);
}
);
layerId = "6558B3CE-60C3-464B-92E3-372C6A969328";
name = foreground;
shapes = (
{
closed = 1;
nodes = (
(317,0,l),
(20,0,l),
(20,727,l),
(317,727,l)
);
},
{
closed = 1;
nodes = (
(494,382,l),
(410,340,l),
(281,161,l),
(277,552,l),
(323,552,l),
(434,727,l),
(761,727,l)
);
},
{
closed = 1;
nodes = (
(335,223,l),
(278,223,l),
(530,500,l),
(771,0,l),
(427,0,l)
);
}
);
width = 761;
}
);
unicode = 75;
},
{
glyphname = L;
kernLeft = H;
kernRight = L;
lastChange = "2020-11-26 16:42:11 +0000";
layers = (
{
anchors = (
{
name = bottom;
pos = (298,0);
},
{
name = top;
pos = (86,727);
}
);
layerId = master01;
shapes = (
{
closed = 1;
nodes = (
(85,727,l),
(85,0,l),
(501,0,l),
(501,1,l),
(86,1,l),
(86,727,l)
);
}
);
width = 551;
},
{
anchors = (
{
name = bottom;
pos = (298,0);
},
{
name = top;
pos = (86,727);
}
);
associatedMasterId = master01;
layerId = "86217FFE-8DE0-4BC4-BECB-C67EDA41F04E";
name = foreground;
shapes = (
{
closed = 1;
nodes = (
(85,727,l),
(85,0,l),
(501,0,l),
(501,1,l),
(86,1,l),
(86,727,l)
);
}
);
width = 551;
},
{
associatedMasterId = master01;
layerId = "C242B46C-DF21-46DC-AE6A-F2FD3B36F46D";
name = "another one";
width = 291;
},
{
anchors = (
{
name = bottom;
pos = (264,0);
},
{
name = top;
pos = (116,727);
}
);
layerId = master02;
shapes = (
{
closed = 1;
nodes = (
(40,727,l),
(40,0,l),
(508,0,l),
(508,146,l),
(200,146,l),
(200,727,l)
);
}
);
width = 535;
},
{
anchors = (
{
name = bottom;
pos = (264,0);
},
{
name = top;
pos = (116,727);
}
);
associatedMasterId = master02;
layerId = "A8199BC7-B10B-4EB4-9A9E-9DDCA86B2925";
name = foreground;
shapes = (
{
closed = 1;
nodes = (
(40,727,l),
(40,0,l),
(508,0,l),
(508,146,l),
(200,146,l),
(200,727,l)
);
}
);
width = 535;
},
{
anchors = (
{
name = bottom;
pos = (265,0);
},
{
name = top;
pos = (168,727);
}
);
layerId = master03;
shapes = (
{
closed = 1;
nodes = (
(20,727,l),
(20,0,l),
(526,0,l),
(526,269,l),
(317,269,l),
(317,727,l)
);
}
);
width = 540;
},
{
anchors = (
{
name = bottom;
pos = (265,0);
},
{
name = top;
pos = (168,727);
}
);
associatedMasterId = master03;
layerId = "D423EBCB-0DA3-4E5D-8225-9C32B9D93A57";
name = foreground;
shapes = (
{
closed = 1;
nodes = (
(20,727,l),
(20,0,l),
(526,0,l),
(526,269,l),
(317,269,l),
(317,727,l)
);
}
);
width = 540;
}
);
unicode = 76;
},
{
color = (255,166,166,255);
glyphname = Lcaron;
kernLeft = H;
lastChange = "2020-11-26 16:42:11 +0000";
layers = (
{
layerId = master01;
shapes = (
{
closed = 1;
nodes = (
(376,727,l),
(374,727,l),
(322,469,l),
(323,469,l)
);
},
{
ref = L;
}
);
width = 551;
},
{
associatedMasterId = master01;
layerId = "ADCAFF06-19DE-457B-B078-08E80F8CB433";
name = foreground;
shapes = (
{
closed = 1;
nodes = (
(376,727,l),
(374,727,l),
(322,469,l),
(323,469,l)
);
},
{
ref = L;
}
);
width = 551;
},
{
layerId = master02;
shapes = (
{
closed = 1;
nodes = (
(491,727,l),
(335,747,l),
(298,486,l),
(405,486,l)
);
},
{
ref = L;
}
);
width = 536;
},
{
associatedMasterId = master02;
layerId = "0D9D0D7E-ED53-418D-BE1A-A3504ABF7E7B";
name = foreground;
shapes = (
{
closed = 1;
nodes = (
(491,727,l),
(335,747,l),
(298,486,l),
(405,486,l)
);
},
{
ref = L;
}
);
width = 536;
},
{
layerId = master03;
shapes = (
{
closed = 1;
nodes = (
(540,727,l),
(353,747,l),
(353,427,l),
(471,427,l)
);
},
{
ref = L;
}
);
width = 540;
},
{
associatedMasterId = master03;
layerId = "7CCC412C-FF0F-47D4-A09F-294D910D2D4E";
name = foreground;
shapes = (
{
closed = 1;
nodes = (
(540,727,l),
(353,747,l),
(353,427,l),
(471,427,l)
);
},
{
ref = L;
}
);
width = 540;
}
);
unicode = 317;
},
{
glyphname = M;
kernLeft = H;
kernRight = H;
lastChange = "2020-12-08 17:40:44 +0000";
layers = (
{
background = {
shapes = (
{
closed = 1;
nodes = (
(772,0,l),
(772,725,l),
(772,724,l),
(771,724,l),
(772,725,l),
(430,0,l),
(428,0,l),
(112,725,l),
(219,724,l),
(85,724,l),
(85,725,l),
(85,0,l),
(84,0,l),
(84,727,l),
(92,727,l),
(429,0,l),
(427,2,l),
(430,2,l),
(428,0,l),
(772,727,l),
(773,727,l),
(773,0,l)
);
}
);
};
layerId = master01;
shapes = (
{
closed = 1;
nodes = (
(85,727,l),
(86,727,l),
(429,1,l),
(428,1,l),
(430,1,l),
(429,1,l),
(773,727,l),
(774,727,l),
(774,0,l),
(773,0,l),
(773,726,l),
(773,724,l),
(772,724,l),
(773,726,l),
(430,0,l),
(428,0,l),
(86,726,l),
(87,724,l),
(86,724,l),
(86,726,l),
(86,0,l),
(85,0,l)
);
}
);
width = 859;
},
{
associatedMasterId = master01;
layerId = "EA8B8A44-0930-4FDA-B00F-FFFE7768A1F6";
name = foreground;
shapes = (
{
closed = 1;
nodes = (
(85,727,l),
(86,727,l),
(429,1,l),
(428,1,l),
(430,1,l),
(429,1,l),
(773,727,l),
(774,727,l),
(774,0,l),
(773,0,l),
(773,726,l),
(773,724,l),
(772,724,l),
(773,726,l),
(430,0,l),
(428,0,l),
(86,726,l),
(87,724,l),
(86,724,l),
(86,726,l),
(86,0,l),
(85,0,l)
);
}
);
width = 859;
},
{
associatedMasterId = master01;
layerId = "E3E2010C-1767-4DFF-9F45-EFF7F96A6D9A";
name = "another one";
width = 291;
},
{
background = {
shapes = (
{
closed = 1;
nodes = (
(40,727,l),
(169,727,l),
(445,168,l),
(347,238,l),
(474,238,l),
(379,168,l),
(647,727,l),
(775,727,l),
(775,0,l),
(624,0,l),
(624,546,l),
(732,337,l),
(584,337,l),
(692,490,l),
(461,0,l),
(355,0,l),
(125,490,l),
(231,337,l),
(84,337,l),
(193,546,l),
(193,0,l),
(40,0,l)
);
}
);
};
layerId = master02;
shapes = (
{
closed = 1;
nodes = (
(40,727,l),
(208,727,l),
(444,162,l),
(366,213,l),
(493,213,l),
(408,162,l),
(637,727,l),
(805,727,l),
(805,0,l),
(654,0,l),
(654,555,l),
(762,374,l),
(614,374,l),
(702,499,l),
(491,0,l),
(355,0,l),
(145,499,l),
(231,374,l),
(84,374,l),
(193,555,l),
(193,0,l),
(40,0,l)
);
}
);
width = 845;
},
{
associatedMasterId = master02;
layerId = "75116693-8262-4725-8AFD-0B7BA4BA01B9";
name = foreground;
shapes = (
{
closed = 1;
nodes = (
(40,727,l),
(169,727,l),
(445,168,l),
(347,238,l),
(474,238,l),
(379,168,l),
(647,727,l),
(775,727,l),
(775,0,l),
(624,0,l),
(624,546,l),
(732,337,l),
(584,337,l),
(692,490,l),
(461,0,l),
(355,0,l),
(125,490,l),
(231,337,l),
(84,337,l),
(193,546,l),
(193,0,l),
(40,0,l)
);
}
);
width = 815;
},
{
layerId = master03;
shapes = (
{
closed = 1;
nodes = (
(20,727,l),
(340,727,l),
(512,372,l),
(358,509,l),
(535,509,l),
(386,372,l),
(557,727,l),
(874,727,l),
(874,0,l),
(595,0,l),
(595,459,l),
(752,209,l),
(514,209,l),
(675,390,l),
(489,0,l),
(406,0,l),
(220,390,l),
(379,209,l),
(143,209,l),
(300,459,l),
(300,0,l),
(20,0,l)
);
}
);
width = 894;
},
{
associatedMasterId = master03;
layerId = "58FED878-BBC6-4D2F-AF73-58565D915EDC";
name = foreground;
shapes = (
{
closed = 1;
nodes = (
(20,727,l),
(301,727,l),
(491,422,l),
(348,520,l),
(512,520,l),
(374,422,l),
(562,727,l),
(840,727,l),
(840,0,l),
(561,0,l),
(561,459,l),
(735,197,l),
(497,197,l),
(658,370,l),
(433,0,l),
(429,0,l),
(203,370,l),
(362,197,l),
(126,197,l),
(300,459,l),
(300,0,l),
(20,0,l)
);
}
);
width = 860;
}
);
unicode = 77;
},
{
glyphname = N;
kernLeft = H;
kernRight = H;
lastChange = "2020-11-29 18:34:24 +0000";
layers = (
{
anchors = (
{
name = bottom;
pos = (356,0);
},
{
name = top;
pos = (356,727);
}
);
background = {
shapes = (
{
closed = 1;
nodes = (
(-61,727,l),
(-61,1,l),
(-61,3,l),
(-60,3,l),
(-61,1,l),
(282,727,l),
(284,727,l),
(627,1,l),
(625,3,l),
(627,3,l),
(626,1,l),
(626,727,l),
(627,727,l),
(627,0,l),
(626,0,l),
(282,726,l),
(284,725,l),
(281,725,l),
(283,726,l),
(-61,0,l),
(-62,0,l),
(-62,727,l)
);
}
);
};
guides = (
{
angle = 90;
pos = (1329.031,407.521);
}
);
layerId = master01;
shapes = (
{
closed = 1;
nodes = (
(85,727,l),
(86,727,l),
(627,1,l),
(626,3,l),
(627,3,l),
(627,1,l),
(627,727,l),
(628,727,l),
(628,0,l),
(627,0,l),
(86,726,l),
(87,725,l),
(86,725,l),
(86,726,l),
(86,0,l),
(85,0,l)
);
}
);
width = 713;
},
{
anchors = (
{
name = bottom;
pos = (356,0);
},
{
name = top;
pos = (356,727);
}
);
associatedMasterId = master01;
guides = (
{
angle = 90;
pos = (1329.031,407.521);
}
);
layerId = "10C0FCE4-E218-426D-A65C-D9A5AB8391B3";
name = foreground;
shapes = (
{
closed = 1;
nodes = (
(85,727,l),
(86,727,l),
(627,1,l),
(626,3,l),
(627,3,l),
(627,1,l),
(627,727,l),
(628,727,l),
(628,0,l),
(627,0,l),
(86,726,l),
(87,725,l),
(86,725,l),
(86,726,l),
(86,0,l),
(85,0,l)
);
}
);
width = 713;
},
{
associatedMasterId = master01;
layerId = "6DA5A7BF-D1C2-4653-BB93-913A5AD39FAB";
name = "another one";
width = 291;
},
{
anchors = (
{
name = bottom;
pos = (348,-1);
},
{
name = top;
pos = (346,727);
}
);
background = {
shapes = (
{
closed = 1;
nodes = (
(40,727,l),
(154,727,l),
(501,291,l),
(481,301,l),
(519,301,l),
(499,291,l),
(499,727,l),
(656,727,l),
(656,0,l),
(542,0,l),
(196,435,l),
(216,425,l),
(178,425,l),
(198,435,l),
(198,0,l),
(40,0,l)
);
}
);
};
layerId = master02;
shapes = (
{
closed = 1;
nodes = (
(40,727,l),
(194,727,l),
(501,271,l),
(481,281,l),
(519,281,l),
(499,271,l),
(499,727,l),
(656,727,l),
(656,0,l),
(502,0,l),
(196,455,l),
(216,445,l),
(178,445,l),
(198,455,l),
(198,0,l),
(40,0,l)
);
}
);
width = 696;
},
{
anchors = (
{
name = bottom;
pos = (348,-1);
},
{
name = top;
pos = (346,727);
}
);
associatedMasterId = master02;
layerId = "6D038579-FDDA-4961-A09A-6B958323C3BD";
name = foreground;
shapes = (
{
closed = 1;
nodes = (
(40,727,l),
(154,727,l),
(501,291,l),
(481,301,l),
(519,301,l),
(499,291,l),
(499,727,l),
(656,727,l),
(656,0,l),
(542,0,l),
(196,435,l),
(216,425,l),
(178,425,l),
(198,435,l),
(198,0,l),
(40,0,l)
);
}
);
width = 696;
},
{
anchors = (
{
name = bottom;
pos = (363,0);
},
{
name = top;
pos = (363,727);
}
);
guides = (
{
angle = 270;
pos = (163.962,50.276);
}
);
layerId = master03;
shapes = (
{
closed = 1;
nodes = (
(20,727,l),
(254,727,l),
(439,475,l),
(383,514,l),
(458,514,l),
(414,475,l),
(414,727,l),
(703,727,l),
(703,0,l),
(470,0,l),
(285,251,l),
(340,212,l),
(266,212,l),
(309,251,l),
(309,0,l),
(20,0,l)
);
}
);
width = 723;
},
{
anchors = (
{
name = bottom;
pos = (363,0);
},
{
name = top;
pos = (363,727);
}
);
associatedMasterId = master03;
guides = (
{
angle = 270;
pos = (163.962,50.276);
}
);
layerId = "A1AA3354-E721-46B3-A197-370CB2F0BAE9";
name = foreground;
shapes = (
{
closed = 1;
nodes = (
(20,727,l),
(254,727,l),
(439,475,l),
(383,514,l),
(458,514,l),
(414,475,l),
(414,727,l),
(703,727,l),
(703,0,l),
(470,0,l),
(285,251,l),
(340,212,l),
(266,212,l),
(309,251,l),
(309,0,l),
(20,0,l)
);
}
);
width = 723;
}
);
unicode = 78;
},
{
glyphname = O;
kernLeft = O;
kernRight = O;
lastChange = "2020-11-29 19:04:00 +0000";
layers = (
{
anchors = (
{
name = bottom;
pos = (421,-15);
},
{
name = top;
pos = (421,727);
}
);
layerId = master01;
shapes = (
{
closed = 1;
nodes = (
(206,-15,o),
(63,137,o),
(63,364,cs),
(63,591,o),
(206,742,o),
(421,742,cs),
(636,742,o),
(779,591,o),
(779,364,cs),
(779,137,o),
(636,-15,o),
(421,-15,cs)
);
},
{
closed = 1;
nodes = (
(635,-14,o),
(778,137,o),
(778,364,cs),
(778,590,o),
(636,741,o),
(421,741,cs),
(207,741,o),
(64,590,o),
(64,364,cs),
(64,137,o),
(206,-14,o),
(421,-14,cs)
);
}
);
width = 842;
},
{
anchors = (
{
name = bottom;
pos = (421,-15);
},
{
name = top;
pos = (421,727);
}
);
associatedMasterId = master01;
layerId = "91AA22C4-9247-4E9E-9F08-8EDADA92421E";
name = foreground;
shapes = (
{
closed = 1;
nodes = (
(206,-15,o),
(63,137,o),
(63,364,cs),
(63,591,o),
(206,742,o),
(421,742,cs),
(636,742,o),
(779,591,o),
(779,364,cs),
(779,137,o),
(636,-15,o),
(421,-15,cs)
);
},
{
closed = 1;
nodes = (
(635,-14,o),
(778,137,o),
(778,364,cs),
(778,590,o),
(636,741,o),
(421,741,cs),
(207,741,o),
(64,590,o),
(64,364,cs),
(64,137,o),
(206,-14,o),
(421,-14,cs)
);
}
);
width = 842;
},
{
associatedMasterId = master01;
layerId = "C8C43FD4-BE99-41FF-8FDB-1C9F70A2B3DD";
name = "another one";
width = 291;
},
{
anchors = (
{
name = bottom;
pos = (408,-15);
},
{
name = top;
pos = (406,727);
}
);
layerId = master02;
shapes = (
{
closed = 1;
nodes = (
(186,-15,o),
(27,142,o),
(27,363,cs),
(27,584,o),
(187,742,o),
(406,742,cs),
(626,742,o),
(788,583,o),
(788,363,cs),
(788,142,o),
(626,-15,o),
(406,-15,cs)
);
},
{
closed = 1;
nodes = (
(534,135,o),
(625,228,o),
(625,363,cs),
(625,497,o),
(533,592,o),
(406,592,cs),
(280,592,o),
(191,498,o),
(191,363,cs),
(191,227,o),
(279,135,o),
(406,135,cs)
);
}
);
width = 815;
},
{
anchors = (
{
name = bottom;
pos = (408,-15);
},
{
name = top;
pos = (406,727);
}
);
associatedMasterId = master02;
layerId = "A8B150FF-1285-46F8-9273-A2D7F73DECE5";
name = foreground;
shapes = (
{
closed = 1;
nodes = (
(186,-15,o),
(27,142,o),
(27,363,cs),
(27,584,o),
(187,742,o),
(406,742,cs),
(626,742,o),
(788,583,o),
(788,363,cs),
(788,142,o),
(626,-15,o),
(406,-15,cs)
);
},
{
closed = 1;
nodes = (
(534,135,o),
(625,228,o),
(625,363,cs),
(625,497,o),
(533,592,o),
(406,592,cs),
(280,592,o),
(191,498,o),
(191,363,cs),
(191,227,o),
(279,135,o),
(406,135,cs)
);
}
);
width = 815;
},
{
anchors = (
{
name = bottom;
pos = (409,-20);
},
{
name = top;
pos = (406,727);
}
);
layerId = master03;
shapes = (
{
closed = 1;
nodes = (
(188,-20,o),
(10,125,o),
(10,363,cs),
(10,601,o),
(188,747,o),
(406,747,cs),
(624,747,o),
(807,601,o),
(807,363,cs),
(807,125,o),
(625,-20,o),
(406,-20,cs)
);
},
{
closed = 1;
nodes = (
(460,263,o),
(496,304,o),
(496,363,cs),
(496,422,o),
(460,465,o),
(407,465,cs),
(353,465,o),
(320,422,o),
(320,363,cs),
(320,304,o),
(353,263,o),
(407,263,cs)
);
}
);
width = 817;
},
{
anchors = (
{
name = bottom;
pos = (409,-20);
},
{
name = top;
pos = (406,727);
}
);
associatedMasterId = master03;
layerId = "6975B6F4-4398-4559-92B0-A6DF0EE8411D";
name = foreground;
shapes = (
{
closed = 1;
nodes = (
(188,-20,o),
(10,125,o),
(10,363,cs),
(10,601,o),
(188,747,o),
(406,747,cs),
(624,747,o),
(807,601,o),
(807,363,cs),
(807,125,o),
(625,-20,o),
(406,-20,cs)
);
},
{
closed = 1;
nodes = (
(460,263,o),
(496,304,o),
(496,363,cs),
(496,422,o),
(460,465,o),
(407,465,cs),
(353,465,o),
(320,422,o),
(320,363,cs),
(320,304,o),
(353,263,o),
(407,263,cs)
);
}
);
width = 817;
},
{
associatedMasterId = master03;
layerId = "FAA8950C-39DB-4F12-9941-5971F7A7DB23";
name = bg;
shapes = (
{
closed = 1;
nodes = (
(186,-15,o),
(12,132,o),
(12,363,cs),
(12,593,o),
(187,742,o),
(402,742,cs),
(617,742,o),
(796,593,o),
(796,363,cs),
(796,132,o),
(617,-15,o),
(402,-15,cs)
);
},
{
closed = 1;
nodes = (
(459,272,o),
(495,308,o),
(495,363,cs),
(495,418,o),
(458,455,o),
(402,455,cs),
(346,455,o),
(312,418,o),
(312,363,cs),
(312,308,o),
(346,272,o),
(402,272,cs)
);
}
);
width = 808;
}
);
unicode = 79;
},
{
glyphname = Ohorn;
kernLeft = O;
kernRight = Ohorn;
lastChange = "2020-11-26 16:42:11 +0000";
layers = (
{
anchors = (
{
name = top;
pos = (421,727);
}
);
background = {
shapes = (
{
closed = 1;
nodes = (
(686,846,l),
(686,828,ls),
(686,748,o),
(646,726,o),
(534,726,c),
(534,726,l),
(501,735,o),
(465,741,o),
(421,741,c),
(421,742,l),
(465,742,o),
(501,736,o),
(531,727,c),
(646,727,o),
(685,749,o),
(685,828,cs),
(685,846,l)
);
},
{
closed = 1;
nodes = (
(204,-15,o),
(63,139,o),
(63,364,cs),
(63,589,o),
(204,742,o),
(421,742,cs),
(638,742,o),
(779,589,o),
(779,364,cs),
(779,139,o),
(638,-15,o),
(421,-15,cs)
);
},
{
closed = 1;
nodes = (
(637,-14,o),
(778,139,o),
(778,364,cs),
(778,588,o),
(637,741,o),
(421,741,cs),
(205,741,o),
(64,588,o),
(64,364,cs),
(64,139,o),
(205,-14,o),
(421,-14,cs)
);
}
);
};
layerId = master01;
shapes = (
{
closed = 1;
nodes = (
(638,-15,o),
(779,139,o),
(779,364,cs),
(779,546,o),
(686,682,o),
(534,726,c),
(534,726,l),
(646,726,o),
(686,748,o),
(686,828,cs),
(686,846,l),
(685,846,l),
(685,828,ls),
(685,749,o),
(646,727,o),
(530,727,c),
(508,734,o),
(467,742,o),
(421,742,cs),
(204,742,o),
(63,589,o),
(63,364,cs),
(63,139,o),
(204,-15,o),
(421,-15,cs)
);
},
{
closed = 1;
nodes = (
(205,-14,o),
(64,139,o),
(64,364,cs),
(64,588,o),
(205,741,o),
(421,741,cs),
(637,741,o),
(778,588,o),
(778,364,cs),
(778,139,o),
(637,-14,o),
(421,-14,cs)
);
}
);
width = 842;
},
{
anchors = (
{
name = top;
pos = (421,727);
}
);
associatedMasterId = master01;
layerId = "CC154029-92D4-4E16-88F4-18D14A8E6F1D";
name = foreground;
shapes = (
{
closed = 1;
nodes = (
(638,-15,o),
(779,139,o),
(779,364,cs),
(779,546,o),
(686,682,o),
(534,726,c),
(534,726,l),
(646,726,o),
(686,748,o),
(686,828,cs),
(686,846,l),
(685,846,l),
(685,828,ls),
(685,749,o),
(646,727,o),
(530,727,c),
(508,734,o),
(467,742,o),
(421,742,cs),
(204,742,o),
(63,589,o),
(63,364,cs),
(63,139,o),
(204,-15,o),
(421,-15,cs)
);
},
{
closed = 1;
nodes = (
(205,-14,o),
(64,139,o),
(64,364,cs),
(64,588,o),
(205,741,o),
(421,741,cs),
(637,741,o),
(778,588,o),
(778,364,cs),
(778,139,o),
(637,-14,o),
(421,-14,cs)
);
}
);
width = 842;
},
{
anchors = (
{
name = top;
pos = (406,727);
}
);
layerId = master02;
shapes = (
{
closed = 1;
nodes = (
(627,-15,o),
(788,139,o),
(788,363,cs),
(788,489,o),
(737,593,o),
(653,660,c),
(653,665,l),
(703,668,o),
(731,697,o),
(731,752,cs),
(731,823,l),
(589,823,l),
(589,763,ls),
(589,739,o),
(576,728,o),
(555,728,c),
(517,728,o),
(488,742,o),
(406,742,cs),
(185,742,o),
(27,586,o),
(27,363,cs),
(27,139,o),
(185,-15,o),
(406,-15,cs)
);
},
{
closed = 1;
nodes = (
(275,136,o),
(193,224,o),
(193,363,cs),
(193,502,o),
(275,591,o),
(406,591,cs),
(537,591,o),
(622,502,o),
(622,363,cs),
(622,224,o),
(537,136,o),
(406,136,cs)
);
}
);
width = 814;
},
{
anchors = (
{
name = top;
pos = (406,727);
}
);
associatedMasterId = master02;
layerId = "8DDBFAFE-6908-4FC4-A406-C57DB516B8D2";
name = foreground;
shapes = (
{
closed = 1;
nodes = (
(627,-15,o),
(788,139,o),
(788,363,cs),
(788,489,o),
(737,593,o),
(653,660,c),
(653,665,l),
(703,668,o),
(731,697,o),
(731,752,cs),
(731,823,l),
(589,823,l),
(589,763,ls),
(589,739,o),
(576,728,o),
(555,728,c),
(517,728,o),
(488,742,o),
(406,742,cs),
(185,742,o),
(27,586,o),
(27,363,cs),
(27,139,o),
(185,-15,o),
(406,-15,cs)
);
},
{
closed = 1;
nodes = (
(275,136,o),
(193,224,o),
(193,363,cs),
(193,502,o),
(275,591,o),
(406,591,cs),
(537,591,o),
(622,502,o),
(622,363,cs),
(622,224,o),
(537,136,o),
(406,136,cs)
);
}
);
width = 814;
},
{
anchors = (
{
name = top;
pos = (406,727);
}
);
layerId = master03;
shapes = (
{
closed = 1;
nodes = (
(625,-20,o),
(807,125,o),
(807,363,cs),
(807,487,o),
(757,586,o),
(679,653,c),
(679,656,l),
(734,667,o),
(755,709,o),
(755,758,cs),
(755,803,l),
(551,803,l),
(551,755,ls),
(551,742,o),
(544,735,o),
(533,735,cs),
(513,735,o),
(464,747,o),
(406,747,cs),
(188,747,o),
(10,601,o),
(10,363,cs),
(10,125,o),
(188,-20,o),
(406,-20,cs)
);
},
{
closed = 1;
nodes = (
(350,271,o),
(315,307,o),
(315,363,cs),
(315,419,o),
(350,456,o),
(407,456,cs),
(463,456,o),
(501,419,o),
(501,363,cs),
(501,307,o),
(464,271,o),
(407,271,cs)
);
}
);
width = 814;
},
{
anchors = (
{
name = top;
pos = (406,727);
}
);
associatedMasterId = master03;
layerId = "8DA46777-817A-43F9-A6D4-31D59077DC2A";
name = foreground;
shapes = (
{
closed = 1;
nodes = (
(625,-20,o),
(807,125,o),
(807,363,cs),
(807,487,o),
(757,586,o),
(679,653,c),
(679,656,l),
(734,667,o),
(755,709,o),
(755,758,cs),
(755,803,l),
(551,803,l),
(551,755,ls),
(551,742,o),
(544,735,o),
(533,735,cs),
(513,735,o),
(464,747,o),
(406,747,cs),
(188,747,o),
(10,601,o),
(10,363,cs),
(10,125,o),
(188,-20,o),
(406,-20,cs)
);
},
{
closed = 1;
nodes = (
(350,271,o),
(315,307,o),
(315,363,cs),
(315,419,o),
(350,456,o),
(407,456,cs),
(463,456,o),
(501,419,o),
(501,363,cs),
(501,307,o),
(464,271,o),
(407,271,cs)
);
}
);
width = 814;
},
{
associatedMasterId = master03;
layerId = "5A0C53A5-59B8-4A54-9A44-9A5EA9F8014C";
name = bg;
shapes = (
{
closed = 1;
nodes = (
(755,803,l),
(755,758,ls),
(755,709,o),
(734,667,o),
(679,656,c),
(679,624,l),
(589,645,o),
(497,656,o),
(406,656,c),
(406,747,l),
(471,747,o),
(513,735,o),
(533,735,cs),
(544,735,o),
(551,742,o),
(551,755,cs),
(551,803,l)
);
},
{
closed = 1;
nodes = (
(188,-20,o),
(10,125,o),
(10,363,cs),
(10,601,o),
(188,747,o),
(406,747,cs),
(624,747,o),
(807,601,o),
(807,363,cs),
(807,125,o),
(625,-20,o),
(406,-20,cs)
);
},
{
closed = 1;
nodes = (
(464,271,o),
(501,307,o),
(501,363,cs),
(501,419,o),
(463,456,o),
(407,456,cs),
(350,456,o),
(315,419,o),
(315,363,cs),
(315,307,o),
(350,271,o),
(407,271,cs)
);
}
);
width = 814;
}
);
unicode = 416;
},
{
glyphname = P;
kernLeft = H;
lastChange = "2020-11-26 16:42:11 +0000";
layers = (
{
layerId = master01;
shapes = (
{
closed = 1;
nodes = (
(85,0,l),
(86,0,l),
(86,726,l),
(298,726,ls),
(432,726,o),
(523,641,o),
(523,517,cs),
(523,387,o),
(438,308,o),
(299,308,cs),
(86,308,l),
(86,307,l),
(299,307,ls),
(439,307,o),
(524,387,o),
(524,517,cs),
(524,642,o),
(432,727,o),
(298,727,cs),
(85,727,l)
);
}
);
width = 586;
},
{
associatedMasterId = master01;
layerId = "C455296A-3C31-4548-B222-229714A30C32";
name = foreground;
shapes = (
{
closed = 1;
nodes = (
(85,0,l),
(86,0,l),
(86,726,l),
(298,726,ls),
(432,726,o),
(523,641,o),
(523,517,cs),
(523,387,o),
(438,308,o),
(299,308,cs),
(86,308,l),
(86,307,l),
(299,307,ls),
(439,307,o),
(524,387,o),
(524,517,cs),
(524,642,o),
(432,727,o),
(298,727,cs),
(85,727,l)
);
}
);
width = 586;
},
{
associatedMasterId = master01;
layerId = "E580ECF6-6C06-4D62-B3F3-F936F929A17A";
name = "another one";
width = 291;
},
{
layerId = master02;
shapes = (
{
closed = 1;
nodes = (
(40,0,l),
(199,0,l),
(199,591,l),
(309,591,ls),
(383,591,o),
(417,549,o),
(417,488,cs),
(417,428,o),
(382,388,o),
(309,388,cs),
(151,388,l),
(151,252,l),
(314,252,ls),
(478,252,o),
(574,344,o),
(574,490,cs),
(574,637,o),
(478,727,o),
(313,727,cs),
(40,727,l)
);
}
);
width = 593;
},
{
associatedMasterId = master02;
layerId = "B23A08BA-C8FD-467E-83DE-7E1E4C5D538A";
name = foreground;
shapes = (
{
closed = 1;
nodes = (
(40,0,l),
(199,0,l),
(199,591,l),
(309,591,ls),
(383,591,o),
(417,549,o),
(417,488,cs),
(417,428,o),
(382,388,o),
(309,388,cs),
(151,388,l),
(151,252,l),
(314,252,ls),
(478,252,o),
(574,344,o),
(574,490,cs),
(574,637,o),
(478,727,o),
(313,727,cs),
(40,727,l)
);
}
);
width = 593;
},
{
layerId = master03;
shapes = (
{
closed = 1;
nodes = (
(20,0,l),
(317,0,l),
(317,489,l),
(359,489,ls),
(403,489,o),
(418,471,o),
(418,436,cs),
(418,402,o),
(403,380,o),
(358,380,cs),
(241,380,l),
(241,180,l),
(400,180,ls),
(585,180,o),
(696,285,o),
(696,453,cs),
(696,632,o),
(585,727,o),
(399,727,cs),
(20,727,l)
);
}
);
width = 709;
},
{
associatedMasterId = master03;
layerId = "55839869-34B5-4675-B39E-6458A2AE70E5";
name = foreground;
shapes = (
{
closed = 1;
nodes = (
(20,0,l),
(317,0,l),
(317,489,l),
(359,489,ls),
(403,489,o),
(418,471,o),
(418,436,cs),
(418,402,o),
(403,380,o),
(358,380,cs),
(241,380,l),
(241,180,l),
(400,180,ls),
(585,180,o),
(696,285,o),
(696,453,cs),
(696,632,o),
(585,727,o),
(399,727,cs),
(20,727,l)
);
}
);
width = 709;
},
{
associatedMasterId = master03;
layerId = "16B79695-14BA-49D4-9435-55051B7CA6D1";
name = bg;
shapes = (
{
closed = 1;
nodes = (
(257,514,l),
(257,425,l),
(306,425,ls),
(339,425,o),
(353,442,o),
(353,471,cs),
(353,499,o),
(340,514,o),
(304,514,cs)
);
}
);
width = 581;
}
);
unicode = 80;
},
{
glyphname = Q;
kernLeft = O;
kernRight = Q;
lastChange = "2020-12-08 18:18:23 +0000";
layers = (
{
guides = (
{
angle = 128.047;
pos = (1253,-31);
}
);
layerId = master01;
shapes = (
{
closed = 1;
nodes = (
(604,34,l),
(605,34,l),
(641,-13,ls),
(664,-42,o),
(687,-54,o),
(729,-54,cs),
(798,-54,l),
(798,-55,l),
(729,-55,l),
(686,-55,o),
(663,-42,o),
(640,-13,cs),
(604,33,l),
(603,34,l),
(499,167,l),
(500,168,l)
);
},
{
pos = (-5,0);
ref = O;
}
);
width = 834;
},
{
associatedMasterId = master01;
guides = (
{
angle = 128.047;
pos = (1253,-31);
}
);
layerId = "4375237A-4929-48FC-9330-FD7D7829E47E";
name = foreground;
shapes = (
{
closed = 1;
nodes = (
(604,34,l),
(605,34,l),
(641,-13,ls),
(664,-42,o),
(687,-54,o),
(729,-54,cs),
(798,-54,l),
(798,-55,l),
(729,-55,l),
(686,-55,o),
(663,-42,o),
(640,-13,cs),
(604,33,l),
(603,34,l),
(499,167,l),
(500,168,l)
);
},
{
pos = (-5,0);
ref = O;
}
);
width = 834;
},
{
layerId = master02;
shapes = (
{
closed = 1;
nodes = (
(619,180,l),
(673,130,l),
(696,100,ls),
(708,85,o),
(719,80,o),
(736,80,cs),
(756,80,o),
(770,82,o),
(784,85,c),
(784,-55,l),
(762,-59,o),
(739,-62,o),
(717,-62,cs),
(648,-62,o),
(617,-43,o),
(576,13,cs),
(557,39,l),
(510,105,l),
(417,214,l),
(525,302,l)
);
},
{
ref = O;
}
);
width = 815;
},
{
associatedMasterId = master02;
layerId = "1657D169-0325-4F42-8DDA-087916D415EA";
name = foreground;
shapes = (
{
closed = 1;
nodes = (
(615,176,l),
(673,130,l),
(700,96,ls),
(712,82,o),
(717,81,o),
(735,81,cs),
(784,81,l),
(784,-59,l),
(717,-59,l),
(648,-59,o),
(619,-45,o),
(578,10,cs),
(557,39,l),
(515,110,l),
(422,219,l),
(521,298,l)
);
},
{
ref = O;
}
);
width = 815;
},
{
guides = (
{
angle = 270;
},
{
angle = 270;
pos = (97,0);
},
{
angle = 270;
pos = (194,0);
},
{
angle = 270;
pos = (291,0);
},
{
angle = 270;
pos = (388,0);
},
{
angle = 270;
pos = (485,0);
},
{
angle = 270;
pos = (582,0);
},
{
angle = 270;
pos = (679,0);
},
{
angle = 270;
pos = (776,0);
},
{
angle = 270;
pos = (873,0);
},
{
angle = 270;
pos = (970,0);
},
{
angle = 270;
pos = (1067,0);
},
{
angle = 270;
pos = (1164,0);
},
{
angle = 270;
pos = (1261,0);
},
{
angle = 270;
pos = (1358,0);
},
{
angle = 270;
pos = (1455,0);
},
{
angle = 270;
pos = (1552,0);
},
{
angle = 270;
pos = (1649,0);
},
{
},
{
pos = (0,97);
},
{
pos = (0,194);
},
{
pos = (0,291);
},
{
pos = (0,388);
},
{
pos = (0,485);
},
{
pos = (0,582);
},
{
pos = (0,679);
},
{
pos = (0,776);
},
{
pos = (0,873);
},
{
pos = (0,970);
},
{
pos = (0,1067);
},
{
pos = (0,1164);
},
{
pos = (0,1261);
},
{
pos = (0,1358);
},
{
pos = (0,1455);
},
{
pos = (0,1552);
},
{
pos = (0,1649);
},
{
pos = (0,1746);
},
{
},
{
pos = (0,-97);
},
{
pos = (0,-194);
},
{
pos = (0,-291);
}
);
layerId = master03;
shapes = (
{
closed = 1;
nodes = (
(607,189,l),
(735,180,l),
(756,155,ls),
(761,149,o),
(769,146,o),
(779,146,cs),
(790,146,o),
(799,147,o),
(808,149,c),
(808,-58,l),
(778,-64,o),
(755,-67,o),
(720,-67,cs),
(645,-67,o),
(592,-47,o),
(545,13,cs),
(523,41,l),
(528,137,l),
(460,212,l),
(529,277,l)
);
},
{
ref = O;
}
);
userData = {
com.typemytype.robofont.guideline.magnetic.0R785WQBT1 = 0;
com.typemytype.robofont.guideline.magnetic.4qjb1RjZdc = 0;
com.typemytype.robofont.guideline.magnetic.5lRcJMV0Ss = 0;
com.typemytype.robofont.guideline.magnetic.90upnm8zVu = 0;
com.typemytype.robofont.guideline.magnetic.9Uvrkh39mI = 0;
com.typemytype.robofont.guideline.magnetic.BjJbRKxxyI = 0;
com.typemytype.robofont.guideline.magnetic.DQl0svvD69 = 0;
com.typemytype.robofont.guideline.magnetic.FH1qkLXHqy = 0;
com.typemytype.robofont.guideline.magnetic.ILg8rALh8c = 0;
com.typemytype.robofont.guideline.magnetic.ITtpFf0pbV = 0;
com.typemytype.robofont.guideline.magnetic.IeGOlyAIOT = 0;
com.typemytype.robofont.guideline.magnetic.Iw6PPKjjmS = 0;
com.typemytype.robofont.guideline.magnetic.MrjEkU3nwr = 0;
com.typemytype.robofont.guideline.magnetic.QO8N7YUbCu = 0;
com.typemytype.robofont.guideline.magnetic.RZSFOvuVMD = 0;
com.typemytype.robofont.guideline.magnetic.WpMWM8tt1w = 0;
com.typemytype.robofont.guideline.magnetic.XkDZlJlZww = 0;
com.typemytype.robofont.guideline.magnetic.ZyZRcPvfHC = 0;
com.typemytype.robofont.guideline.magnetic.bWTwrjbNQZ = 0;
com.typemytype.robofont.guideline.magnetic.cFLhaNexl9 = 0;
com.typemytype.robofont.guideline.magnetic.dKqF4jnHzo = 0;
com.typemytype.robofont.guideline.magnetic.dcrdzV1Jud = 0;
com.typemytype.robofont.guideline.magnetic.e3UMFGOuYb = 0;
com.typemytype.robofont.guideline.magnetic.e7HUM99Q8t = 0;
com.typemytype.robofont.guideline.magnetic.f4HoffKQeH = 0;
com.typemytype.robofont.guideline.magnetic.h4r7Wv4sTN = 0;
com.typemytype.robofont.guideline.magnetic.hJK5usKSyC = 0;
com.typemytype.robofont.guideline.magnetic.hLRQSG88gg = 0;
com.typemytype.robofont.guideline.magnetic.iuy0r9q2Mk = 0;
com.typemytype.robofont.guideline.magnetic.j6zFEoURd0 = 0;
com.typemytype.robofont.guideline.magnetic.jtINgDwiEV = 0;
com.typemytype.robofont.guideline.magnetic.mIZJPbcxEY = 0;
com.typemytype.robofont.guideline.magnetic.noePx9HqO4 = 0;
com.typemytype.robofont.guideline.magnetic.oEElcJ294x = 0;
com.typemytype.robofont.guideline.magnetic.oivZksCDYo = 0;
com.typemytype.robofont.guideline.magnetic.ps3DMjwZKF = 0;
com.typemytype.robofont.guideline.magnetic.qLfc7n7PQE = 0;
com.typemytype.robofont.guideline.magnetic.vVSJeBsiQy = 0;
com.typemytype.robofont.guideline.magnetic.wgogrA1FyK = 0;
com.typemytype.robofont.guideline.magnetic.xie2KuX4UK = 0;
com.typemytype.robofont.guideline.magnetic.zajB6hPiBX = 0;
};
width = 817;
},
{
associatedMasterId = master03;
guides = (
{
angle = 270;
},
{
angle = 270;
pos = (97,0);
},
{
angle = 270;
pos = (194,0);
},
{
angle = 270;
pos = (291,0);
},
{
angle = 270;
pos = (388,0);
},
{
angle = 270;
pos = (485,0);
},
{
angle = 270;
pos = (582,0);
},
{
angle = 270;
pos = (679,0);
},
{
angle = 270;
pos = (776,0);
},
{
angle = 270;
pos = (873,0);
},
{
angle = 270;
pos = (970,0);
},
{
angle = 270;
pos = (1067,0);
},
{
angle = 270;
pos = (1164,0);
},
{
angle = 270;
pos = (1261,0);
},
{
angle = 270;
pos = (1358,0);
},
{
angle = 270;
pos = (1455,0);
},
{
angle = 270;
pos = (1552,0);
},
{
angle = 270;
pos = (1649,0);
},
{
},
{
pos = (0,97);
},
{
pos = (0,194);
},
{
pos = (0,291);
},
{
pos = (0,388);
},
{
pos = (0,485);
},
{
pos = (0,582);
},
{
pos = (0,679);
},
{
pos = (0,776);
},
{
pos = (0,873);
},
{
pos = (0,970);
},
{
pos = (0,1067);
},
{
pos = (0,1164);
},
{
pos = (0,1261);
},
{
pos = (0,1358);
},
{
pos = (0,1455);
},
{
pos = (0,1552);
},
{
pos = (0,1649);
},
{
pos = (0,1746);
},
{
},
{
pos = (0,-97);
},
{
pos = (0,-194);
},
{
pos = (0,-291);
}
);
layerId = "91F88B3E-ADDF-44FB-9EF5-65BC0E1D24D3";
name = foreground;
shapes = (
{
closed = 1;
nodes = (
(607,189,l),
(723,178,l),
(746,151,ls),
(749,147,o),
(753,144,o),
(760,144,cs),
(798,144,l),
(798,-89,l),
(699,-89,ls),
(627,-89,o),
(603,-82,o),
(545,-11,cs),
(523,17,l),
(528,137,l),
(460,212,l),
(529,277,l)
);
},
{
ref = O;
}
);
userData = {
com.typemytype.robofont.guideline.magnetic.0R785WQBT1 = 0;
com.typemytype.robofont.guideline.magnetic.4qjb1RjZdc = 0;
com.typemytype.robofont.guideline.magnetic.5lRcJMV0Ss = 0;
com.typemytype.robofont.guideline.magnetic.90upnm8zVu = 0;
com.typemytype.robofont.guideline.magnetic.9Uvrkh39mI = 0;
com.typemytype.robofont.guideline.magnetic.BjJbRKxxyI = 0;
com.typemytype.robofont.guideline.magnetic.DQl0svvD69 = 0;
com.typemytype.robofont.guideline.magnetic.FH1qkLXHqy = 0;
com.typemytype.robofont.guideline.magnetic.ILg8rALh8c = 0;
com.typemytype.robofont.guideline.magnetic.ITtpFf0pbV = 0;
com.typemytype.robofont.guideline.magnetic.IeGOlyAIOT = 0;
com.typemytype.robofont.guideline.magnetic.Iw6PPKjjmS = 0;
com.typemytype.robofont.guideline.magnetic.MrjEkU3nwr = 0;
com.typemytype.robofont.guideline.magnetic.QO8N7YUbCu = 0;
com.typemytype.robofont.guideline.magnetic.RZSFOvuVMD = 0;
com.typemytype.robofont.guideline.magnetic.WpMWM8tt1w = 0;
com.typemytype.robofont.guideline.magnetic.XkDZlJlZww = 0;
com.typemytype.robofont.guideline.magnetic.ZyZRcPvfHC = 0;
com.typemytype.robofont.guideline.magnetic.bWTwrjbNQZ = 0;
com.typemytype.robofont.guideline.magnetic.cFLhaNexl9 = 0;
com.typemytype.robofont.guideline.magnetic.dKqF4jnHzo = 0;
com.typemytype.robofont.guideline.magnetic.dcrdzV1Jud = 0;
com.typemytype.robofont.guideline.magnetic.e3UMFGOuYb = 0;
com.typemytype.robofont.guideline.magnetic.e7HUM99Q8t = 0;
com.typemytype.robofont.guideline.magnetic.f4HoffKQeH = 0;
com.typemytype.robofont.guideline.magnetic.h4r7Wv4sTN = 0;
com.typemytype.robofont.guideline.magnetic.hJK5usKSyC = 0;
com.typemytype.robofont.guideline.magnetic.hLRQSG88gg = 0;
com.typemytype.robofont.guideline.magnetic.iuy0r9q2Mk = 0;
com.typemytype.robofont.guideline.magnetic.j6zFEoURd0 = 0;
com.typemytype.robofont.guideline.magnetic.jtINgDwiEV = 0;
com.typemytype.robofont.guideline.magnetic.mIZJPbcxEY = 0;
com.typemytype.robofont.guideline.magnetic.noePx9HqO4 = 0;
com.typemytype.robofont.guideline.magnetic.oEElcJ294x = 0;
com.typemytype.robofont.guideline.magnetic.oivZksCDYo = 0;
com.typemytype.robofont.guideline.magnetic.ps3DMjwZKF = 0;
com.typemytype.robofont.guideline.magnetic.qLfc7n7PQE = 0;
com.typemytype.robofont.guideline.magnetic.vVSJeBsiQy = 0;
com.typemytype.robofont.guideline.magnetic.wgogrA1FyK = 0;
com.typemytype.robofont.guideline.magnetic.xie2KuX4UK = 0;
com.typemytype.robofont.guideline.magnetic.zajB6hPiBX = 0;
};
width = 817;
}
);
unicode = 81;
},
{
glyphname = R;
kernLeft = H;
kernRight = R;
lastChange = "2020-12-08 18:15:30 +0000";
layers = (
{
anchors = (
{
name = bottom;
pos = (302,0);
},
{
name = top;
pos = (302,727);
}
);
background = {
shapes = (
{
closed = 1;
nodes = (
(86,340,l),
(86,0,l),
(85,0,l),
(85,727,l),
(324,727,ls),
(477,727,o),
(560,658,o),
(560,535,c),
(560,413,o),
(482,341,o),
(312,341,c),
(333,341,l),
(333,340,l),
(311,341,l),
(429,342,o),
(467,318,o),
(481,230,cs),
(502,107,ls),
(516,22,o),
(535,1,o),
(597,1,c),
(615,1,l),
(615,0,l),
(597,0,l),
(534,0,o),
(515,22,o),
(501,107,cs),
(480,230,ls),
(464,325,o),
(420,340,o),
(306,340,c)
);
},
{
closed = 1;
nodes = (
(86,726,l),
(86,341,l),
(306,341,l),
(481,341,o),
(559,412,o),
(559,535,c),
(559,657,o),
(476,726,o),
(324,726,cs)
);
}
);
};
layerId = master01;
shapes = (
{
closed = 1;
nodes = (
(86,340,l),
(86,0,l),
(85,0,l),
(85,727,l),
(324,727,ls),
(476,727,o),
(560,659,o),
(560,535,cs),
(560,408,o),
(475,341,o),
(312,341,c),
(333,341,l),
(333,340,l),
(311,341,l),
(410,341,o),
(463,302,o),
(481,230,cs),
(512,107,ls),
(532,23,o),
(552,1,o),
(627,1,c),
(635,1,l),
(635,0,l),
(627,0,l),
(551,0,o),
(531,23,o),
(511,107,cs),
(480,230,ls),
(462,302,o),
(410,340,o),
(306,340,c)
);
},
{
closed = 1;
nodes = (
(86,726,l),
(86,341,l),
(306,341,l),
(474,341,o),
(559,407,o),
(559,535,cs),
(559,658,o),
(475,726,o),
(324,726,cs)
);
}
);
userData = {
com.rafalbuchner.mirroringDrawingLocal = {
mirroringOptions = 3;
offset = (
0,
0
);
};
};
width = 635;
},
{
anchors = (
{
name = bottom;
pos = (302,0);
},
{
name = top;
pos = (302,727);
}
);
associatedMasterId = master01;
layerId = "56D0581E-D2E6-4C35-BDB9-B75A1B741090";
name = foreground;
shapes = (
{
closed = 1;
nodes = (
(86,340,l),
(86,0,l),
(85,0,l),
(85,727,l),
(324,727,ls),
(476,727,o),
(560,659,o),
(560,535,cs),
(560,408,o),
(475,341,o),
(312,341,c),
(333,341,l),
(333,340,l),
(311,341,l),
(410,341,o),
(463,302,o),
(481,230,cs),
(512,107,ls),
(532,23,o),
(552,1,o),
(627,1,c),
(635,1,l),
(635,0,l),
(627,0,l),
(551,0,o),
(531,23,o),
(511,107,cs),
(480,230,ls),
(462,302,o),
(410,340,o),
(306,340,c)
);
},
{
closed = 1;
nodes = (
(86,726,l),
(86,341,l),
(306,341,l),
(474,341,o),
(559,407,o),
(559,535,cs),
(559,658,o),
(475,726,o),
(324,726,cs)
);
}
);
userData = {
com.rafalbuchner.mirroringDrawingLocal = {
mirroringOptions = 3;
offset = (
0,
0
);
};
};
width = 635;
},
{
associatedMasterId = master01;
layerId = "CCEEACDB-05EB-4FB8-BE1D-2F986B691F08";
name = "another one";
width = 291;
},
{
anchors = (
{
name = bottom;
pos = (295,0);
},
{
name = top;
pos = (295,727);
}
);
layerId = master02;
shapes = (
{
closed = 1;
nodes = (
(303,294,l),
(445,0,l),
(623,0,l),
(460,321,l)
);
},
{
closed = 1;
nodes = (
(40,0,l),
(199,0,l),
(199,591,l),
(329,591,ls),
(403,591,o),
(437,549,o),
(437,488,cs),
(437,428,o),
(402,388,o),
(329,388,cs),
(151,388,l),
(151,252,l),
(334,252,ls),
(498,252,o),
(594,344,o),
(594,490,cs),
(594,637,o),
(498,727,o),
(333,727,cs),
(40,727,l)
);
}
);
userData = {
com.rafalbuchner.mirroringDrawingLocal = {
mirroringOptions = 3;
offset = (
0,
0
);
};
};
width = 631;
},
{
anchors = (
{
name = bottom;
pos = (295,0);
},
{
name = top;
pos = (295,727);
}
);
associatedMasterId = master02;
layerId = "A248B2A7-ABE6-4DFF-9B95-8224416A6942";
name = foreground;
shapes = (
{
closed = 1;
nodes = (
(199,249,l),
(199,0,l),
(40,0,l),
(40,727,l),
(313,727,ls),
(492,727,o),
(583,640,o),
(583,498,c),
(583,388,o),
(526,320,o),
(427,289,c),
(466,342,l),
(463,257,l),
(408,338,l),
(452,319,o),
(469,296,o),
(492,251,cs),
(525,189,ls),
(543,153,o),
(557,147,o),
(593,147,cs),
(606,147,l),
(606,0,l),
(567,0,l),
(472,0,o),
(427,32,o),
(387,111,cs),
(345,193,ls),
(323,237,o),
(303,249,o),
(262,249,cs)
);
},
{
closed = 1;
nodes = (
(199,591,l),
(199,381,l),
(305,381,ls),
(382,381,o),
(424,420,o),
(424,487,cs),
(424,554,o),
(383,591,o),
(305,591,cs)
);
}
);
userData = {
com.rafalbuchner.mirroringDrawingLocal = {
mirroringOptions = 3;
offset = (
0,
0
);
};
};
width = 625;
},
{
anchors = (
{
name = bottom;
pos = (360,0);
},
{
name = top;
pos = (360,727);
}
);
background = {
shapes = (
{
closed = 1;
nodes = (
(316,186,l),
(316,0,l),
(20,0,l),
(20,727,l),
(425,727,ls),
(621,727,o),
(709,632,o),
(709,502,cs),
(709,382,o),
(619,294,o),
(434,293,c),
(617,392,l),
(598,258,l),
(579,363,l),
(600,342,o),
(610,328,o),
(620,306,cs),
(636,270,ls),
(645,251,o),
(650,248,o),
(673,248,cs),
(704,248,l),
(704,0,l),
(583,0,ls),
(467,0,o),
(423,31,o),
(395,96,cs),
(368,162,ls),
(360,181,o),
(352,186,o),
(329,186,cs)
);
},
{
closed = 1;
nodes = (
(317,489,l),
(317,380,l),
(361,380,ls),
(399,380,o),
(418,401,o),
(418,436,cs),
(418,471,o),
(400,489,o),
(359,489,cs)
);
}
);
};
guides = (
{
angle = 270;
pos = (519,342);
}
);
layerId = master03;
shapes = (
{
closed = 1;
nodes = (
(304,290,l),
(391,0,l),
(703,0,l),
(579,333,l)
);
},
{
ref = P;
}
);
userData = {
com.rafalbuchner.mirroringDrawingLocal = {
mirroringOptions = 3;
offset = (
0,
0
);
};
};
width = 709;
},
{
anchors = (
{
name = bottom;
pos = (360,0);
},
{
name = top;
pos = (360,727);
}
);
associatedMasterId = master03;
guides = (
{
angle = 270;
pos = (519,342);
}
);
layerId = "BBE42B7F-27B3-47F4-A5E4-68B65B0370E9";
name = foreground;
shapes = (
{
closed = 1;
nodes = (
(316,186,l),
(316,0,l),
(20,0,l),
(20,727,l),
(425,727,ls),
(621,727,o),
(709,632,o),
(709,502,cs),
(709,382,o),
(619,294,o),
(434,293,c),
(617,392,l),
(598,258,l),
(579,363,l),
(600,342,o),
(610,328,o),
(620,306,cs),
(636,270,ls),
(645,251,o),
(650,248,o),
(673,248,cs),
(704,248,l),
(704,0,l),
(583,0,ls),
(467,0,o),
(423,31,o),
(395,96,cs),
(368,162,ls),
(360,181,o),
(352,186,o),
(329,186,cs)
);
},
{
closed = 1;
nodes = (
(317,489,l),
(317,380,l),
(361,380,ls),
(399,380,o),
(418,401,o),
(418,436,cs),
(418,471,o),
(400,489,o),
(359,489,cs)
);
}
);
userData = {
com.rafalbuchner.mirroringDrawingLocal = {
mirroringOptions = 3;
offset = (
0,
0
);
};
};
width = 719;
},
{
associatedMasterId = master03;
layerId = "B53E9310-A1A3-4EC2-9779-D52B4C25ECA9";
name = bg;
shapes = (
{
closed = 1;
nodes = (
(260,216,l),
(260,0,l),
(18,0,l),
(18,727,l),
(328,727,ls),
(523,727,o),
(592,639,o),
(592,512,cs),
(592,392,o),
(512,298,o),
(318,301,c),
(479,381,l),
(479,245,l),
(435,332,l),
(494,326,o),
(514,318,o),
(529,272,cs),
(546,222,ls),
(552,206,o),
(564,200,o),
(582,200,cs),
(598,200,l),
(598,0,l),
(524,0,l),
(430,0,o),
(366,17,o),
(339,94,cs),
(305,193,ls),
(299,212,o),
(288,216,o),
(273,216,c)
);
},
{
closed = 1;
nodes = (
(261,504,l),
(261,415,l),
(310,415,ls),
(343,415,o),
(357,432,o),
(357,461,cs),
(357,489,o),
(344,504,o),
(308,504,cs)
);
},
{
closed = 1;
nodes = (
(316,186,l),
(316,0,l),
(20,0,l),
(20,727,l),
(425,727,ls),
(621,727,o),
(709,632,o),
(709,502,cs),
(709,382,o),
(627,301,o),
(434,293,c),
(609,393,l),
(609,257,l),
(537,354,l),
(604,337,o),
(624,328,o),
(635,299,cs),
(644,273,ls),
(652,251,o),
(667,244,o),
(690,244,cs),
(704,244,l),
(704,0,l),
(593,0,l),
(474,0,o),
(427,30,o),
(400,96,cs),
(375,159,ls),
(367,179,o),
(355,186,o),
(333,186,c)
);
},
{
closed = 1;
nodes = (
(317,504,l),
(317,398,l),
(361,398,ls),
(400,398,o),
(418,419,o),
(418,453,cs),
(418,487,o),
(401,504,o),
(359,504,cs)
);
},
{
closed = 1;
nodes = (
(316,186,l),
(316,0,l),
(20,0,l),
(20,727,l),
(425,727,ls),
(621,727,o),
(709,632,o),
(709,502,cs),
(709,382,o),
(627,301,o),
(434,293,c),
(612,393,l),
(612,257,l),
(547,359,l),
(608,344,o),
(623,330,o),
(635,299,cs),
(644,273,ls),
(652,251,o),
(667,244,o),
(690,244,cs),
(704,244,l),
(704,0,l),
(593,0,l),
(474,0,o),
(427,30,o),
(400,96,cs),
(375,159,ls),
(367,179,o),
(355,186,o),
(333,186,c)
);
},
{
closed = 1;
nodes = (
(317,489,l),
(317,380,l),
(361,380,ls),
(400,380,o),
(418,401,o),
(418,436,cs),
(418,471,o),
(401,489,o),
(359,489,cs)
);
}
);
width = 611;
},
{
anchors = (
{
name = bottom;
pos = (295,0);
},
{
name = top;
pos = (295,727);
}
);
associatedMasterId = master02;
layerId = "42126FEE-26BF-40EE-BBA6-859F804FE0BE";
name = "Nov 29, 20, 11:32";
shapes = (
{
closed = 1;
nodes = (
(199,249,l),
(199,0,l),
(40,0,l),
(40,727,l),
(313,727,ls),
(492,727,o),
(583,640,o),
(583,498,c),
(583,388,o),
(526,320,o),
(427,289,c),
(466,342,l),
(463,257,l),
(408,338,l),
(452,319,o),
(469,296,o),
(492,251,cs),
(525,189,ls),
(543,153,o),
(557,147,o),
(593,147,cs),
(606,147,l),
(606,0,l),
(567,0,l),
(472,0,o),
(427,32,o),
(387,111,cs),
(345,193,ls),
(323,237,o),
(303,249,o),
(262,249,cs)
);
},
{
closed = 1;
nodes = (
(199,591,l),
(199,381,l),
(305,381,ls),
(382,381,o),
(424,420,o),
(424,487,cs),
(424,554,o),
(383,591,o),
(305,591,cs)
);
}
);
userData = {
com.rafalbuchner.mirroringDrawingLocal = {
mirroringOptions = 3;
offset = (
0,
0
);
};
};
width = 625;
}
);
unicode = 82;
},
{
glyphname = S;
kernLeft = S;
kernRight = S;
lastChange = "2020-12-08 18:18:40 +0000";
layers = (
{
anchors = (
{
name = bottom;
pos = (301,-15);
},
{
name = top;
pos = (296,727);
}
);
background = {
shapes = (
{
closed = 1;
nodes = (
(106,491,o),
(150,442,o),
(256,409,cs),
(360,376,ls),
(501,332,o),
(550,281,o),
(550,175,cs),
(550,58,o),
(457,-14,o),
(306,-14,cs),
(165,-14,o),
(80,47,o),
(46,171,c),
(45,170,l),
(79,46,o),
(165,-15,o),
(306,-15,cs),
(458,-15,o),
(551,58,o),
(551,175,cs),
(551,281,o),
(502,334,o),
(361,377,cs),
(256,410,ls),
(151,443,o),
(107,491,o),
(107,575,cs),
(107,675,o),
(184,741,o),
(301,741,cs),
(408,741,o),
(475,697,o),
(507,607,c),
(508,607,l),
(476,698,o),
(408,742,o),
(301,742,cs),
(183,742,o),
(106,676,o),
(106,575,cs)
);
}
);
};
layerId = master01;
shapes = (
{
closed = 1;
nodes = (
(90,496,o),
(137,441,o),
(250,406,cs),
(355,374,ls),
(489,333,o),
(540,273,o),
(540,182,c),
(540,61,o),
(450,-14,o),
(295,-14,cs),
(171,-14,o),
(93,34,o),
(36,138,c),
(35,137,l),
(92,33,o),
(171,-15,o),
(295,-15,cs),
(451,-15,o),
(541,60,o),
(541,182,c),
(541,273,o),
(490,334,o),
(356,375,cs),
(251,407,ls),
(138,442,o),
(91,496,o),
(91,576,c),
(91,681,o),
(173,741,o),
(298,741,c),
(399,741,o),
(464,703,o),
(508,623,c),
(509,624,l),
(466,704,o),
(399,742,o),
(298,742,c),
(172,742,o),
(90,681,o),
(90,576,c)
);
}
);
width = 593;
},
{
anchors = (
{
name = bottom;
pos = (301,-15);
},
{
name = top;
pos = (296,727);
}
);
associatedMasterId = master01;
layerId = "C54102C9-572B-4E43-B9D6-7A58C309E0E5";
name = foreground;
shapes = (
{
closed = 1;
nodes = (
(90,496,o),
(137,441,o),
(250,406,cs),
(355,374,ls),
(489,333,o),
(540,273,o),
(540,182,c),
(540,61,o),
(450,-14,o),
(295,-14,cs),
(171,-14,o),
(93,34,o),
(36,138,c),
(35,137,l),
(92,33,o),
(171,-15,o),
(295,-15,cs),
(451,-15,o),
(541,60,o),
(541,182,c),
(541,273,o),
(490,334,o),
(356,375,cs),
(251,407,ls),
(138,442,o),
(91,496,o),
(91,576,c),
(91,681,o),
(173,741,o),
(298,741,c),
(399,741,o),
(464,703,o),
(508,623,c),
(509,624,l),
(466,704,o),
(399,742,o),
(298,742,c),
(172,742,o),
(90,681,o),
(90,576,c)
);
}
);
width = 593;
},
{
associatedMasterId = master01;
layerId = "F36775BD-9FAF-4ACE-A277-78A0FF93C753";
name = "another one";
shapes = (
{
closed = 1;
nodes = (
(99,492,o),
(145,447,o),
(251,409,cs),
(354,371,ls),
(485,323,o),
(540,280,o),
(540,177,cs),
(540,61,o),
(443,-14,o),
(301,-14,cs),
(162,-14,o),
(93,34,o),
(36,138,c),
(35,137,l),
(92,33,o),
(162,-15,o),
(301,-15,cs),
(444,-15,o),
(541,61,o),
(541,177,cs),
(541,280,o),
(486,324,o),
(354,372,cs),
(251,410,ls),
(146,448,o),
(100,492,o),
(100,578,cs),
(100,676,o),
(178,741,o),
(296,741,cs),
(396,741,o),
(461,705,o),
(503,628,c),
(504,629,l),
(462,706,o),
(396,742,o),
(296,742,cs),
(177,742,o),
(99,677,o),
(99,578,cs)
);
}
);
width = 593;
},
{
anchors = (
{
name = bottom;
pos = (285,0);
},
{
name = top;
pos = (291,727);
}
);
background = {
shapes = (
{
closed = 1;
nodes = (
(87,400,o),
(134,347,o),
(237,321,cs),
(307,303,ls),
(366,288,o),
(376,272,o),
(376,251,cs),
(376,224,o),
(351,206,o),
(303,206,cs),
(253,206,o),
(222,227,o),
(214,271,c),
(65,271,l),
(86,151,o),
(168,86,o),
(307,86,cs),
(435,86,o),
(525,152,o),
(525,264,cs),
(525,338,o),
(475,394,o),
(369,420,cs),
(296,438,ls),
(241,452,o),
(229,463,o),
(229,487,cs),
(229,513,o),
(254,530,o),
(299,530,cs),
(344,530,o),
(375,509,o),
(384,475,c),
(522,475,l),
(502,584,o),
(422,650,o),
(299,650,cs),
(168,650,o),
(87,580,o),
(87,482,cs)
);
}
);
};
guides = (
{
angle = 38.3612;
pos = (123,350);
},
{
angle = 38.6598;
pos = (936,1170);
}
);
layerId = master02;
shapes = (
{
closed = 1;
nodes = (
(41,416,o),
(104,346,o),
(226,314,cs),
(330,287,ls),
(398,269,o),
(423,244,o),
(423,205,cs),
(423,153,o),
(380,123,o),
(311,123,cs),
(239,123,o),
(193,156,o),
(181,222,c),
(17,224,l),
(43,64,o),
(149,-15,o),
(311,-15,cs),
(477,-15,o),
(586,76,o),
(586,213,cs),
(586,320,o),
(526,391,o),
(388,425,cs),
(283,451,ls),
(220,467,o),
(200,490,o),
(200,525,cs),
(200,569,o),
(230,604,o),
(298,604,cs),
(365,604,o),
(401,573,o),
(411,514,c),
(566,515,l),
(549,658,o),
(454,742,o),
(298,742,cs),
(139,741,o),
(41,650,o),
(41,518,cs)
);
}
);
width = 601;
},
{
anchors = (
{
name = bottom;
pos = (289,0);
},
{
name = top;
pos = (295,727);
}
);
associatedMasterId = master02;
guides = (
{
angle = 38.3612;
pos = (127,350);
},
{
angle = 38.6598;
pos = (940,1170);
}
);
layerId = "129E1037-40B3-4C37-8F90-279D5E4E7CAE";
name = foreground;
shapes = (
{
closed = 1;
nodes = (
(57,430,o),
(118,360,o),
(228,324,cs),
(330,290,ls),
(386,272,o),
(411,247,o),
(411,206,cs),
(411,151,o),
(366,120,o),
(290,120,cs),
(218,120,o),
(168,155,o),
(123,222,c),
(5,129,l),
(72,28,o),
(157,-15,o),
(287,-15,cs),
(460,-15,o),
(570,72,o),
(570,208,c),
(570,310,o),
(520,381,o),
(395,424,cs),
(291,459,ls),
(232,479,o),
(209,502,o),
(209,539,cs),
(209,582,o),
(241,607,o),
(295,607,cs),
(343,607,o),
(382,586,o),
(415,541,c),
(524,628,l),
(470,703,o),
(397,742,o),
(295,742,cs),
(153,742,o),
(57,656,o),
(57,532,cs)
);
}
);
width = 594;
},
{
associatedMasterId = master02;
layerId = "2FD037BB-29FE-40B0-9FC4-4369A5BB1F54";
name = bg;
shapes = (
{
closed = 1;
nodes = (
(130,393,l),
(160,436,o),
(201,455,o),
(251,455,cs),
(327,455,o),
(382,396,o),
(382,307,cs),
(382,219,o),
(327,159,o),
(251,159,cs),
(201,159,o),
(160,179,o),
(130,222,c),
(24,138,l),
(76,62,o),
(156,23,o),
(250,23,cs),
(417,23,o),
(533,142,o),
(533,308,cs),
(533,473,o),
(418,592,o),
(253,592,cs),
(156,592,o),
(76,553,o),
(24,476,c)
);
},
{
closed = 1;
nodes = (
(58,432,o),
(119,362,o),
(228,326,cs),
(330,293,ls),
(386,274,o),
(411,251,o),
(411,207,cs),
(411,152,o),
(366,120,o),
(290,120,cs),
(217,120,o),
(174,150,o),
(130,222,c),
(7,136,l),
(71,33,o),
(157,-15,o),
(287,-15,cs),
(458,-15,o),
(570,78,o),
(570,215,cs),
(570,313,o),
(518,385,o),
(395,426,cs),
(291,461,ls),
(233,481,o),
(210,502,o),
(210,541,cs),
(210,582,o),
(244,609,o),
(295,609,cs),
(344,609,o),
(381,587,o),
(412,544,c),
(527,625,l),
(475,700,o),
(401,742,o),
(295,742,cs),
(153,742,o),
(58,657,o),
(58,534,cs)
);
}
);
width = 594;
},
{
anchors = (
{
name = bottom;
pos = (349,0);
},
{
name = top;
pos = (347,727);
}
);
background = {
shapes = (
{
closed = 1;
nodes = (
(47,386,o),
(113,306,o),
(255,272,cs),
(346,250,ls),
(368,244,o),
(377,234,o),
(377,219,cs),
(377,206,o),
(367,191,o),
(329,191,cs),
(283,191,o),
(261,207,o),
(253,248,c),
(10,212,l),
(21,73,o),
(140,-19,o),
(322,-19,cs),
(536,-19,o),
(653,86,o),
(653,236,cs),
(653,364,o),
(589,438,o),
(417,476,cs),
(319,498,ls),
(298,502,o),
(285,509,o),
(285,523,cs),
(285,537,o),
(297,550,o),
(330,550,cs),
(367,550,o),
(386,534,o),
(393,505,c),
(615,536,l),
(590,665,o),
(487,746,o),
(326,746,cs),
(150,746,o),
(47,642,o),
(47,502,cs)
);
},
{
closed = 1;
nodes = (
(33,374,o),
(122,299,o),
(245,269,cs),
(340,246,ls),
(386,234,o),
(397,226,o),
(397,212,cs),
(397,197,o),
(378,188,o),
(346,188,cs),
(299,188,o),
(266,206,o),
(246,251,c),
(4,171,l),
(64,35,o),
(182,-19,o),
(349,-19,cs),
(562,-19,o),
(699,73,o),
(699,237,cs),
(699,352,o),
(632,428,o),
(488,462,cs),
(382,487,ls),
(321,501,o),
(311,508,o),
(311,521,cs),
(311,533,o),
(324,543,o),
(353,543,cs),
(397,543,o),
(434,522,o),
(452,486,c),
(672,571,l),
(610,688,o),
(503,746,o),
(350,746,cs),
(157,746,o),
(33,653,o),
(33,503,cs)
);
}
);
};
guides = (
{
angle = 21.1247;
pos = (1119,1057);
}
);
layerId = master03;
shapes = (
{
closed = 1;
nodes = (
(28,374,o),
(119,299,o),
(245,269,cs),
(340,246,ls),
(386,235,o),
(397,226,o),
(397,212,cs),
(397,197,o),
(380,188,o),
(354,188,cs),
(311,188,o),
(292,206,o),
(281,242,c),
(13,242,l),
(47,73,o),
(159,-19,o),
(361,-19,cs),
(579,-19,o),
(711,73,o),
(711,237,cs),
(711,357,o),
(646,427,o),
(488,462,cs),
(382,487,ls),
(324,501,o),
(315,511,o),
(315,524,cs),
(315,538,o),
(329,546,o),
(359,546,cs),
(398,546,o),
(430,525,o),
(436,494,c),
(700,494,l),
(666,659,o),
(551,746,o),
(350,746,cs),
(154,746,o),
(28,653,o),
(28,503,cs)
);
}
);
width = 720;
},
{
anchors = (
{
name = bottom;
pos = (344,0);
},
{
name = top;
pos = (342,727);
}
);
associatedMasterId = master03;
guides = (
{
angle = 21.1247;
pos = (1114,1057);
}
);
layerId = "7E8CDF4F-273D-4F71-A1B1-0B3A506B7AC9";
name = foreground;
width = 702;
},
{
associatedMasterId = master03;
layerId = "28D6BA03-DEA6-4355-9E6A-27FA36D61348";
name = bg;
width = 585;
},
{
associatedMasterId = master03;
layerId = "0B458363-9060-403E-91FF-0993652D32B9";
name = "another one";
width = 653;
},
{
anchors = (
{
name = bottom;
pos = (289,0);
},
{
name = top;
pos = (295,727);
}
);
associatedMasterId = master02;
guides = (
{
angle = 38.3612;
pos = (127,350);
},
{
angle = 38.6598;
pos = (940,1170);
}
);
layerId = "B8465C59-B7DF-459A-8093-F17E652C0E34";
name = "Nov 29, 20, 10:48";
shapes = (
{
closed = 1;
nodes = (
(53,429,o),
(116,361,o),
(228,324,cs),
(330,290,ls),
(386,271,o),
(411,247,o),
(411,206,cs),
(411,151,o),
(366,120,o),
(301,120,cs),
(238,120,o),
(198,153,o),
(184,210,c),
(26,212,l),
(47,63,o),
(147,-15,o),
(298,-15,cs),
(462,-15,o),
(573,72,o),
(573,208,cs),
(573,310,o),
(522,381,o),
(395,424,cs),
(291,459,ls),
(232,479,o),
(209,500,o),
(209,537,cs),
(209,576,o),
(240,607,o),
(308,607,cs),
(373,607,o),
(409,574,o),
(418,515,c),
(568,516,l),
(550,656,o),
(460,742,o),
(308,742,cs),
(150,741,o),
(53,655,o),
(53,530,cs)
);
}
);
width = 594;
},
{
anchors = (
{
name = bottom;
pos = (289,0);
},
{
name = top;
pos = (295,727);
}
);
associatedMasterId = master02;
guides = (
{
angle = 38.3612;
pos = (127,350);
},
{
angle = 38.6598;
pos = (940,1170);
}
);
layerId = "8FB43C42-47E9-42A6-87ED-34C7B3BA48F0";
name = "Nov 29, 20, 11:33";
shapes = (
{
closed = 1;
nodes = (
(50,423,o),
(115,347,o),
(230,315,cs),
(334,286,ls),
(392,270,o),
(412,246,o),
(412,207,cs),
(412,151,o),
(374,120,o),
(313,120,cs),
(242,120,o),
(196,153,o),
(185,210,c),
(21,212,l),
(46,63,o),
(149,-15,o),
(310,-15,cs),
(469,-15,o),
(574,83,o),
(574,209,cs),
(574,308,o),
(523,386,o),
(392,423,cs),
(287,453,ls),
(225,471,o),
(206,492,o),
(206,530,cs),
(206,573,o),
(236,607,o),
(302,607,cs),
(371,607,o),
(408,574,o),
(418,515,c),
(568,516,l),
(550,656,o),
(457,742,o),
(302,742,cs),
(146,741,o),
(50,652,o),
(50,523,cs)
);
}
);
width = 594;
}
);
unicode = 83;
},
{
glyphname = T;
kernLeft = T;
kernRight = T;
lastChange = "2020-11-29 18:49:07 +0000";
layers = (
{
anchors = (
{
name = bottom;
pos = (332,0);
},
{
name = top;
pos = (332,727);
}
);
layerId = master01;
shapes = (
{
closed = 1;
nodes = (
(332,726,l),
(332,0,l),
(333,0,l),
(333,726,l),
(616,726,l),
(616,727,l),
(49,727,l),
(49,726,l)
);
}
);
width = 664;
},
{
anchors = (
{
name = bottom;
pos = (332,0);
},
{
name = top;
pos = (332,727);
}
);
associatedMasterId = master01;
layerId = "A1A9840E-2AC7-4D5F-979C-8668DC143B79";
name = foreground;
shapes = (
{
closed = 1;
nodes = (
(332,726,l),
(332,0,l),
(333,0,l),
(333,726,l),
(616,726,l),
(616,727,l),
(49,727,l),
(49,726,l)
);
}
);
width = 664;
},
{
associatedMasterId = master01;
layerId = "C8745451-4D49-4E3C-AAB3-79DB38E51D0D";
name = "another one";
width = 291;
},
{
anchors = (
{
name = bottom;
pos = (303,0);
},
{
name = top;
pos = (303,727);
}
);
layerId = master02;
shapes = (
{
closed = 1;
nodes = (
(223,582,l),
(223,0,l),
(383,0,l),
(383,582,l),
(599,582,l),
(599,727,l),
(8,727,l),
(8,582,l)
);
}
);
width = 606;
},
{
anchors = (
{
name = bottom;
pos = (303,0);
},
{
name = top;
pos = (303,727);
}
);
associatedMasterId = master02;
layerId = "3D7C0A78-1B90-4D1F-BF2F-1EB1B1647D4C";
name = foreground;
shapes = (
{
closed = 1;
nodes = (
(223,582,l),
(223,0,l),
(383,0,l),
(383,582,l),
(599,582,l),
(599,727,l),
(8,727,l),
(8,582,l)
);
}
);
width = 606;
},
{
anchors = (
{
name = bottom;
pos = (320,0);
},
{
name = top;
pos = (320,727);
}
);
layerId = master03;
shapes = (
{
closed = 1;
nodes = (
(169,453,l),
(169,0,l),
(474,0,l),
(474,453,l),
(630,453,l),
(630,727,l),
(13,727,l),
(13,453,l)
);
}
);
width = 642;
},
{
anchors = (
{
name = bottom;
pos = (320,0);
},
{
name = top;
pos = (320,727);
}
);
associatedMasterId = master03;
layerId = "5FECBCD0-19CF-4989-B08E-C2204F8A7694";
name = foreground;
shapes = (
{
closed = 1;
nodes = (
(169,453,l),
(169,0,l),
(474,0,l),
(474,453,l),
(630,453,l),
(630,727,l),
(13,727,l),
(13,453,l)
);
}
);
width = 642;
}
);
unicode = 84;
},
{
glyphname = U;
kernLeft = U;
kernRight = U;
lastChange = "2020-11-26 16:42:11 +0000";
layers = (
{
anchors = (
{
name = bottom;
pos = (339,-14);
},
{
name = ogonek;
pos = (434,0);
},
{
name = top;
pos = (338,727);
}
);
layerId = master01;
shapes = (
{
closed = 1;
nodes = (
(596,727,l),
(596,266,ls),
(596,88,o),
(502,-13,o),
(337,-13,cs),
(175,-13,o),
(82,88,o),
(82,266,cs),
(82,727,l),
(81,727,l),
(81,266,ls),
(81,88,o),
(174,-14,o),
(337,-14,cs),
(502,-14,o),
(597,88,o),
(597,266,cs),
(597,727,l)
);
}
);
width = 678;
},
{
anchors = (
{
name = bottom;
pos = (339,-14);
},
{
name = ogonek;
pos = (434,0);
},
{
name = top;
pos = (338,727);
}
);
associatedMasterId = master01;
layerId = "59D71FA4-913D-434E-BAA2-11199546A69E";
name = foreground;
shapes = (
{
closed = 1;
nodes = (
(596,727,l),
(596,266,ls),
(596,88,o),
(502,-13,o),
(337,-13,cs),
(175,-13,o),
(82,88,o),
(82,266,cs),
(82,727,l),
(81,727,l),
(81,266,ls),
(81,88,o),
(174,-14,o),
(337,-14,cs),
(502,-14,o),
(597,88,o),
(597,266,cs),
(597,727,l)
);
}
);
width = 678;
},
{
associatedMasterId = master01;
layerId = "6A0744B4-28CC-49E9-8D85-52279B5C1C3E";
name = "another one";
width = 291;
},
{
anchors = (
{
name = bottom;
pos = (323,-15);
},
{
name = ogonek;
pos = (428,0);
},
{
name = top;
pos = (323,727);
}
);
layerId = master02;
shapes = (
{
closed = 1;
nodes = (
(454,727,l),
(454,276,ls),
(454,182,o),
(412,135,o),
(323,135,cs),
(235,135,o),
(195,182,o),
(195,276,cs),
(195,727,l),
(35,727,l),
(35,266,ls),
(35,82,o),
(145,-15,o),
(321,-15,cs),
(498,-15,o),
(611,82,o),
(611,266,cs),
(611,727,l)
);
}
);
width = 645;
},
{
anchors = (
{
name = bottom;
pos = (323,-15);
},
{
name = ogonek;
pos = (428,0);
},
{
name = top;
pos = (323,727);
}
);
associatedMasterId = master02;
layerId = "EAC31B53-D8FC-4444-A7AF-D7E9AF0A3732";
name = foreground;
shapes = (
{
closed = 1;
nodes = (
(454,727,l),
(454,276,ls),
(454,182,o),
(412,135,o),
(323,135,cs),
(235,135,o),
(195,182,o),
(195,276,cs),
(195,727,l),
(35,727,l),
(35,266,ls),
(35,82,o),
(145,-15,o),
(321,-15,cs),
(498,-15,o),
(611,82,o),
(611,266,cs),
(611,727,l)
);
}
);
width = 645;
},
{
anchors = (
{
name = bottom;
pos = (348,-20);
},
{
name = ogonek;
pos = (475,0);
},
{
name = top;
pos = (349,727);
}
);
layerId = master03;
shapes = (
{
closed = 1;
nodes = (
(388,727,l),
(388,287,ls),
(388,261,o),
(373,248,o),
(350,248,cs),
(328,248,o),
(315,261,o),
(315,287,cs),
(315,727,l),
(15,727,l),
(15,275,ls),
(15,85,o),
(139,-20,o),
(339,-20,cs),
(539,-20,o),
(669,85,o),
(669,275,cs),
(669,727,l)
);
}
);
width = 684;
},
{
anchors = (
{
name = bottom;
pos = (348,-20);
},
{
name = ogonek;
pos = (475,0);
},
{
name = top;
pos = (349,727);
}
);
associatedMasterId = master03;
layerId = "0FEB2CF3-391B-4458-A52D-68A1DF0F162F";
name = foreground;
shapes = (
{
closed = 1;
nodes = (
(388,727,l),
(388,287,ls),
(388,261,o),
(373,248,o),
(350,248,cs),
(328,248,o),
(315,261,o),
(315,287,cs),
(315,727,l),
(15,727,l),
(15,275,ls),
(15,85,o),
(139,-20,o),
(339,-20,cs),
(539,-20,o),
(669,85,o),
(669,275,cs),
(669,727,l)
);
}
);
width = 684;
}
);
unicode = 85;
},
{
glyphname = Uhorn;
kernLeft = U;
kernRight = Uhorn;
lastChange = "2020-11-26 16:42:11 +0000";
layers = (
{
anchors = (
{
name = top;
pos = (338,727);
}
);
layerId = master01;
shapes = (
{
closed = 1;
nodes = (
(678,778,ls),
(678,744,o),
(660,727,o),
(630,727,cs),
(596,727,l),
(596,726,l),
(630,726,ls),
(660,726,o),
(679,743,o),
(679,778,cs),
(679,846,l),
(678,846,l)
);
},
{
ref = U;
}
);
width = 678;
},
{
anchors = (
{
name = top;
pos = (338,727);
}
);
associatedMasterId = master01;
layerId = "FFCB6F95-5295-4A93-8C8E-ECD01A716233";
name = foreground;
shapes = (
{
closed = 1;
nodes = (
(678,778,ls),
(678,744,o),
(660,727,o),
(630,727,cs),
(596,727,l),
(596,726,l),
(630,726,ls),
(660,726,o),
(679,743,o),
(679,778,cs),
(679,846,l),
(678,846,l)
);
},
{
ref = U;
}
);
width = 678;
},
{
anchors = (
{
name = top;
pos = (323,727);
}
);
layerId = master02;
shapes = (
{
closed = 1;
nodes = (
(531,756,ls),
(531,735,o),
(522,727,o),
(501,727,c),
(454,727,l),
(497,672,l),
(596,672,ls),
(643,672,o),
(671,704,o),
(671,748,cs),
(671,823,l),
(531,823,l)
);
},
{
ref = U;
}
);
width = 647;
},
{
anchors = (
{
name = top;
pos = (323,727);
}
);
associatedMasterId = master02;
layerId = "5C75F0F0-B72E-42B9-8781-674035E1187F";
name = foreground;
shapes = (
{
closed = 1;
nodes = (
(531,756,ls),
(531,735,o),
(522,727,o),
(501,727,c),
(454,727,l),
(497,672,l),
(596,672,ls),
(643,672,o),
(671,704,o),
(671,748,cs),
(671,823,l),
(531,823,l)
);
},
{
ref = U;
}
);
width = 647;
},
{
anchors = (
{
name = top;
pos = (349,727);
}
);
layerId = master03;
shapes = (
{
closed = 1;
nodes = (
(491,741,ls),
(491,732,o),
(486,727,o),
(477,727,cs),
(388,727,l),
(449,627,l),
(627,627,ls),
(681,627,o),
(703,660,o),
(703,709,cs),
(703,803,l),
(491,803,l)
);
},
{
ref = U;
}
);
width = 695;
},
{
anchors = (
{
name = top;
pos = (349,727);
}
);
associatedMasterId = master03;
layerId = "A1CFE5E4-C64E-4050-99F2-10485FD9027D";
name = foreground;
shapes = (
{
closed = 1;
nodes = (
(491,741,ls),
(491,732,o),
(486,727,o),
(477,727,cs),
(388,727,l),
(449,627,l),
(627,627,ls),
(681,627,o),
(703,660,o),
(703,709,cs),
(703,803,l),
(491,803,l)
);
},
{
ref = U;
}
);
width = 695;
},
{
associatedMasterId = master03;
layerId = "3BF978CF-6604-47A1-B4EF-47E860CFC8BA";
name = bg;
shapes = (
{
closed = 1;
nodes = (
(695,803,l),
(695,690,ls),
(695,667,o),
(684,652,o),
(661,652,cs),
(434,652,l),
(388,727,l),
(472,727,ls),
(484,727,o),
(491,734,o),
(491,748,cs),
(491,803,l)
);
}
);
width = 695;
}
);
unicode = 431;
},
{
glyphname = V;
kernRight = u;
lastChange = "2020-12-01 15:32:49 +0000";
layers = (
{
guides = (
{
angle = 112.0836;
pos = (866.44,0);
},
{
angle = 247.9164;
pos = (2173.443,2180.786);
}
);
layerId = master01;
shapes = (
{
closed = 1;
nodes = (
(342,2,l),
(341,3,l),
(344,3,l),
(343,2,l),
(639,727,l),
(640,727,l),
(343,0,l),
(342,0,l),
(46,727,l),
(48,727,l)
);
}
);
width = 686;
},
{
associatedMasterId = master01;
guides = (
{
angle = 112.0836;
pos = (866.44,0);
},
{
angle = 247.9164;
pos = (2173.443,2180.786);
}
);
layerId = "45911E58-9B84-4457-BE00-94F437FE1FB9";
name = foreground;
shapes = (
{
closed = 1;
nodes = (
(342,2,l),
(341,3,l),
(344,3,l),
(343,2,l),
(639,727,l),
(640,727,l),
(343,0,l),
(342,0,l),
(46,727,l),
(48,727,l)
);
}
);
width = 686;
},
{
associatedMasterId = master01;
layerId = "3C463CFD-4163-4DB3-B597-BF6C49A20825";
name = "another one";
width = 291;
},
{
background = {
shapes = (
{
closed = 1;
nodes = (
(351,242,l),
(316,249,l),
(389,249,l),
(352,242,l),
(529,727,l),
(699,727,l),
(407,0,l),
(287,0,l),
(-6,727,l),
(176,727,l)
);
}
);
};
layerId = master02;
shapes = (
{
closed = 1;
nodes = (
(351,226,l),
(316,233,l),
(389,233,l),
(352,226,l),
(529,727,l),
(699,727,l),
(418,0,l),
(276,0,l),
(-6,727,l),
(176,727,l)
);
}
);
width = 689;
},
{
associatedMasterId = master02;
layerId = "8BD0E06D-C393-4E1D-A5A3-68FBE5705BF2";
name = foreground;
shapes = (
{
closed = 1;
nodes = (
(351,242,l),
(316,249,l),
(389,249,l),
(352,242,l),
(529,727,l),
(699,727,l),
(407,0,l),
(287,0,l),
(-6,727,l),
(176,727,l)
);
}
);
width = 694;
},
{
guides = (
{
angle = 292.0836;
pos = (106.892,0);
},
{
angle = 67.9164;
pos = (268.136,269.042);
}
);
layerId = master03;
shapes = (
{
closed = 1;
nodes = (
(391,423,l),
(337,426,l),
(449,426,l),
(393,423,l),
(466,727,l),
(763,727,l),
(521,0,l),
(235,0,l),
(-8,727,l),
(319,727,l)
);
}
);
width = 756;
},
{
associatedMasterId = master03;
guides = (
{
angle = 292.0836;
pos = (106.892,0);
},
{
angle = 67.9164;
pos = (268.136,269.042);
}
);
layerId = "A4157C79-C0A9-4AB5-AD53-28EA06D8C2E3";
name = foreground;
shapes = (
{
closed = 1;
nodes = (
(391,423,l),
(337,426,l),
(449,426,l),
(393,423,l),
(466,727,l),
(763,727,l),
(521,0,l),
(235,0,l),
(-8,727,l),
(319,727,l)
);
}
);
width = 756;
}
);
unicode = 86;
},
{
glyphname = W;
kernLeft = W;
kernRight = W;
lastChange = "2020-12-01 15:33:04 +0000";
layers = (
{
layerId = master01;
shapes = (
{
closed = 1;
nodes = (
(53,727,l),
(261,2,l),
(260,3,l),
(262,3,l),
(261,2,l),
(508,727,l),
(509,727,l),
(756,2,l),
(755,3,l),
(758,3,l),
(757,2,l),
(964,727,l),
(966,727,l),
(757,0,l),
(756,0,l),
(509,725,l),
(510,724,l),
(508,724,l),
(509,725,l),
(262,0,l),
(260,0,l),
(52,727,l)
);
}
);
width = 1017;
},
{
associatedMasterId = master01;
layerId = "CEBCB658-A764-40D4-9828-1AF2DEB95212";
name = foreground;
shapes = (
{
closed = 1;
nodes = (
(53,727,l),
(261,2,l),
(260,3,l),
(262,3,l),
(261,2,l),
(508,727,l),
(509,727,l),
(756,2,l),
(755,3,l),
(758,3,l),
(757,2,l),
(964,727,l),
(966,727,l),
(757,0,l),
(756,0,l),
(509,725,l),
(510,724,l),
(508,724,l),
(509,725,l),
(262,0,l),
(260,0,l),
(52,727,l)
);
}
);
width = 1017;
},
{
associatedMasterId = master01;
layerId = "DCD0DDBD-73A9-4298-8DD4-E700D293890B";
name = "another one";
width = 291;
},
{
background = {
shapes = (
{
closed = 1;
nodes = (
(186,727,l),
(328,275,l),
(290,304,l),
(352,304,l),
(313,276,l),
(473,727,l),
(571,727,l),
(735,274,l),
(695,304,l),
(757,304,l),
(719,274,l),
(858,727,l),
(1029,727,l),
(786,0,l),
(681,0,l),
(512,455,l),
(551,428,l),
(489,428,l),
(528,455,l),
(354,0,l),
(251,0,l),
(6,727,l)
);
}
);
};
guides = (
{
pos = (1442,608);
},
{
angle = 180;
pos = (314,289);
}
);
layerId = master02;
shapes = (
{
closed = 1;
nodes = (
(176,727,l),
(322,224,l),
(284,262,l),
(346,262,l),
(307,225,l),
(456,727,l),
(590,727,l),
(739,223,l),
(699,262,l),
(761,262,l),
(723,223,l),
(868,727,l),
(1039,727,l),
(806,0,l),
(656,0,l),
(512,478,l),
(551,441,l),
(489,441,l),
(528,478,l),
(379,0,l),
(231,0,l),
(-4,727,l)
);
}
);
width = 1035;
},
{
associatedMasterId = master02;
guides = (
{
pos = (1432,608);
}
);
layerId = "74B8974C-F721-445B-A9FC-1E968273B6E3";
name = foreground;
shapes = (
{
closed = 1;
nodes = (
(176,727,l),
(318,275,l),
(280,304,l),
(342,304,l),
(303,276,l),
(463,727,l),
(561,727,l),
(725,274,l),
(685,304,l),
(747,304,l),
(709,274,l),
(848,727,l),
(1019,727,l),
(776,0,l),
(671,0,l),
(502,455,l),
(541,428,l),
(479,428,l),
(518,455,l),
(344,0,l),
(241,0,l),
(-4,727,l)
);
}
);
width = 1015;
},
{
layerId = master03;
shapes = (
{
closed = 1;
nodes = (
(316,727,l),
(398,441,l),
(341,486,l),
(435,486,l),
(373,443,l),
(480,727,l),
(626,727,l),
(739,438,l),
(677,484,l),
(771,484,l),
(715,438,l),
(791,727,l),
(1077,727,l),
(841,0,l),
(632,0,l),
(523,276,l),
(581,240,l),
(489,240,l),
(547,276,l),
(438,0,l),
(239,0,l),
(-8,727,l)
);
}
);
width = 1069;
},
{
associatedMasterId = master03;
layerId = "42A236C3-E50C-4FE5-9917-5D49802C0A08";
name = foreground;
shapes = (
{
closed = 1;
nodes = (
(316,727,l),
(398,441,l),
(341,486,l),
(435,486,l),
(373,443,l),
(480,727,l),
(626,727,l),
(739,438,l),
(677,484,l),
(771,484,l),
(715,438,l),
(791,727,l),
(1077,727,l),
(841,0,l),
(632,0,l),
(523,276,l),
(581,240,l),
(489,240,l),
(547,276,l),
(438,0,l),
(239,0,l),
(-8,727,l)
);
}
);
width = 1069;
}
);
unicode = 87;
},
{
glyphname = X;
kernLeft = X;
kernRight = X;
lastChange = "2020-11-26 16:42:11 +0000";
layers = (
{
guides = (
{
angle = 302.0303;
pos = (260.666,2547.921);
},
{
angle = 122.6635;
pos = (2265.227,367.136);
},
{
angle = 57.6403;
pos = (1519.941,1325.36);
},
{
angle = 236.146;
pos = (1005.952,1549.312);
}
);
layerId = master01;
shapes = (
{
closed = 1;
nodes = (
(73,727,l),
(327,377,l),
(328,376,l),
(601,0,l),
(603,0,l),
(328,377,l),
(327,378,l),
(75,727,l)
);
},
{
closed = 1;
nodes = (
(327,376,l),
(329,376,l),
(327,378,l),
(49,0,l),
(51,0,l)
);
},
{
closed = 1;
nodes = (
(328,378,l),
(326,378,l),
(328,377,l),
(584,727,l),
(583,727,l)
);
}
);
width = 652;
},
{
associatedMasterId = master01;
guides = (
{
angle = 302.0303;
pos = (260.666,2547.921);
},
{
angle = 122.6635;
pos = (2265.227,367.136);
},
{
angle = 57.6403;
pos = (1519.941,1325.36);
},
{
angle = 236.146;
pos = (1005.952,1549.312);
}
);
layerId = "038AE1BB-A412-4A27-8F1B-814FBA3359C4";
name = foreground;
shapes = (
{
closed = 1;
nodes = (
(73,727,l),
(327,377,l),
(328,376,l),
(601,0,l),
(603,0,l),
(328,377,l),
(327,378,l),
(75,727,l)
);
},
{
closed = 1;
nodes = (
(327,376,l),
(329,376,l),
(327,378,l),
(49,0,l),
(51,0,l)
);
},
{
closed = 1;
nodes = (
(328,378,l),
(326,378,l),
(328,377,l),
(584,727,l),
(583,727,l)
);
}
);
width = 652;
},
{
associatedMasterId = master01;
layerId = "F7ADB17B-0F0A-4418-BF59-77DF71CCDB2B";
name = "another one";
width = 291;
},
{
layerId = master02;
shapes = (
{
closed = 1;
nodes = (
(13,727,l),
(264,336,l),
(304,290,l),
(485,0,l),
(671,0,l),
(406,414,l),
(363,466,l),
(201,727,l)
);
},
{
closed = 1;
nodes = (
(324,248,l),
(376,248,l),
(255,402,l),
(-4,0,l),
(174,0,l)
);
},
{
closed = 1;
nodes = (
(350,496,l),
(305,496,l),
(406,329,l),
(664,727,l),
(489,727,l)
);
}
);
width = 667;
},
{
associatedMasterId = master02;
layerId = "A95990B0-7F68-4AFC-8935-FCFFEF645EA4";
name = foreground;
shapes = (
{
closed = 1;
nodes = (
(13,727,l),
(264,336,l),
(304,290,l),
(485,0,l),
(671,0,l),
(406,414,l),
(363,466,l),
(201,727,l)
);
},
{
closed = 1;
nodes = (
(324,248,l),
(376,248,l),
(255,402,l),
(-4,0,l),
(174,0,l)
);
},
{
closed = 1;
nodes = (
(350,496,l),
(305,496,l),
(406,329,l),
(664,727,l),
(489,727,l)
);
}
);
width = 667;
},
{
guides = (
{
angle = 238.9752;
pos = (483,828);
},
{
angle = 59.0953;
pos = (1010,597);
},
{
angle = 58.9969;
pos = (1010,597);
}
);
layerId = master03;
shapes = (
{
closed = 1;
nodes = (
(0,727,l),
(248,315,l),
(319,230,l),
(449,0,l),
(774,0,l),
(515,435,l),
(441,525,l),
(329,727,l)
);
},
{
closed = 1;
nodes = (
(360,152,l),
(434,152,l),
(237,419,l),
(-8,0,l),
(283,0,l)
);
},
{
closed = 1;
nodes = (
(412,582,l),
(347,582,l),
(510,294,l),
(763,727,l),
(483,727,l)
);
}
);
width = 767;
},
{
associatedMasterId = master03;
guides = (
{
angle = 238.9752;
pos = (483,828);
},
{
angle = 59.0953;
pos = (1010,597);
},
{
angle = 58.9969;
pos = (1010,597);
}
);
layerId = "D58271C4-29B1-4C4D-804A-BE4F9F82AE5A";
name = foreground;
shapes = (
{
closed = 1;
nodes = (
(0,727,l),
(248,315,l),
(319,230,l),
(449,0,l),
(774,0,l),
(515,435,l),
(441,525,l),
(329,727,l)
);
},
{
closed = 1;
nodes = (
(360,152,l),
(434,152,l),
(237,419,l),
(-8,0,l),
(283,0,l)
);
},
{
closed = 1;
nodes = (
(412,582,l),
(347,582,l),
(510,294,l),
(763,727,l),
(483,727,l)
);
}
);
width = 767;
}
);
unicode = 88;
},
{
glyphname = Y;
kernLeft = Y;
kernRight = Y;
lastChange = "2020-12-01 15:38:21 +0000";
layers = (
{
anchors = (
{
name = bottom;
pos = (342,0);
},
{
name = top;
pos = (342,727);
}
);
layerId = master01;
shapes = (
{
closed = 1;
nodes = (
(341,344,l),
(341,344,l),
(343,344,l),
(342,344,l),
(639,727,l),
(641,727,l),
(342,343,l),
(341,343,l),
(46,727,l),
(47,727,l)
);
},
{
closed = 1;
nodes = (
(342,0,l),
(341,0,l),
(341,343,l),
(342,343,l)
);
}
);
width = 683;
},
{
anchors = (
{
name = bottom;
pos = (342,0);
},
{
name = top;
pos = (342,727);
}
);
associatedMasterId = master01;
layerId = "F2599E74-FD93-40D3-875E-70301C000C46";
name = foreground;
shapes = (
{
closed = 1;
nodes = (
(341,344,l),
(341,344,l),
(343,344,l),
(342,344,l),
(639,727,l),
(641,727,l),
(342,343,l),
(341,343,l),
(46,727,l),
(47,727,l)
);
},
{
closed = 1;
nodes = (
(342,0,l),
(341,0,l),
(341,343,l),
(342,343,l)
);
}
);
width = 683;
},
{
associatedMasterId = master01;
layerId = "388C25C2-B19E-40D2-9FAD-8C94F3E34B97";
name = "another one";
width = 291;
},
{
anchors = (
{
name = bottom;
pos = (358,0);
},
{
name = top;
pos = (362,727);
}
);
layerId = master02;
shapes = (
{
closed = 1;
nodes = (
(362,456,l),
(334,458,l),
(395,458,l),
(364,456,l),
(530,727,l),
(703,727,l),
(414,284,l),
(306,284,l),
(16,727,l),
(199,727,l)
);
},
{
closed = 1;
nodes = (
(439,0,l),
(279,0,l),
(279,397,l),
(439,397,l)
);
}
);
width = 719;
},
{
anchors = (
{
name = bottom;
pos = (359,0);
},
{
name = top;
pos = (363,727);
}
);
associatedMasterId = master02;
layerId = "E6789ABF-CE88-4401-AD3D-4F35BE209327";
name = foreground;
shapes = (
{
closed = 1;
nodes = (
(361,436,l),
(331,438,l),
(396,438,l),
(363,436,l),
(546,727,l),
(727,727,l),
(418,251,l),
(303,251,l),
(-7,727,l),
(181,727,l)
);
},
{
closed = 1;
nodes = (
(440,0,l),
(280,0,l),
(280,397,l),
(440,397,l)
);
}
);
width = 720;
},
{
anchors = (
{
name = bottom;
pos = (375,0);
},
{
name = top;
pos = (393,727);
}
);
layerId = master03;
shapes = (
{
closed = 1;
nodes = (
(392,555,l),
(355,557,l),
(430,557,l),
(393,555,l),
(452,727,l),
(757,727,l),
(460,149,l),
(289,149,l),
(-8,727,l),
(327,727,l)
);
},
{
closed = 1;
nodes = (
(527,0,l),
(222,0,l),
(222,398,l),
(527,398,l)
);
}
);
width = 749;
},
{
anchors = (
{
name = bottom;
pos = (375,0);
},
{
name = top;
pos = (393,727);
}
);
associatedMasterId = master03;
layerId = "519668DB-A3B6-488A-90DB-E3AA7E445C90";
name = foreground;
shapes = (
{
closed = 1;
nodes = (
(392,555,l),
(355,557,l),
(430,557,l),
(393,555,l),
(452,727,l),
(757,727,l),
(460,149,l),
(289,149,l),
(-8,727,l),
(327,727,l)
);
},
{
closed = 1;
nodes = (
(527,0,l),
(222,0,l),
(222,398,l),
(527,398,l)
);
}
);
width = 749;
}
);
unicode = 89;
},
{
glyphname = Z;
kernLeft = Z;
kernRight = Z;
lastChange = "2020-11-30 17:05:53 +0000";
layers = (
{
anchors = (
{
name = top;
pos = (326,727);
}
);
layerId = master01;
shapes = (
{
closed = 1;
nodes = (
(586,727,l),
(586,727,l),
(66,1,l),
(67,3,l),
(68,1,l),
(66,1,l),
(587,1,l),
(587,0,l),
(65,0,l),
(65,1,l),
(584,727,l),
(583,725,l),
(582,727,l),
(585,726,l),
(65,726,l),
(65,727,l)
);
}
);
width = 652;
},
{
anchors = (
{
name = top;
pos = (326,727);
}
);
associatedMasterId = master01;
layerId = "5E27F340-5BDF-4954-8F5C-657463EC180C";
name = foreground;
shapes = (
{
closed = 1;
nodes = (
(586,727,l),
(586,727,l),
(66,1,l),
(67,3,l),
(68,1,l),
(66,1,l),
(587,1,l),
(587,0,l),
(65,0,l),
(65,1,l),
(584,727,l),
(583,725,l),
(582,727,l),
(585,726,l),
(65,726,l),
(65,727,l)
);
}
);
width = 652;
},
{
associatedMasterId = master01;
layerId = "651C3687-3D2A-4937-BF9C-FA74CDB85317";
name = "another one";
width = 291;
},
{
anchors = (
{
name = top;
pos = (297,727);
}
);
layerId = master02;
shapes = (
{
closed = 1;
nodes = (
(568,727,l),
(568,591,l),
(193,109,l),
(227,189,l),
(227,123,l),
(160,146,l),
(572,146,l),
(572,0,l),
(26,0,l),
(26,126,l),
(402,607,l),
(377,538,l),
(377,605,l),
(399,582,l),
(41,582,l),
(41,727,l)
);
}
);
width = 591;
},
{
anchors = (
{
name = top;
pos = (297,727);
}
);
associatedMasterId = master02;
layerId = "71A9CA75-D9B4-460E-8066-5C4240095419";
name = foreground;
shapes = (
{
closed = 1;
nodes = (
(568,727,l),
(568,631,l),
(228,129,l),
(243,189,l),
(243,123,l),
(229,146,l),
(582,146,l),
(560,0,l),
(26,0,l),
(26,96,l),
(367,599,l),
(352,538,l),
(352,605,l),
(373,582,l),
(41,582,l),
(41,727,l)
);
}
);
width = 601;
},
{
anchors = (
{
name = top;
pos = (324,727);
}
);
layerId = master03;
shapes = (
{
closed = 1;
nodes = (
(609,727,l),
(609,533,l),
(362,206,l),
(417,326,l),
(417,221,l),
(364,274,l),
(618,274,l),
(591,0,l),
(14,0,l),
(14,195,l),
(285,522,l),
(224,401,l),
(224,506,l),
(294,454,l),
(14,454,l),
(14,727,l)
);
}
);
width = 622;
},
{
anchors = (
{
name = top;
pos = (324,727);
}
);
associatedMasterId = master03;
layerId = "D1F6386E-F816-474C-BF26-F57A6E760B1F";
name = foreground;
shapes = (
{
closed = 1;
nodes = (
(609,727,l),
(609,533,l),
(362,206,l),
(417,326,l),
(417,221,l),
(364,274,l),
(618,274,l),
(591,0,l),
(14,0,l),
(14,195,l),
(285,522,l),
(224,401,l),
(224,506,l),
(294,454,l),
(14,454,l),
(14,727,l)
);
}
);
width = 622;
}
);
unicode = 90;
},
{
glyphname = AE;
kernLeft = A;
kernRight = E;
lastChange = "2020-11-26 16:42:11 +0000";
layers = (
{
layerId = master01;
shapes = (
{
closed = 1;
nodes = (
(478,245,l),
(478,246,l),
(164,246,l),
(163,245,l)
);
},
{
closed = 1;
nodes = (
(882,1,l),
(478,1,l),
(478,372,l),
(722,372,l),
(722,373,l),
(478,373,l),
(478,726,l),
(863,726,l),
(863,727,l),
(425,727,l),
(30,0,l),
(31,0,l),
(426,726,l),
(477,726,l),
(477,0,l),
(882,0,l)
);
}
);
width = 937;
},
{
associatedMasterId = master01;
layerId = "3A6B3D74-1375-4DD5-A57D-D5250C856EBF";
name = foreground;
shapes = (
{
closed = 1;
nodes = (
(478,245,l),
(478,246,l),
(164,246,l),
(163,245,l)
);
},
{
closed = 1;
nodes = (
(882,1,l),
(478,1,l),
(478,372,l),
(722,372,l),
(722,373,l),
(478,373,l),
(478,726,l),
(863,726,l),
(863,727,l),
(425,727,l),
(30,0,l),
(31,0,l),
(426,726,l),
(477,726,l),
(477,0,l),
(882,0,l)
);
}
);
width = 937;
},
{
guides = (
{
angle = 66.3523;
pos = (581,575);
},
{
pos = (1445,1188);
}
);
layerId = master02;
shapes = (
{
closed = 1;
nodes = (
(528,146,l),
(528,279,l),
(198,279,l),
(146,146,l)
);
},
{
closed = 1;
nodes = (
(885,133,l),
(593,133,l),
(593,304,l),
(735,304,l),
(735,437,l),
(593,437,l),
(593,594,l),
(869,594,l),
(869,727,l),
(334,727,l),
(-4,0,l),
(173,0,l),
(433,594,l),
(437,594,l),
(437,0,l),
(885,0,l)
);
}
);
width = 903;
},
{
associatedMasterId = master02;
guides = (
{
angle = 66.3523;
pos = (581,575);
},
{
pos = (1445,1188);
}
);
layerId = "6C654198-75FA-4551-AB99-693736570BE0";
name = foreground;
shapes = (
{
closed = 1;
nodes = (
(528,146,l),
(528,279,l),
(198,279,l),
(146,146,l)
);
},
{
closed = 1;
nodes = (
(885,133,l),
(593,133,l),
(593,304,l),
(735,304,l),
(735,437,l),
(593,437,l),
(593,594,l),
(869,594,l),
(869,727,l),
(334,727,l),
(-4,0,l),
(173,0,l),
(433,594,l),
(437,594,l),
(437,0,l),
(885,0,l)
);
}
);
width = 903;
},
{
associatedMasterId = master02;
layerId = "658C8FC4-E286-4C00-A28E-792FB58B91E6";
name = bg;
shapes = (
{
closed = 1;
nodes = (
(520,161,l),
(520,284,l),
(190,284,l),
(138,161,l)
);
},
{
closed = 1;
nodes = (
(877,133,l),
(585,133,l),
(585,307,l),
(727,307,l),
(727,437,l),
(585,437,l),
(585,594,l),
(861,594,l),
(861,727,l),
(333,727,l),
(-4,0,l),
(173,0,l),
(425,576,l),
(429,576,l),
(429,0,l),
(877,0,l)
);
}
);
width = 895;
},
{
layerId = master03;
shapes = (
{
closed = 1;
nodes = (
(606,64,l),
(522,188,l),
(223,188,l),
(139,64,l)
);
},
{
closed = 1;
nodes = (
(934,213,l),
(700,213,l),
(700,278,l),
(848,278,l),
(848,459,l),
(700,459,l),
(700,514,l),
(934,514,l),
(934,727,l),
(306,727,l),
(-10,-1,l),
(284,0,l),
(418,366,l),
(420,366,l),
(420,0,l),
(934,0,l)
);
}
);
width = 956;
},
{
associatedMasterId = master03;
layerId = "AFFF2C90-637E-44A7-884A-B0CB4AF4A6FE";
name = foreground;
shapes = (
{
closed = 1;
nodes = (
(606,64,l),
(522,188,l),
(223,188,l),
(139,64,l)
);
},
{
closed = 1;
nodes = (
(934,213,l),
(700,213,l),
(700,278,l),
(848,278,l),
(848,459,l),
(700,459,l),
(700,514,l),
(934,514,l),
(934,727,l),
(306,727,l),
(-10,-1,l),
(284,0,l),
(418,366,l),
(420,366,l),
(420,0,l),
(934,0,l)
);
}
);
width = 956;
},
{
associatedMasterId = master03;
layerId = "C14C0239-2BA5-437D-BADE-8CCBEBA21F2D";
name = bg;
shapes = (
{
closed = 1;
nodes = (
(923,213,l),
(690,213,l),
(690,278,l),
(837,278,l),
(837,459,l),
(690,459,l),
(690,514,l),
(923,514,l),
(923,727,l),
(410,727,l),
(410,0,l),
(923,0,l)
);
}
);
width = 867;
}
);
unicode = 198;
},
{
color = (222,222,222,124);
glyphname = Eth;
kernRight = O;
lastChange = "2020-11-26 16:42:11 +0000";
layers = (
{
layerId = master01;
shapes = (
{
closed = 1;
nodes = (
(23,373,l),
(95,373,l),
(96,373,l),
(396,373,l),
(396,372,l),
(96,372,l),
(95,372,l),
(23,372,l)
);
},
{
pos = (10,0);
ref = D;
}
);
width = 716;
},
{
associatedMasterId = master01;
layerId = "CE63AB87-F189-44CE-8B41-BE6CDEA00914";
name = foreground;
shapes = (
{
closed = 1;
nodes = (
(23,373,l),
(95,373,l),
(96,373,l),
(396,373,l),
(396,372,l),
(96,372,l),
(95,372,l),
(23,372,l)
);
},
{
pos = (10,0);
ref = D;
}
);
width = 716;
},
{
layerId = master02;
shapes = (
{
closed = 1;
nodes = (
(12,441,l),
(82,441,l),
(208,433,l),
(388,433,l),
(388,310,l),
(208,310,l),
(82,302,l),
(12,302,l)
);
},
{
pos = (29,0);
ref = D;
}
);
width = 725;
},
{
associatedMasterId = master02;
layerId = "1F7258E1-B8C9-462B-932F-F40EE4F4888F";
name = foreground;
shapes = (
{
closed = 1;
nodes = (
(12,441,l),
(82,441,l),
(208,433,l),
(388,433,l),
(388,310,l),
(208,310,l),
(82,302,l),
(12,302,l)
);
},
{
pos = (29,0);
ref = D;
}
);
width = 725;
},
{
layerId = master03;
shapes = (
{
closed = 1;
nodes = (
(7,488,l),
(81,488,l),
(234,425,l),
(396,425,l),
(396,302,l),
(234,302,l),
(81,240,l),
(7,240,l)
);
},
{
pos = (24,0);
ref = D;
}
);
width = 771;
},
{
associatedMasterId = master03;
layerId = "B67F7DD0-FEC7-48EC-BD92-9AAD52602DD8";
name = foreground;
shapes = (
{
closed = 1;
nodes = (
(7,488,l),
(81,488,l),
(234,425,l),
(396,425,l),
(396,302,l),
(234,302,l),
(81,240,l),
(7,240,l)
);
},
{
pos = (24,0);
ref = D;
}
);
width = 771;
}
);
unicode = 208;
},
{
color = (172,172,172,128);
glyphname = Oslash;
kernLeft = O;
kernRight = O;
lastChange = "2020-11-26 16:42:11 +0000";
layers = (
{
anchors = (
{
name = top;
pos = (420,727);
}
);
guides = (
{
angle = 219.2389;
pos = (1586,1356);
},
{
angle = 233.8713;
pos = (1402,1531);
},
{
angle = 226.5266;
pos = (1197,1127);
},
{
angle = 46.5622;
pos = (450,341);
}
);
layerId = master01;
shapes = (
{
closed = 1;
nodes = (
(167,89,l),
(168,89,l),
(680,630,l),
(680,630,l),
(773,728,l),
(774,727,l),
(681,629,l),
(680,629,l),
(169,89,l),
(168,88,l),
(84,-1,l),
(83,0,l)
);
},
{
ref = O;
}
);
width = 854;
},
{
anchors = (
{
name = top;
pos = (420,727);
}
);
associatedMasterId = master01;
guides = (
{
angle = 219.2389;
pos = (1586,1356);
},
{
angle = 233.8713;
pos = (1402,1531);
},
{
angle = 226.5266;
pos = (1197,1127);
},
{
angle = 46.5622;
pos = (450,341);
}
);
layerId = "7853AF8E-2C85-41E2-8D81-4CE771059587";
name = foreground;
shapes = (
{
closed = 1;
nodes = (
(167,89,l),
(168,89,l),
(680,630,l),
(680,630,l),
(773,728,l),
(774,727,l),
(681,629,l),
(680,629,l),
(169,89,l),
(168,88,l),
(84,-1,l),
(83,0,l)
);
},
{
ref = O;
}
);
width = 854;
},
{
anchors = (
{
name = top;
pos = (406,727);
}
);
layerId = master02;
shapes = (
{
closed = 1;
nodes = (
(124,165,l),
(175,212,l),
(553,611,l),
(595,662,l),
(695,768,l),
(795,672,l),
(693,563,l),
(645,520,l),
(260,114,l),
(222,67,l),
(120,-42,l),
(19,54,l)
);
},
{
ref = O;
}
);
width = 815;
},
{
anchors = (
{
name = top;
pos = (406,727);
}
);
associatedMasterId = master02;
layerId = "9BB4F759-BC3D-42B8-83CE-EC1BF335F548";
name = foreground;
shapes = (
{
closed = 1;
nodes = (
(124,165,l),
(175,212,l),
(553,611,l),
(595,662,l),
(695,768,l),
(795,672,l),
(693,563,l),
(645,520,l),
(260,114,l),
(222,67,l),
(120,-42,l),
(19,54,l)
);
},
{
ref = O;
}
);
width = 815;
},
{
anchors = (
{
name = top;
pos = (407,727);
}
);
layerId = master03;
shapes = (
{
closed = 1;
nodes = (
(82,184,l),
(197,155,l),
(602,580,l),
(571,700,l),
(650,784,l),
(812,627,l),
(734,543,l),
(616,570,l),
(219,154,l),
(248,31,l),
(168,-56,l),
(6,102,l)
);
},
{
ref = O;
}
);
width = 817;
},
{
anchors = (
{
name = top;
pos = (407,727);
}
);
associatedMasterId = master03;
layerId = "33D009E8-FE26-4559-BD68-2491D700DB7D";
name = foreground;
shapes = (
{
closed = 1;
nodes = (
(82,184,l),
(197,155,l),
(602,580,l),
(571,700,l),
(650,784,l),
(812,627,l),
(734,543,l),
(616,570,l),
(219,154,l),
(248,31,l),
(168,-56,l),
(6,102,l)
);
},
{
ref = O;
}
);
width = 817;
}
);
unicode = 216;
},
{
color = (222,222,222,124);
glyphname = Thorn;
kernLeft = H;
lastChange = "2020-11-26 16:42:11 +0000";
layers = (
{
layerId = master01;
shapes = (
{
closed = 1;
nodes = (
(298,573,ls),
(441,573,o),
(523,479,o),
(523,364,cs),
(523,236,o),
(440,155,o),
(299,155,cs),
(86,155,l),
(86,154,l),
(299,154,ls),
(441,154,o),
(524,235,o),
(524,364,cs),
(524,480,o),
(441,574,o),
(298,574,cs),
(86,574,l),
(86,573,l)
);
},
{
closed = 1;
nodes = (
(85,0,l),
(86,0,l),
(86,727,l),
(85,727,l)
);
}
);
width = 586;
},
{
associatedMasterId = master01;
layerId = "03EC7699-1C0C-4452-9FB5-71F121331F25";
name = foreground;
shapes = (
{
closed = 1;
nodes = (
(298,573,ls),
(441,573,o),
(523,479,o),
(523,364,cs),
(523,236,o),
(440,155,o),
(299,155,cs),
(86,155,l),
(86,154,l),
(299,154,ls),
(441,154,o),
(524,235,o),
(524,364,cs),
(524,480,o),
(441,574,o),
(298,574,cs),
(86,574,l),
(86,573,l)
);
},
{
closed = 1;
nodes = (
(85,0,l),
(86,0,l),
(86,727,l),
(85,727,l)
);
}
);
width = 586;
},
{
layerId = master02;
shapes = (
{
closed = 1;
nodes = (
(310,467,ls),
(384,467,o),
(418,426,o),
(418,365,cs),
(418,304,o),
(383,264,o),
(310,264,c),
(152,264,l),
(152,130,l),
(315,130,l),
(479,130,o),
(575,220,o),
(575,364,cs),
(575,511,o),
(479,601,o),
(314,601,cs),
(152,601,l),
(152,467,l)
);
},
{
closed = 1;
nodes = (
(41,0,l),
(200,0,l),
(200,727,l),
(41,727,l)
);
}
);
width = 594;
},
{
associatedMasterId = master02;
layerId = "22ADA3EF-352E-453D-AB5D-66BD74DF972C";
name = foreground;
shapes = (
{
closed = 1;
nodes = (
(310,467,ls),
(384,467,o),
(418,426,o),
(418,365,cs),
(418,304,o),
(383,264,o),
(310,264,c),
(152,264,l),
(152,130,l),
(315,130,l),
(479,130,o),
(575,220,o),
(575,364,cs),
(575,511,o),
(479,601,o),
(314,601,cs),
(152,601,l),
(152,467,l)
);
},
{
closed = 1;
nodes = (
(41,0,l),
(200,0,l),
(200,727,l),
(41,727,l)
);
}
);
width = 594;
},
{
layerId = master03;
shapes = (
{
closed = 1;
nodes = (
(359,422,ls),
(403,422,o),
(418,403,o),
(418,369,cs),
(418,334,o),
(403,313,o),
(358,313,cs),
(241,313,l),
(241,94,l),
(400,94,ls),
(585,94,o),
(696,198,o),
(696,366,cs),
(696,545,o),
(585,641,o),
(399,641,cs),
(241,641,l),
(241,422,l)
);
},
{
closed = 1;
nodes = (
(20,0,l),
(317,0,l),
(317,727,l),
(20,727,l)
);
}
);
width = 709;
},
{
associatedMasterId = master03;
layerId = "834E823A-AC4C-41D8-A0CD-D0937E68BF2D";
name = foreground;
shapes = (
{
closed = 1;
nodes = (
(359,422,ls),
(403,422,o),
(418,403,o),
(418,369,cs),
(418,334,o),
(403,313,o),
(358,313,cs),
(241,313,l),
(241,94,l),
(400,94,ls),
(585,94,o),
(696,198,o),
(696,366,cs),
(696,545,o),
(585,641,o),
(399,641,cs),
(241,641,l),
(241,422,l)
);
},
{
closed = 1;
nodes = (
(20,0,l),
(317,0,l),
(317,727,l),
(20,727,l)
);
}
);
width = 709;
}
);
unicode = 222;
},
{
color = (172,172,172,128);
glyphname = IJ;
kernLeft = U;
kernRight = U;
lastChange = "2020-11-26 16:42:11 +0000";
layers = (
{
layerId = master01;
shapes = (
{
closed = 1;
nodes = (
(91,258,l),
(90,258,l),
(90,727,l),
(91,727,l)
);
},
{
closed = 1;
nodes = (
(466,216,ls),
(466,70,o),
(391,-14,o),
(259,-14,cs),
(154,-14,o),
(85,50,o),
(61,170,c),
(62,170,l),
(86,51,o),
(154,-13,o),
(259,-13,cs),
(391,-13,o),
(465,70,o),
(465,216,cs),
(465,727,l),
(466,727,l)
);
}
);
width = 552;
},
{
associatedMasterId = master01;
layerId = "BF944395-BB40-4DA7-B64E-767ABBC22F4A";
name = foreground;
shapes = (
{
closed = 1;
nodes = (
(91,258,l),
(90,258,l),
(90,727,l),
(91,727,l)
);
},
{
closed = 1;
nodes = (
(466,216,ls),
(466,70,o),
(391,-14,o),
(259,-14,cs),
(154,-14,o),
(85,50,o),
(61,170,c),
(62,170,l),
(86,51,o),
(154,-13,o),
(259,-13,cs),
(391,-13,o),
(465,70,o),
(465,216,cs),
(465,727,l),
(466,727,l)
);
}
);
width = 552;
},
{
layerId = master02;
shapes = (
{
closed = 1;
nodes = (
(186,275,l),
(39,275,l),
(39,727,l),
(186,727,l)
);
},
{
closed = 1;
nodes = (
(513,242,ls),
(513,72,o),
(411,-15,o),
(259,-15,cs),
(122,-15,o),
(37,55,o),
(16,188,c),
(161,218,l),
(172,159,o),
(199,129,o),
(252,129,cs),
(321,129,o),
(354,167,o),
(354,242,cs),
(354,727,l),
(513,727,l)
);
}
);
width = 549;
},
{
associatedMasterId = master02;
layerId = "E4F66CD4-38C3-4194-8BB5-F4CC7B18507A";
name = foreground;
shapes = (
{
closed = 1;
nodes = (
(186,275,l),
(39,275,l),
(39,727,l),
(186,727,l)
);
},
{
closed = 1;
nodes = (
(513,242,ls),
(513,72,o),
(411,-15,o),
(259,-15,cs),
(122,-15,o),
(37,55,o),
(16,188,c),
(161,218,l),
(172,159,o),
(199,129,o),
(252,129,cs),
(321,129,o),
(354,167,o),
(354,242,cs),
(354,727,l),
(513,727,l)
);
}
);
width = 549;
},
{
layerId = master03;
shapes = (
{
closed = 1;
nodes = (
(215,302,l),
(12,302,l),
(12,727,l),
(215,727,l)
);
},
{
closed = 1;
nodes = (
(579,245,ls),
(579,70,o),
(446,-20,o),
(286,-20,cs),
(136,-20,o),
(31,47,o),
(15,215,c),
(205,276,l),
(205,247,o),
(221,235,o),
(241,235,cs),
(268,235,o),
(282,250,o),
(282,277,cs),
(282,727,l),
(579,727,l)
);
}
);
width = 594;
},
{
associatedMasterId = master03;
layerId = "060DE64D-1B3E-4CF3-BD67-2F87E2927F60";
name = foreground;
shapes = (
{
closed = 1;
nodes = (
(215,302,l),
(12,302,l),
(12,727,l),
(215,727,l)
);
},
{
closed = 1;
nodes = (
(579,245,ls),
(579,70,o),
(446,-20,o),
(286,-20,cs),
(136,-20,o),
(31,47,o),
(15,215,c),
(205,276,l),
(205,247,o),
(221,235,o),
(241,235,cs),
(268,235,o),
(282,250,o),
(282,277,cs),
(282,727,l),
(579,727,l)
);
}
);
width = 594;
}
);
unicode = 306;
},
{
color = (222,222,222,124);
glyphname = Lslash;
kernRight = L;
lastChange = "2020-11-26 16:42:11 +0000";
layers = (
{
guides = (
{
angle = 28.8266;
pos = (-72,665);
},
{
angle = 208.7475;
pos = (608,745);
}
);
layerId = master01;
shapes = (
{
closed = 1;
nodes = (
(367,467,l),
(367,468,l),
(19,276,l),
(19,275,l)
);
},
{
pos = (15,0);
ref = L;
}
);
width = 550;
},
{
associatedMasterId = master01;
guides = (
{
angle = 28.8266;
pos = (-72,665);
},
{
angle = 208.7475;
pos = (608,745);
}
);
layerId = "B9FADF92-A686-4F95-8CDC-294D24EE2FBA";
name = foreground;
shapes = (
{
closed = 1;
nodes = (
(367,467,l),
(367,468,l),
(19,276,l),
(19,275,l)
);
},
{
pos = (15,0);
ref = L;
}
);
width = 550;
},
{
layerId = master02;
shapes = (
{
closed = 1;
nodes = (
(391,389,l),
(391,549,l),
(15,357,l),
(15,196,l)
);
},
{
pos = (15,0);
ref = L;
}
);
width = 551;
},
{
associatedMasterId = master02;
layerId = "F3784429-A78B-45CF-B43C-73D283D65347";
name = foreground;
shapes = (
{
closed = 1;
nodes = (
(391,389,l),
(391,549,l),
(15,357,l),
(15,196,l)
);
},
{
pos = (15,0);
ref = L;
}
);
width = 551;
},
{
guides = (
{
angle = 27.1419;
pos = (375,584);
}
);
layerId = master03;
shapes = (
{
closed = 1;
nodes = (
(442,379,l),
(442,609,l),
(3,383,l),
(3,152,l)
);
},
{
pos = (8,0);
ref = L;
}
);
width = 548;
},
{
associatedMasterId = master03;
guides = (
{
angle = 27.1419;
pos = (375,584);
}
);
layerId = "3F795A2E-4785-4EFC-981C-2547EC939F1E";
name = foreground;
shapes = (
{
closed = 1;
nodes = (
(442,379,l),
(442,609,l),
(3,383,l),
(3,152,l)
);
},
{
pos = (8,0);
ref = L;
}
);
width = 548;
}
);
note = "just draw this";
unicode = 321;
},
{
glyphname = OE;
kernLeft = O;
kernRight = E;
lastChange = "2020-11-26 16:42:11 +0000";
layers = (
{
layerId = master01;
shapes = (
{
closed = 1;
nodes = (
(212,-14,o),
(74,133,o),
(74,363,cs),
(74,593,o),
(211,741,o),
(420,741,cs),
(628,741,o),
(768,593,o),
(768,363,cs),
(768,133,o),
(628,-14,o),
(420,-14,cs)
);
},
{
closed = 1;
nodes = (
(620,-15,o),
(756,120,o),
(768,327,c),
(769,327,l),
(769,400,l),
(768,400,l),
(754,607,o),
(620,742,o),
(420,742,cs),
(211,742,o),
(73,593,o),
(73,363,cs),
(73,133,o),
(212,-15,o),
(420,-15,cs)
);
},
{
pos = (683,0);
ref = E;
}
);
width = 1256;
},
{
associatedMasterId = master01;
layerId = "3EFBC2E8-0CB4-4F44-B143-9067E401A9B3";
name = foreground;
shapes = (
{
closed = 1;
nodes = (
(212,-14,o),
(74,133,o),
(74,363,cs),
(74,593,o),
(211,741,o),
(420,741,cs),
(628,741,o),
(768,593,o),
(768,363,cs),
(768,133,o),
(628,-14,o),
(420,-14,cs)
);
},
{
closed = 1;
nodes = (
(620,-15,o),
(756,120,o),
(768,327,c),
(769,327,l),
(769,400,l),
(768,400,l),
(754,607,o),
(620,742,o),
(420,742,cs),
(211,742,o),
(73,593,o),
(73,363,cs),
(73,133,o),
(212,-15,o),
(420,-15,cs)
);
},
{
pos = (683,0);
ref = E;
}
);
width = 1256;
},
{
layerId = master02;
shapes = (
{
closed = 1;
nodes = (
(275,143,o),
(197,228,o),
(197,363,cs),
(197,497,o),
(275,584,o),
(405,584,cs),
(533,584,o),
(616,497,o),
(616,363,cs),
(616,228,o),
(533,143,o),
(405,143,cs)
);
},
{
closed = 1;
nodes = (
(474,-15,o),
(559,20,o),
(611,79,c),
(670,79,l),
(670,647,l),
(611,647,l),
(559,707,o),
(474,742,o),
(377,742,cs),
(171,742,o),
(27,586,o),
(27,363,cs),
(27,139,o),
(171,-15,o),
(377,-15,cs)
);
},
{
pos = (575,0);
ref = E;
}
);
width = 1133;
},
{
associatedMasterId = master02;
layerId = "2E6E6074-1D85-4BB1-A028-A4B4E6508348";
name = foreground;
shapes = (
{
closed = 1;
nodes = (
(275,143,o),
(197,228,o),
(197,363,cs),
(197,497,o),
(275,584,o),
(405,584,cs),
(533,584,o),
(616,497,o),
(616,363,cs),
(616,228,o),
(533,143,o),
(405,143,cs)
);
},
{
closed = 1;
nodes = (
(474,-15,o),
(559,20,o),
(611,79,c),
(670,79,l),
(670,647,l),
(611,647,l),
(559,707,o),
(474,742,o),
(377,742,cs),
(171,742,o),
(27,586,o),
(27,363,cs),
(27,139,o),
(171,-15,o),
(377,-15,cs)
);
},
{
pos = (575,0);
ref = E;
}
);
width = 1133;
},
{
layerId = master03;
shapes = (
{
closed = 1;
nodes = (
(346,272,o),
(312,308,o),
(312,363,cs),
(312,418,o),
(346,455,o),
(402,455,cs),
(458,455,o),
(495,418,o),
(495,363,cs),
(495,308,o),
(459,272,o),
(402,272,cs)
);
},
{
closed = 1;
nodes = (
(387,-15,o),
(448,10,o),
(490,55,c),
(551,55,l),
(551,672,l),
(490,672,l),
(447,717,o),
(387,742,o),
(317,742,cs),
(139,742,o),
(13,603,o),
(12,363,cs),
(12,122,o),
(139,-15,o),
(317,-15,cs)
);
},
{
pos = (475,1);
ref = E;
}
);
width = 1031;
},
{
associatedMasterId = master03;
layerId = "7DB40E9F-AB86-46A9-A1C6-98972266BE74";
name = foreground;
shapes = (
{
closed = 1;
nodes = (
(346,272,o),
(312,308,o),
(312,363,cs),
(312,418,o),
(346,455,o),
(402,455,cs),
(458,455,o),
(495,418,o),
(495,363,cs),
(495,308,o),
(459,272,o),
(402,272,cs)
);
},
{
closed = 1;
nodes = (
(387,-15,o),
(448,10,o),
(490,55,c),
(551,55,l),
(551,672,l),
(490,672,l),
(447,717,o),
(387,742,o),
(317,742,cs),
(139,742,o),
(13,603,o),
(12,363,cs),
(12,122,o),
(139,-15,o),
(317,-15,cs)
);
},
{
pos = (475,1);
ref = E;
}
);
width = 1031;
}
);
unicode = 338;
},
{
glyphname = Germandbls;
kernLeft = Germandbls;
kernRight = Germandbls;
lastChange = "2020-11-26 16:42:11 +0000";
layers = (
{
background = {
shapes = (
{
closed = 1;
nodes = (
(352,0,ls),
(495,0,o),
(575,79,o),
(575,210,cs),
(575,354,o),
(464,415,o),
(326,415,cs),
(224,415,l),
(224,416,l),
(521,727,l),
(521,727,l),
(253,727,ls),
(130,727,o),
(60,654,o),
(60,522,cs),
(60,0,l),
(61,0,l),
(61,522,ls),
(61,653,o),
(131,726,o),
(253,726,cs),
(519,726,l),
(519,726,l),
(222,415,l),
(222,414,l),
(326,414,ls),
(463,414,o),
(574,353,o),
(574,210,cs),
(574,80,o),
(494,1,o),
(352,1,cs),
(221,1,l),
(221,0,l)
);
}
);
};
layerId = master01;
shapes = (
{
closed = 1;
nodes = (
(372,0,ls),
(515,0,o),
(595,79,o),
(595,210,cs),
(595,354,o),
(484,415,o),
(346,415,cs),
(243,415,l),
(244,415,l),
(244,416,l),
(541,727,l),
(541,727,l),
(273,727,ls),
(150,727,o),
(80,654,o),
(80,522,cs),
(80,0,l),
(81,0,l),
(81,522,ls),
(81,653,o),
(151,726,o),
(273,726,cs),
(539,726,l),
(539,726,l),
(242,415,l),
(242,414,l),
(346,414,ls),
(483,414,o),
(594,353,o),
(594,210,cs),
(594,80,o),
(514,1,o),
(372,1,cs),
(241,1,l),
(241,0,l)
);
}
);
width = 660;
},
{
associatedMasterId = master01;
layerId = "FD65D4DD-F894-46BA-AAA2-36C96191E66D";
name = foreground;
shapes = (
{
closed = 1;
nodes = (
(372,0,ls),
(515,0,o),
(595,79,o),
(595,210,cs),
(595,354,o),
(484,415,o),
(346,415,cs),
(243,415,l),
(244,415,l),
(244,416,l),
(541,727,l),
(541,727,l),
(273,727,ls),
(150,727,o),
(80,654,o),
(80,522,cs),
(80,0,l),
(81,0,l),
(81,522,ls),
(81,653,o),
(151,726,o),
(273,726,cs),
(539,726,l),
(539,726,l),
(242,415,l),
(242,414,l),
(346,414,ls),
(483,414,o),
(594,353,o),
(594,210,cs),
(594,80,o),
(514,1,o),
(372,1,cs),
(241,1,l),
(241,0,l)
);
}
);
width = 660;
},
{
layerId = master02;
shapes = (
{
closed = 1;
nodes = (
(351,0,ls),
(514,0,o),
(605,88,o),
(605,231,cs),
(605,349,o),
(529,446,o),
(382,446,cs),
(325,446,l),
(420,430,l),
(420,449,l),
(577,637,l),
(577,727,l),
(231,727,ls),
(103,727,o),
(36,646,o),
(36,533,cs),
(36,0,l),
(194,0,l),
(194,524,ls),
(194,571,o),
(215,589,o),
(260,589,cs),
(389,589,l),
(389,586,l),
(251,426,l),
(251,340,l),
(336,340,ls),
(426,340,o),
(459,300,o),
(459,238,cs),
(459,176,o),
(426,136,o),
(336,136,cs),
(251,136,l),
(251,0,l)
);
}
);
width = 627;
},
{
associatedMasterId = master02;
layerId = "0911544F-375A-4983-9229-AB61E4B2C637";
name = foreground;
shapes = (
{
closed = 1;
nodes = (
(351,0,ls),
(514,0,o),
(605,88,o),
(605,231,cs),
(605,349,o),
(529,446,o),
(382,446,cs),
(325,446,l),
(420,430,l),
(420,449,l),
(577,637,l),
(577,727,l),
(231,727,ls),
(103,727,o),
(36,646,o),
(36,533,cs),
(36,0,l),
(194,0,l),
(194,524,ls),
(194,571,o),
(215,589,o),
(260,589,cs),
(389,589,l),
(389,586,l),
(251,426,l),
(251,340,l),
(336,340,ls),
(426,340,o),
(459,300,o),
(459,238,cs),
(459,176,o),
(426,136,o),
(336,136,cs),
(251,136,l),
(251,0,l)
);
}
);
width = 627;
},
{
layerId = master03;
shapes = (
{
closed = 1;
nodes = (
(459,0,ls),
(629,0,o),
(724,82,o),
(724,236,cs),
(724,360,o),
(645,450,o),
(531,450,cs),
(481,450,l),
(560,433,l),
(560,454,l),
(700,583,l),
(700,727,l),
(221,727,ls),
(97,727,o),
(17,654,o),
(17,523,cs),
(17,0,l),
(314,0,l),
(314,488,ls),
(314,503,o),
(321,514,o),
(337,514,cs),
(440,514,l),
(440,509,l),
(354,430,l),
(354,317,l),
(421,317,ls),
(448,317,o),
(461,304,o),
(461,280,cs),
(461,257,o),
(448,243,o),
(421,243,cs),
(354,243,l),
(354,0,l)
);
}
);
width = 731;
},
{
associatedMasterId = master03;
layerId = "DAB94487-3CD2-4121-828D-A02B3B920F6A";
name = foreground;
shapes = (
{
closed = 1;
nodes = (
(459,0,ls),
(629,0,o),
(724,82,o),
(724,236,cs),
(724,360,o),
(645,450,o),
(531,450,cs),
(481,450,l),
(560,433,l),
(560,454,l),
(700,583,l),
(700,727,l),
(221,727,ls),
(97,727,o),
(17,654,o),
(17,523,cs),
(17,0,l),
(314,0,l),
(314,488,ls),
(314,503,o),
(321,514,o),
(337,514,cs),
(440,514,l),
(440,509,l),
(354,430,l),
(354,317,l),
(421,317,ls),
(448,317,o),
(461,304,o),
(461,280,cs),
(461,257,o),
(448,243,o),
(421,243,cs),
(354,243,l),
(354,0,l)
);
}
);
width = 731;
},
{
associatedMasterId = master03;
layerId = "826C554B-082E-49FA-B6D1-B56B5D5D4EF5";
name = bg;
shapes = (
{
closed = 1;
nodes = (
(459,0,ls),
(629,0,o),
(724,80,o),
(724,239,cs),
(724,342,o),
(665,428,o),
(560,448,c),
(560,454,l),
(700,583,l),
(700,727,l),
(221,727,ls),
(97,727,o),
(17,654,o),
(17,523,cs),
(17,0,l),
(314,0,l),
(314,488,ls),
(314,503,o),
(321,514,o),
(337,514,cs),
(440,514,l),
(440,509,l),
(354,430,l),
(354,317,l),
(421,317,ls),
(448,317,o),
(461,304,o),
(461,280,cs),
(461,257,o),
(448,243,o),
(421,243,cs),
(354,243,l),
(354,0,l)
);
}
);
width = 613;
}
);
unicode = 7838;
},
{
color = (0,242,242,64);
glyphname = Delta;
kernLeft = A;
kernRight = A;
lastChange = "2020-11-26 16:42:11 +0000";
layers = (
{
guides = (
{
angle = 67.5426;
pos = (319,727);
}
);
layerId = master01;
shapes = (
{
closed = 1;
nodes = (
(311,725,l),
(610,1,l),
(610,1,l),
(11,1,l),
(11,1,l),
(310,725,l)
);
},
{
closed = 1;
nodes = (
(10,1,l),
(10,0,l),
(611,0,l),
(611,1,l),
(311,727,l),
(310,727,l)
);
}
);
width = 620;
},
{
associatedMasterId = master01;
guides = (
{
angle = 67.5426;
pos = (319,727);
}
);
layerId = "DD5F0D0A-91FC-4BA0-9286-1A9555163F22";
name = foreground;
shapes = (
{
closed = 1;
nodes = (
(311,725,l),
(610,1,l),
(610,1,l),
(11,1,l),
(11,1,l),
(310,725,l)
);
},
{
closed = 1;
nodes = (
(10,1,l),
(10,0,l),
(611,0,l),
(611,1,l),
(311,727,l),
(310,727,l)
);
}
);
width = 620;
},
{
guides = (
{
pos = (1285,203);
}
);
layerId = master02;
shapes = (
{
closed = 1;
nodes = (
(312,476,l),
(436,142,l),
(436,137,l),
(181,137,l),
(181,142,l),
(306,476,l)
);
},
{
closed = 1;
nodes = (
(13,100,l),
(13,0,l),
(608,0,l),
(608,100,l),
(364,727,l),
(257,727,l)
);
}
);
width = 620;
},
{
associatedMasterId = master02;
guides = (
{
pos = (1285,203);
}
);
layerId = "FB68A70E-E576-49C0-871D-B854B14B691D";
name = foreground;
shapes = (
{
closed = 1;
nodes = (
(312,476,l),
(436,142,l),
(436,137,l),
(181,137,l),
(181,142,l),
(306,476,l)
);
},
{
closed = 1;
nodes = (
(13,100,l),
(13,0,l),
(608,0,l),
(608,100,l),
(364,727,l),
(257,727,l)
);
}
);
width = 620;
},
{
guides = (
{
angle = 69.4771;
pos = (198,885);
},
{
angle = 110.5229;
pos = (1042,885);
}
);
layerId = master03;
shapes = (
{
closed = 1;
nodes = (
(309,369,l),
(360,220,l),
(360,219,l),
(255,219,l),
(255,220,l),
(307,369,l)
);
},
{
closed = 1;
nodes = (
(15,181,l),
(15,0,l),
(606,0,l),
(606,181,l),
(415,727,l),
(206,727,l)
);
}
);
width = 620;
},
{
associatedMasterId = master03;
guides = (
{
angle = 69.4771;
pos = (198,885);
},
{
angle = 110.5229;
pos = (1042,885);
}
);
layerId = "E528DFE3-467F-4F08-86CE-033EB8B275FD";
name = foreground;
shapes = (
{
closed = 1;
nodes = (
(309,369,l),
(360,220,l),
(360,219,l),
(255,219,l),
(255,220,l),
(307,369,l)
);
},
{
closed = 1;
nodes = (
(15,181,l),
(15,0,l),
(606,0,l),
(606,181,l),
(415,727,l),
(206,727,l)
);
}
);
width = 620;
}
);
unicode = 916;
},
{
color = (0,242,242,64);
glyphname = Omega;
lastChange = "2020-11-26 16:42:11 +0000";
layers = (
{
layerId = master01;
shapes = (
{
closed = 1;
nodes = (
(626,742,o),
(765,606,o),
(765,389,c),
(765,137,o),
(557,64,o),
(507,52,c),
(507,1,l),
(774,1,l),
(774,0,l),
(506,0,l),
(506,52,l),
(555,65,o),
(764,138,o),
(764,389,c),
(764,605,o),
(625,741,o),
(421,741,c),
(216,741,o),
(78,605,o),
(78,389,c),
(78,138,o),
(287,65,o),
(336,52,c),
(336,0,l),
(68,0,l),
(68,1,l),
(335,1,l),
(335,52,l),
(285,64,o),
(77,137,o),
(77,389,c),
(77,606,o),
(216,742,o),
(421,742,c)
);
}
);
width = 842;
},
{
associatedMasterId = master01;
layerId = "81123998-7EDE-4CC0-AC61-DFBF9EC628EF";
name = foreground;
shapes = (
{
closed = 1;
nodes = (
(626,742,o),
(765,606,o),
(765,389,c),
(765,137,o),
(557,64,o),
(507,52,c),
(507,1,l),
(774,1,l),
(774,0,l),
(506,0,l),
(506,52,l),
(555,65,o),
(764,138,o),
(764,389,c),
(764,605,o),
(625,741,o),
(421,741,c),
(216,741,o),
(78,605,o),
(78,389,c),
(78,138,o),
(287,65,o),
(336,52,c),
(336,0,l),
(68,0,l),
(68,1,l),
(335,1,l),
(335,52,l),
(285,64,o),
(77,137,o),
(77,389,c),
(77,606,o),
(216,742,o),
(421,742,c)
);
}
);
width = 842;
},
{
layerId = master02;
shapes = (
{
closed = 1;
nodes = (
(609,742,o),
(759,614,o),
(759,400,c),
(758,212,o),
(613,138,o),
(612,138,c),
(612,133,l),
(768,133,l),
(768,0,l),
(455,0,l),
(455,188,l),
(461,190,o),
(600,236,o),
(600,388,c),
(601,521,o),
(520,596,o),
(402,596,c),
(285,596,o),
(205,521,o),
(205,388,c),
(205,236,o),
(344,190,o),
(350,188,c),
(350,0,l),
(36,0,l),
(36,133,l),
(193,133,l),
(193,138,l),
(193,138,o),
(46,212,o),
(46,400,c),
(46,614,o),
(196,742,o),
(402,742,c)
);
}
);
width = 804;
},
{
associatedMasterId = master02;
layerId = "B420DB2B-4172-4ADE-B723-4CB722B21A07";
name = foreground;
shapes = (
{
closed = 1;
nodes = (
(609,742,o),
(759,614,o),
(759,400,c),
(758,212,o),
(613,138,o),
(612,138,c),
(612,133,l),
(768,133,l),
(768,0,l),
(455,0,l),
(455,188,l),
(461,190,o),
(600,236,o),
(600,388,c),
(601,521,o),
(520,596,o),
(402,596,c),
(285,596,o),
(205,521,o),
(205,388,c),
(205,236,o),
(344,190,o),
(350,188,c),
(350,0,l),
(36,0,l),
(36,133,l),
(193,133,l),
(193,138,l),
(193,138,o),
(46,212,o),
(46,400,c),
(46,614,o),
(196,742,o),
(402,742,c)
);
}
);
width = 804;
},
{
layerId = master03;
shapes = (
{
closed = 1;
nodes = (
(586,747,o),
(744,631,o),
(744,423,c),
(744,248,o),
(595,180,o),
(595,180,c),
(595,174,l),
(738,174,l),
(738,0,l),
(400,0,l),
(400,331,l),
(445,344,o),
(464,370,o),
(464,413,cs),
(464,462,o),
(431,496,o),
(381,496,cs),
(332,496,o),
(301,462,o),
(301,413,cs),
(301,371,o),
(319,344,o),
(362,332,c),
(362,0,l),
(24,0,l),
(24,174,l),
(159,174,l),
(159,180,l),
(159,180,o),
(17,248,o),
(17,423,c),
(17,631,o),
(170,747,o),
(378,747,cs)
);
}
);
width = 761;
},
{
associatedMasterId = master03;
layerId = "86864676-4850-4EA5-AEF9-2925731CB41E";
name = foreground;
shapes = (
{
closed = 1;
nodes = (
(586,747,o),
(744,631,o),
(744,423,c),
(744,248,o),
(595,180,o),
(595,180,c),
(595,174,l),
(738,174,l),
(738,0,l),
(400,0,l),
(400,331,l),
(445,344,o),
(464,370,o),
(464,413,cs),
(464,462,o),
(431,496,o),
(381,496,cs),
(332,496,o),
(301,462,o),
(301,413,cs),
(301,371,o),
(319,344,o),
(362,332,c),
(362,0,l),
(24,0,l),
(24,174,l),
(159,174,l),
(159,180,l),
(159,180,o),
(17,248,o),
(17,423,c),
(17,631,o),
(170,747,o),
(378,747,cs)
);
}
);
width = 761;
}
);
unicode = 937;
},
{
glyphname = a;
kernLeft = a;
kernRight = a;
lastChange = "2020-12-08 18:26:09 +0000";
layers = (
{
anchors = (
{
name = bottom;
pos = (269,-11);
},
{
name = ogonek;
pos = (470,0);
},
{
name = top;
pos = (285,509);
}
);
background = {
shapes = (
{
closed = 1;
nodes = (
(120,478,o),
(182,521,o),
(275,521,cs),
(387,521,o),
(460,450,o),
(460,316,cs),
(460,0,l),
(459,0,l),
(460,203,l),
(459,203,l),
(452,61,o),
(346,-11,o),
(221,-11,cs),
(102,-11,o),
(41,53,o),
(41,143,cs),
(41,230,o),
(98,296,o),
(237,296,cs),
(459,296,l),
(459,316,ls),
(459,450,o),
(387,520,o),
(275,520,cs),
(182,520,o),
(120,477,o),
(89,395,c),
(88,396,l)
);
},
{
closed = 1;
nodes = (
(351,-10,o),
(459,67,o),
(459,220,c),
(459,295,l),
(237,295,ls),
(99,295,o),
(42,230,o),
(42,143,cs),
(42,53,o),
(103,-10,o),
(221,-10,cs)
);
},
{
closed = 1;
nodes = (
(117,422,l),
(157,489,o),
(218,520,o),
(295,520,cs),
(417,520,o),
(489,445,o),
(489,316,cs),
(489,296,l),
(257,296,ls),
(132,296,o),
(61,241,o),
(61,143,cs),
(61,47,o),
(131,-11,o),
(248,-11,c),
(390,-11,o),
(484,79,o),
(489,218,c),
(489,218,l),
(489,0,l),
(490,0,l),
(490,316,ls),
(490,445,o),
(418,521,o),
(295,521,cs),
(218,521,o),
(156,490,o),
(116,423,c)
);
},
{
closed = 1;
nodes = (
(132,-10,o),
(62,48,o),
(62,143,cs),
(62,240,o),
(132,295,o),
(257,295,cs),
(489,295,l),
(489,235,l),
(489,86,o),
(396,-10,o),
(248,-10,c)
);
}
);
};
layerId = master01;
shapes = (
{
closed = 1;
nodes = (
(104,459,o),
(172,520,o),
(286,520,cs),
(401,520,o),
(469,445,o),
(469,316,cs),
(469,291,l),
(247,281,ls),
(122,275,o),
(61,233,o),
(61,132,cs),
(61,43,o),
(131,-11,o),
(248,-11,cs),
(378,-11,o),
(464,72,o),
(469,203,c),
(469,203,l),
(469,0,l),
(470,0,l),
(470,316,ls),
(470,446,o),
(402,521,o),
(286,521,cs),
(171,521,o),
(103,459,o),
(92,362,c),
(93,362,l)
);
},
{
closed = 1;
nodes = (
(132,-10,o),
(62,43,o),
(62,132,cs),
(62,232,o),
(122,274,o),
(247,280,cs),
(469,290,l),
(469,220,l),
(469,80,o),
(384,-10,o),
(248,-10,cs)
);
}
);
width = 548;
},
{
anchors = (
{
name = bottom;
pos = (269,-11);
},
{
name = ogonek;
pos = (470,0);
},
{
name = top;
pos = (285,509);
}
);
associatedMasterId = master01;
layerId = "666A1881-5447-463A-9AC6-3383FF55443A";
name = foreground;
shapes = (
{
closed = 1;
nodes = (
(145,489,o),
(207,520,o),
(285,520,cs),
(401,520,o),
(469,445,o),
(469,316,cs),
(469,291,l),
(257,291,ls),
(132,291,o),
(61,237,o),
(61,144,cs),
(61,47,o),
(131,-11,o),
(248,-11,cs),
(378,-11,o),
(464,72,o),
(469,203,c),
(469,203,l),
(469,0,l),
(470,0,l),
(470,316,ls),
(470,445,o),
(401,521,o),
(285,521,cs),
(206,521,o),
(144,490,o),
(104,423,c),
(105,422,l)
);
},
{
closed = 1;
nodes = (
(132,-10,o),
(62,48,o),
(62,144,cs),
(62,236,o),
(132,290,o),
(257,290,cs),
(469,290,l),
(469,220,l),
(469,80,o),
(384,-10,o),
(248,-10,cs)
);
}
);
width = 548;
},
{
associatedMasterId = master01;
layerId = "347DCFF8-2B69-4D95-90B7-6E67EB01F6A1";
name = "another one";
shapes = (
{
closed = 1;
nodes = (
(131,485,o),
(190,521,o),
(283,521,cs),
(390,521,o),
(460,465,o),
(460,331,cs),
(460,0,l),
(459,0,l),
(459,193,l),
(459,193,l),
(452,57,o),
(350,-11,o),
(234,-11,cs),
(114,-11,o),
(53,51,o),
(53,141,cs),
(53,230,o),
(108,296,o),
(244,296,cs),
(459,296,l),
(459,331,ls),
(459,464,o),
(390,520,o),
(283,520,cs),
(191,520,o),
(131,484,o),
(101,405,c),
(100,406,l)
);
},
{
closed = 1;
nodes = (
(355,-10,o),
(459,63,o),
(459,210,c),
(459,295,l),
(244,295,ls),
(109,295,o),
(54,230,o),
(54,141,cs),
(54,52,o),
(115,-10,o),
(234,-10,cs)
);
}
);
width = 530;
},
{
anchors = (
{
name = bottom;
pos = (277,-9);
},
{
name = ogonek;
pos = (513,0);
},
{
name = top;
pos = (277,536);
}
);
associatedMasterId = master02;
layerId = "0DF263EB-1202-44CA-8016-0A6012D1F6AA";
name = foreground;
shapes = (
{
closed = 1;
nodes = (
(197,398,o),
(227,416,o),
(273,416,cs),
(333,416,o),
(367,383,o),
(367,331,cs),
(367,327,l),
(225,327,ls),
(100,327,o),
(25,262,o),
(25,157,cs),
(25,57,o),
(98,-9,o),
(215,-9,cs),
(290,-9,o),
(346,15,o),
(379,73,c),
(383,73,l),
(393,0,l),
(513,0,l),
(513,308,ls),
(513,464,o),
(431,549,o),
(283,549,cs),
(182,549,o),
(114,506,o),
(66,445,c),
(169,364,l)
);
},
{
closed = 1;
nodes = (
(195,109,o),
(169,129,o),
(169,163,cs),
(169,198,o),
(194,218,o),
(241,218,cs),
(367,218,l),
(367,217,ls),
(367,152,o),
(318,109,o),
(245,109,cs)
);
}
);
width = 550;
},
{
associatedMasterId = master02;
layerId = "D092150D-C3A9-4A35-90A8-F21FB447A128";
name = bg;
shapes = (
{
closed = 1;
nodes = (
(359,226,ls),
(359,148,o),
(321,115,o),
(261,115,cs),
(201,115,o),
(163,148,o),
(163,226,cs),
(163,536,l),
(13,536,l),
(13,218,ls),
(13,70,o),
(90,-15,o),
(226,-15,cs),
(300,-15,o),
(345,16,o),
(376,65,c),
(380,65,l),
(389,0,l),
(509,0,l),
(509,536,l),
(359,536,l)
);
},
{
closed = 1;
nodes = (
(163,364,l),
(190,402,o),
(221,422,o),
(269,422,cs),
(329,422,o),
(363,387,o),
(363,331,cs),
(363,327,l),
(221,327,ls),
(96,327,o),
(21,262,o),
(21,157,cs),
(21,55,o),
(93,-9,o),
(207,-9,cs),
(281,-9,o),
(334,18,o),
(365,73,c),
(369,73,l),
(378,0,l),
(509,0,l),
(509,308,ls),
(509,466,o),
(429,549,o),
(269,549,cs),
(173,549,o),
(102,506,o),
(54,433,c)
);
},
{
closed = 1;
nodes = (
(191,109,o),
(165,129,o),
(165,163,cs),
(165,198,o),
(190,218,o),
(237,218,cs),
(363,218,l),
(363,217,ls),
(363,150,o),
(315,109,o),
(238,109,cs)
);
},
{
closed = 1;
nodes = (
(112,32,o),
(192,-8,o),
(289,-8,cs),
(454,-8,o),
(569,112,o),
(569,277,cs),
(569,443,o),
(453,562,o),
(286,562,cs),
(192,562,o),
(112,523,o),
(60,446,c),
(166,363,l),
(196,405,o),
(237,425,o),
(287,425,cs),
(363,425,o),
(418,366,o),
(418,277,cs),
(418,189,o),
(363,129,o),
(287,129,cs),
(237,129,o),
(196,149,o),
(166,192,c),
(60,108,l)
);
},
{
closed = 1;
nodes = (
(166,363,l),
(190,402,o),
(221,422,o),
(269,422,cs),
(329,422,o),
(363,387,o),
(363,331,cs),
(363,327,l),
(221,327,ls),
(96,327,o),
(21,262,o),
(21,157,cs),
(21,55,o),
(93,-9,o),
(209,-9,cs),
(286,-9,o),
(341,16,o),
(375,73,c),
(379,73,l),
(389,0,l),
(509,0,l),
(509,308,ls),
(509,466,o),
(429,549,o),
(270,549,cs),
(174,549,o),
(103,504,o),
(57,429,c)
);
},
{
closed = 1;
nodes = (
(191,109,o),
(165,129,o),
(165,163,cs),
(165,198,o),
(190,218,o),
(237,218,cs),
(363,218,l),
(363,217,ls),
(363,152,o),
(314,109,o),
(238,109,cs)
);
}
);
width = 546;
},
{
anchors = (
{
name = bottom;
pos = (309,-8);
},
{
name = ogonek;
pos = (584,0);
},
{
name = top;
pos = (299,552);
}
);
background = {
shapes = (
{
closed = 1;
nodes = (
(233,339,l),
(246,358,o),
(260,370,o),
(285,370,cs),
(315,370,o),
(331,357,o),
(331,327,cs),
(331,323,l),
(219,323,ls),
(92,323,o),
(20,253,o),
(20,152,cs),
(20,54,o),
(91,-8,o),
(197,-8,cs),
(263,-8,o),
(312,17,o),
(341,59,c),
(345,59,l),
(358,0,l),
(586,0,l),
(586,298,ls),
(586,476,o),
(489,566,o),
(305,566,c),
(193,566,o),
(96,519,o),
(43,416,c)
);
},
{
closed = 1;
nodes = (
(264,155,o),
(253,165,o),
(253,183,cs),
(253,201,o),
(263,213,o),
(287,213,cs),
(331,213,l),
(331,201,l),
(331,170,o),
(314,155,o),
(287,155,cs)
);
},
{
closed = 1;
nodes = (
(214,330,l),
(232,356,o),
(252,370,o),
(281,370,cs),
(313,370,o),
(331,354,o),
(331,327,cs),
(331,318,l),
(219,318,ls),
(92,318,o),
(20,250,o),
(20,152,cs),
(20,54,o),
(91,-8,o),
(197,-8,cs),
(263,-8,o),
(310,15,o),
(341,59,c),
(345,59,l),
(358,0,l),
(586,0,l),
(586,293,ls),
(586,476,o),
(489,566,o),
(305,566,cs),
(193,566,o),
(108,524,o),
(49,448,c)
);
},
{
closed = 1;
nodes = (
(264,155,o),
(253,165,o),
(253,183,cs),
(253,201,o),
(263,213,o),
(287,213,cs),
(331,213,l),
(331,201,l),
(331,170,o),
(314,155,o),
(287,155,cs)
);
}
);
};
layerId = master03;
shapes = (
{
closed = 1;
nodes = (
(254,356,o),
(266,368,o),
(289,368,cs),
(313,368,o),
(329,352,o),
(329,328,cs),
(329,322,l),
(217,318,ls),
(84,313,o),
(7,252,o),
(7,153,cs),
(7,53,o),
(80,-8,o),
(197,-8,cs),
(259,-8,o),
(302,12,o),
(331,50,c),
(335,50,l),
(335,0,l),
(584,0,l),
(584,293,ls),
(584,476,o),
(488,566,o),
(305,566,cs),
(142,566,o),
(47,483,o),
(27,337,c),
(251,337,l)
);
},
{
closed = 1;
nodes = (
(263,155,o),
(252,167,o),
(252,182,cs),
(252,198,o),
(262,210,o),
(285,211,cs),
(329,213,l),
(329,201,ls),
(329,168,o),
(312,155,o),
(283,155,cs)
);
}
);
width = 602;
},
{
anchors = (
{
name = bottom;
pos = (299,-8);
},
{
name = ogonek;
pos = (574,0);
},
{
name = top;
pos = (289,552);
}
);
associatedMasterId = master03;
layerId = "DAC29CD7-3C5F-4D65-879A-2E883BC25188";
name = foreground;
shapes = (
{
closed = 1;
nodes = (
(233,353,o),
(249,368,o),
(273,368,cs),
(301,368,o),
(319,350,o),
(319,322,cs),
(319,318,l),
(207,318,ls),
(80,318,o),
(7,250,o),
(7,153,cs),
(7,55,o),
(79,-8,o),
(178,-8,cs),
(257,-8,o),
(303,14,o),
(335,60,c),
(339,60,l),
(354,0,l),
(574,0,l),
(574,293,ls),
(574,476,o),
(478,566,o),
(295,566,cs),
(165,566,o),
(69,502,o),
(27,399,c),
(223,332,l)
);
},
{
closed = 1;
nodes = (
(252,155,o),
(242,165,o),
(242,183,cs),
(242,201,o),
(252,213,o),
(275,213,cs),
(319,213,l),
(319,201,l),
(319,170,o),
(302,155,o),
(275,155,cs)
);
}
);
width = 592;
},
{
associatedMasterId = master03;
layerId = "4D5B7AC7-4D49-4D9B-884A-EB44025949B6";
name = bg;
shapes = (
{
closed = 1;
nodes = (
(572,451,o),
(473,531,o),
(303,531,cs),
(185,531,o),
(83,481,o),
(34,394,c),
(210,334,l),
(228,364,o),
(264,380,o),
(301,380,cs),
(327,380,o),
(337,372,o),
(337,362,cs),
(337,352,o),
(328,347,o),
(307,343,cs),
(224,326,ls),
(72,294,o),
(14,243,o),
(14,150,cs),
(14,32,o),
(112,-48,o),
(317,-48,cs),
(434,-48,o),
(538,-7,o),
(584,86,c),
(389,151,l),
(374,117,o),
(347,104,o),
(314,104,cs),
(288,104,o),
(277,112,o),
(277,124,cs),
(277,133,o),
(283,139,o),
(306,144,cs),
(383,162,ls),
(507,190,o),
(572,242,o),
(572,337,cs)
);
},
{
closed = 1;
nodes = (
(318,222,ls),
(318,204,o),
(309,191,o),
(288,191,cs),
(267,191,o),
(257,204,o),
(257,222,cs),
(257,552,l),
(-1,552,l),
(-1,190,ls),
(-1,59,o),
(67,-20,o),
(196,-20,cs),
(262,-20,o),
(303,7,o),
(338,55,c),
(342,55,l),
(356,0,l),
(576,0,l),
(576,552,l),
(318,552,l)
);
}
);
width = 587;
},
{
anchors = (
{
name = bottom;
pos = (277,-9);
},
{
name = ogonek;
pos = (513,0);
},
{
name = top;
pos = (277,536);
}
);
associatedMasterId = master02;
layerId = "30C2AAA8-58F0-4C1A-8482-AE7434CE23F4";
name = "Nov 29, 20, 11:07";
shapes = (
{
closed = 1;
nodes = (
(206,401,o),
(235,421,o),
(277,421,cs),
(333,420,o),
(367,386,o),
(367,331,cs),
(367,314,l),
(225,314,ls),
(106,314,o),
(35,251,o),
(35,154,cs),
(35,54,o),
(107,-9,o),
(216,-9,cs),
(291,-9,o),
(339,17,o),
(367,73,c),
(371,73,l),
(371,0,l),
(513,0,l),
(513,308,ls),
(513,464,o),
(430,549,o),
(284,549,cs),
(160,549,o),
(73,475,o),
(59,359,c),
(200,359,l)
);
},
{
closed = 1;
nodes = (
(202,109,o),
(179,126,o),
(179,160,cs),
(179,188,o),
(201,208,o),
(241,208,cs),
(367,208,l),
(367,207,ls),
(367,148,o),
(318,109,o),
(245,109,cs)
);
}
);
width = 550;
},
{
anchors = (
{
name = bottom;
pos = (277,-9);
},
{
name = ogonek;
pos = (513,0);
},
{
name = top;
pos = (277,536);
}
);
associatedMasterId = master02;
layerId = "A8ACAA82-B8F4-494B-9390-4B63C6F4BC35";
name = "Nov 29, 20, 11:15 -helv";
shapes = (
{
closed = 1;
nodes = (
(206,398,o),
(236,424,o),
(288,424,cs),
(337,424,o),
(367,395,o),
(368,359,cs),
(368,328,o),
(355,316,o),
(286,312,cs),
(225,309,ls),
(96,301,o),
(35,245,o),
(35,144,cs),
(35,50,o),
(107,-9,o),
(216,-9,cs),
(286,-9,o),
(334,17,o),
(367,63,c),
(371,63,l),
(371,0,l),
(513,0,l),
(513,328,ls),
(513,479,o),
(435,549,o),
(284,549,cs),
(155,549,o),
(73,475,o),
(59,359,c),
(200,359,l)
);
},
{
closed = 1;
nodes = (
(202,109,o),
(179,125,o),
(179,156,cs),
(179,185,o),
(194,204,o),
(241,208,cs),
(295,212,ls),
(330,215,o),
(349,219,o),
(368,232,c),
(367,207,ls),
(365,148,o),
(318,109,o),
(245,109,cs)
);
}
);
width = 550;
},
{
anchors = (
{
name = bottom;
pos = (277,-9);
},
{
name = ogonek;
pos = (513,0);
},
{
name = top;
pos = (277,536);
}
);
layerId = master02;
name = "Display Bold";
shapes = (
{
closed = 1;
nodes = (
(202,403,o),
(230,425,o),
(280,425,cs),
(337,425,o),
(368,394,o),
(368,341,cs),
(368,330,l),
(215,320,ls),
(86,312,o),
(25,255,o),
(25,155,cs),
(25,54,o),
(99,-9,o),
(210,-9,cs),
(282,-9,o),
(333,12,o),
(367,56,c),
(371,56,l),
(371,0,l),
(513,0,l),
(513,318,ls),
(513,475,o),
(434,549,o),
(279,549,cs),
(147,549,o),
(69,479,o),
(49,368,c),
(194,368,l)
);
},
{
closed = 1;
nodes = (
(198,109,o),
(174,126,o),
(174,161,cs),
(174,190,o),
(188,214,o),
(235,217,cs),
(367,226,l),
(367,207,ls),
(367,145,o),
(325,107,o),
(244,107,cs)
);
}
);
width = 550;
},
{
anchors = (
{
name = bottom;
pos = (277,-9);
},
{
name = ogonek;
pos = (513,0);
},
{
name = top;
pos = (277,536);
}
);
associatedMasterId = master02;
layerId = "5C6C4A75-89C7-4E8E-A191-DE3F6FB951F7";
name = "Nov 29, 20, 11:57";
shapes = (
{
closed = 1;
nodes = (
(194,401,o),
(221,427,o),
(276,427,cs),
(336,427,o),
(368,398,o),
(368,349,cs),
(368,327,l),
(215,317,ls),
(86,309,o),
(25,251,o),
(25,149,cs),
(25,52,o),
(100,-9,o),
(213,-9,cs),
(281,-9,o),
(336,15,o),
(367,63,c),
(371,63,l),
(371,0,l),
(513,0,l),
(513,318,ls),
(513,476,o),
(431,549,o),
(279,549,cs),
(147,549,o),
(65,472,o),
(49,363,c),
(188,363,l)
);
},
{
closed = 1;
nodes = (
(199,109,o),
(176,126,o),
(176,159,cs),
(176,189,o),
(190,213,o),
(235,216,cs),
(367,225,l),
(367,207,ls),
(367,145,o),
(325,107,o),
(244,107,cs)
);
}
);
width = 550;
}
);
unicode = 97;
},
{
color = (222,222,222,124);
glyphname = aogonek;
kernLeft = a;
kernRight = a;
lastChange = "2020-11-26 16:42:11 +0000";
layers = (
{
layerId = master01;
shapes = (
{
closed = 1;
nodes = (
(469,0,l),
(374,-55,ls),
(339,-76,o),
(326,-95,o),
(326,-123,cs),
(326,-157,o),
(353,-178,o),
(403,-178,cs),
(490,-178,l),
(490,-177,l),
(403,-177,l),
(353,-177,o),
(327,-156,o),
(327,-123,cs),
(327,-95,o),
(339,-77,o),
(375,-56,cs),
(470,0,l),
(470,1,l),
(470,1,l)
);
},
{
ref = a;
}
);
width = 548;
},
{
associatedMasterId = master01;
layerId = "5C2A6DF4-AC8C-4DF0-A57C-DB5AA1A2CAEF";
name = foreground;
shapes = (
{
closed = 1;
nodes = (
(469,0,l),
(374,-55,ls),
(339,-76,o),
(326,-95,o),
(326,-123,cs),
(326,-157,o),
(353,-178,o),
(403,-178,cs),
(490,-178,l),
(490,-177,l),
(403,-177,l),
(353,-177,o),
(327,-156,o),
(327,-123,cs),
(327,-95,o),
(339,-77,o),
(375,-56,cs),
(470,0,l),
(470,1,l),
(470,1,l)
);
},
{
ref = a;
}
);
width = 548;
},
{
layerId = master02;
shapes = (
{
closed = 1;
nodes = (
(378,-2,l),
(336,-26,ls),
(293,-50,o),
(276,-71,o),
(276,-107,cs),
(276,-153,o),
(311,-178,o),
(374,-178,cs),
(509,-178,l),
(509,-73,l),
(435,-73,ls),
(425,-73,o),
(420,-68,o),
(420,-61,cs),
(420,-56,o),
(421,-51,o),
(429,-47,cs),
(509,0,l),
(484,34,l),
(379,21,l)
);
},
{
ref = a;
}
);
width = 546;
},
{
associatedMasterId = master02;
layerId = "77247B6F-4322-47AB-9ED2-90C0332C50DE";
name = foreground;
shapes = (
{
closed = 1;
nodes = (
(378,-2,l),
(336,-26,ls),
(293,-50,o),
(276,-71,o),
(276,-107,cs),
(276,-153,o),
(311,-178,o),
(374,-178,cs),
(509,-178,l),
(509,-73,l),
(435,-73,ls),
(425,-73,o),
(420,-68,o),
(420,-61,cs),
(420,-56,o),
(421,-51,o),
(429,-47,cs),
(509,0,l),
(484,34,l),
(379,21,l)
);
},
{
ref = a;
}
);
width = 546;
},
{
layerId = master03;
shapes = (
{
closed = 1;
nodes = (
(348,-1,l),
(313,-17,ls),
(275,-33,o),
(259,-60,o),
(259,-97,cs),
(259,-151,o),
(296,-178,o),
(364,-178,cs),
(576,-178,l),
(576,-38,l),
(510,-38,ls),
(507,-38,o),
(505,-37,o),
(505,-34,cs),
(505,-31,o),
(506,-30,o),
(511,-28,cs),
(576,0,l),
(542,46,l),
(348,20,l)
);
},
{
ref = a;
}
);
width = 594;
},
{
associatedMasterId = master03;
layerId = "FAACDC40-8278-4E97-A1E0-3C047FE72178";
name = foreground;
shapes = (
{
closed = 1;
nodes = (
(348,-1,l),
(313,-17,ls),
(275,-33,o),
(259,-60,o),
(259,-97,cs),
(259,-151,o),
(296,-178,o),
(364,-178,cs),
(576,-178,l),
(576,-38,l),
(510,-38,ls),
(507,-38,o),
(505,-37,o),
(505,-34,cs),
(505,-31,o),
(506,-30,o),
(511,-28,cs),
(576,0,l),
(542,46,l),
(348,20,l)
);
},
{
ref = a;
}
);
width = 594;
}
);
unicode = 261;
},
{
glyphname = b;
kernLeft = H;
kernRight = o;
lastChange = "2020-12-08 17:36:35 +0000";
layers = (
{
background = {
shapes = (
{
closed = 1;
nodes = (
(188,-15,o),
(51,142,o),
(51,275,qs),
(51,409,o),
(188,567,o),
(305,567,qs),
(423,567,o),
(559,409,o),
(559,275,qs),
(559,142,o),
(423,-15,o),
(305,-15,qs)
);
},
{
closed = 1;
nodes = (
(362,100,o),
(421,193,o),
(421,275,qs),
(421,358,o),
(362,452,o),
(305,452,qs),
(248,452,o),
(190,358,o),
(190,275,qs),
(190,193,o),
(248,100,o),
(305,100,qs)
);
}
);
};
layerId = master01;
shapes = (
{
closed = 1;
nodes = (
(86,274,l),
(86,274,l),
(92,425,o),
(186,523,o),
(324,523,cs),
(467,523,o),
(563,415,o),
(563,256,cs),
(563,96,o),
(465,-15,o),
(324,-15,cs),
(190,-15,o),
(92,88,o),
(86,235,c),
(86,235,l),
(86,0,l),
(85,0,l),
(85,727,l),
(86,727,l)
);
},
{
closed = 1;
nodes = (
(180,522,o),
(86,417,o),
(86,255,cs),
(86,96,o),
(184,-14,o),
(324,-14,cs),
(465,-14,o),
(562,96,o),
(562,256,cs),
(562,415,o),
(466,522,o),
(324,522,cs)
);
}
);
width = 623;
},
{
associatedMasterId = master01;
layerId = "D65C1B09-B8F1-4D21-89C3-A36B4ACFA2D5";
name = foreground;
shapes = (
{
closed = 1;
nodes = (
(86,274,l),
(86,274,l),
(92,425,o),
(186,523,o),
(324,523,cs),
(467,523,o),
(563,415,o),
(563,256,cs),
(563,96,o),
(465,-15,o),
(324,-15,cs),
(190,-15,o),
(92,88,o),
(86,235,c),
(86,235,l),
(86,0,l),
(85,0,l),
(85,727,l),
(86,727,l)
);
},
{
closed = 1;
nodes = (
(180,522,o),
(86,417,o),
(86,255,cs),
(86,96,o),
(184,-14,o),
(324,-14,cs),
(465,-14,o),
(562,96,o),
(562,256,cs),
(562,415,o),
(466,522,o),
(324,522,cs)
);
}
);
width = 623;
},
{
associatedMasterId = master01;
layerId = "99CBAAC1-3796-4EBB-8B13-E5FB62A06DC3";
name = "another one";
width = 291;
},
{
layerId = master02;
shapes = (
{
closed = 1;
nodes = (
(191,478,l),
(195,478,l),
(233,523,o),
(288,545,o),
(360,545,cs),
(493,545,o),
(603,448,o),
(603,268,cs),
(603,88,o),
(488,-12,o),
(351,-12,cs),
(273,-12,o),
(222,19,o),
(190,65,c),
(186,65,l),
(186,0,l),
(41,0,l),
(41,727,l),
(191,727,l)
);
},
{
closed = 1;
nodes = (
(242,417,o),
(190,365,o),
(190,269,cs),
(190,175,o),
(244,120,o),
(324,120,cs),
(401,120,o),
(447,177,o),
(447,269,cs),
(447,361,o),
(402,417,o),
(324,417,cs)
);
}
);
width = 633;
},
{
associatedMasterId = master02;
layerId = "9649AC86-5DE3-4562-B824-F7D83783B3C3";
name = foreground;
shapes = (
{
closed = 1;
nodes = (
(191,483,l),
(195,483,l),
(232,521,o),
(281,545,o),
(352,545,cs),
(487,545,o),
(598,448,o),
(598,268,cs),
(598,88,o),
(486,-12,o),
(351,-12,cs),
(271,-12,o),
(216,21,o),
(184,75,c),
(180,75,l),
(170,0,l),
(41,0,l),
(41,727,l),
(191,727,l)
);
},
{
closed = 1;
nodes = (
(243,417,o),
(190,365,o),
(190,269,cs),
(190,175,o),
(245,120,o),
(317,120,cs),
(390,120,o),
(442,176,o),
(442,269,cs),
(442,361,o),
(391,417,o),
(317,417,cs)
);
}
);
width = 628;
},
{
layerId = master03;
shapes = (
{
closed = 1;
nodes = (
(275,516,l),
(279,516,l),
(308,541,o),
(353,558,o),
(404,558,cs),
(548,558,o),
(638,445,o),
(638,275,cs),
(638,106,o),
(548,-10,o),
(404,-10,cs),
(348,-10,o),
(307,7,o),
(271,44,c),
(267,44,l),
(267,0,l),
(20,0,l),
(20,727,l),
(275,727,l)
);
},
{
closed = 1;
nodes = (
(295,342,o),
(273,316,o),
(273,277,cs),
(273,238,o),
(295,212,o),
(327,212,cs),
(360,212,o),
(382,238,o),
(382,277,cs),
(382,316,o),
(360,342,o),
(327,342,cs)
);
}
);
width = 650;
},
{
associatedMasterId = master03;
layerId = "7A064DFD-515E-4D61-AFFA-691E394C0FFB";
name = foreground;
shapes = (
{
closed = 1;
nodes = (
(275,510,l),
(279,510,l),
(308,539,o),
(353,558,o),
(404,558,cs),
(548,558,o),
(638,445,o),
(638,275,cs),
(638,106,o),
(548,-10,o),
(400,-10,cs),
(338,-10,o),
(287,12,o),
(253,54,c),
(249,54,l),
(237,0,l),
(20,0,l),
(20,727,l),
(275,727,l)
);
},
{
closed = 1;
nodes = (
(295,342,o),
(273,316,o),
(273,277,cs),
(273,238,o),
(295,212,o),
(327,212,cs),
(360,212,o),
(382,238,o),
(382,277,cs),
(382,316,o),
(360,342,o),
(327,342,cs)
);
}
);
width = 650;
},
{
associatedMasterId = master03;
layerId = "18C8EA90-7FCA-48AB-BF99-6D33C3360105";
name = bg;
shapes = (
{
closed = 1;
nodes = (
(275,552,l),
(275,504,l),
(279,504,l),
(312,539,o),
(353,558,o),
(417,558,cs),
(544,558,o),
(643,455,o),
(643,275,cs),
(643,95,o),
(543,-10,o),
(410,-10,cs),
(335,-10,o),
(290,19,o),
(256,71,c),
(252,71,l),
(237,0,l),
(20,0,l),
(20,727,l),
(275,727,l)
);
},
{
closed = 1;
nodes = (
(301,342,o),
(278,317,o),
(278,277,cs),
(278,237,o),
(301,212,o),
(332,212,cs),
(364,212,o),
(387,237,o),
(387,277,cs),
(387,317,o),
(364,342,o),
(332,342,cs)
);
}
);
width = 655;
}
);
unicode = 98;
},
{
glyphname = c;
kernLeft = o;
kernRight = c;
lastChange = "2020-12-08 17:32:06 +0000";
layers = (
{
anchors = (
{
name = bottom;
pos = (306,-17);
},
{
name = top;
pos = (306,509);
}
);
background = {
shapes = (
{
closed = 1;
nodes = (
(173,169,o),
(212,116,o),
(289,116,cs),
(350,116,o),
(386,149,o),
(399,215,c),
(534,185,l),
(507,57,o),
(419,-15,o),
(289,-15,cs),
(130,-15,o),
(35,91,o),
(35,275,cs),
(35,460,o),
(130,567,o),
(289,567,cs),
(420,567,o),
(507,494,o),
(533,362,c),
(397,324,l),
(387,398,o),
(352,435,o),
(289,435,cs),
(212,435,o),
(173,382,o),
(173,275,cs)
);
},
{
closed = 1;
nodes = (
(179,183,o),
(232,122,o),
(333,122,cs),
(380,122,o),
(413,135,o),
(436,160,c),
(521,48,l),
(473,7,o),
(410,-15,o),
(333,-15,cs),
(156,-15,o),
(35,105,o),
(35,288,cs),
(35,471,o),
(156,591,o),
(333,591,cs),
(418,591,o),
(487,566,o),
(536,514,c),
(441,410,l),
(419,439,o),
(384,455,o),
(333,455,cs),
(232,455,o),
(179,393,o),
(179,288,cs)
);
},
{
closed = 1;
nodes = (
(517,23,o),
(433,-15,o),
(333,-15,cs),
(157,-15,o),
(35,115,o),
(35,288,cs),
(35,460,o),
(157,591,o),
(333,591,cs),
(433,591,o),
(516,553,o),
(569,478,c),
(459,390,l),
(433,430,o),
(391,455,o),
(333,455,cs),
(237,455,o),
(179,384,o),
(179,288,cs),
(179,192,o),
(237,122,o),
(333,122,cs),
(392,122,o),
(433,146,o),
(459,187,c),
(569,99,l)
);
}
);
};
layerId = master01;
shapes = (
{
closed = 1;
nodes = (
(513,107,l),
(475,27,o),
(404,-16,o),
(306,-16,cs),
(159,-16,o),
(61,92,o),
(61,252,cs),
(61,413,o),
(159,520,o),
(306,520,cs),
(395,520,o),
(462,485,o),
(501,418,c),
(502,419,l),
(462,486,o),
(395,521,o),
(306,521,cs),
(159,521,o),
(60,414,o),
(60,252,cs),
(60,91,o),
(159,-17,o),
(306,-17,cs),
(404,-17,o),
(476,26,o),
(514,107,c)
);
}
);
width = 574;
},
{
anchors = (
{
name = bottom;
pos = (306,-17);
},
{
name = top;
pos = (306,509);
}
);
associatedMasterId = master01;
layerId = "2B097DCD-7929-4A6F-815E-08394FCFAF0F";
name = foreground;
shapes = (
{
closed = 1;
nodes = (
(513,107,l),
(475,27,o),
(404,-16,o),
(306,-16,cs),
(159,-16,o),
(61,92,o),
(61,252,cs),
(61,413,o),
(159,520,o),
(306,520,cs),
(395,520,o),
(462,485,o),
(501,418,c),
(502,419,l),
(462,486,o),
(395,521,o),
(306,521,cs),
(159,521,o),
(60,414,o),
(60,252,cs),
(60,91,o),
(159,-17,o),
(306,-17,cs),
(404,-17,o),
(476,26,o),
(514,107,c)
);
}
);
width = 574;
},
{
associatedMasterId = master01;
layerId = "C7C79489-2C66-451D-B033-C923142C6C9C";
name = "another one";
width = 291;
},
{
anchors = (
{
name = bottom;
pos = (308,0);
},
{
name = top;
pos = (310,535);
}
);
associatedMasterId = master02;
layerId = "98B7CDD8-6320-4EDF-AC43-E1E82D67EFAC";
name = foreground;
shapes = (
{
closed = 1;
nodes = (
(431,183,l),
(401,140,o),
(360,121,o),
(310,121,cs),
(234,121,o),
(179,180,o),
(179,269,cs),
(179,357,o),
(234,417,o),
(310,417,cs),
(359,417,o),
(400,396,o),
(430,354,c),
(537,438,l),
(485,514,o),
(405,553,o),
(311,553,cs),
(144,553,o),
(28,434,o),
(28,268,cs),
(28,103,o),
(143,-16,o),
(308,-16,cs),
(405,-16,o),
(485,23,o),
(537,100,c)
);
}
);
width = 558;
},
{
associatedMasterId = master02;
layerId = "2B14BC3A-1F8F-49EC-9056-5BEE290CA743";
name = bg;
shapes = (
{
closed = 1;
nodes = (
(428,190,l),
(401,144,o),
(365,120,o),
(310,120,cs),
(229,120,o),
(179,180,o),
(179,269,cs),
(179,357,o),
(229,417,o),
(310,417,cs),
(365,417,o),
(400,394,o),
(426,349,c),
(544,419,l),
(497,505,o),
(412,553,o),
(311,553,cs),
(146,553,o),
(28,434,o),
(28,268,cs),
(28,103,o),
(146,-16,o),
(308,-16,cs),
(412,-16,o),
(499,33,o),
(545,120,c)
);
},
{
closed = 1;
nodes = (
(-131,131,o),
(20,-27,o),
(245,-27,cs),
(382,-27,o),
(479,27,o),
(545,120,c),
(428,213,l),
(385,153,o),
(330,123,o),
(248,123,cs),
(113,123,o),
(34,222,o),
(34,353,cs),
(34,483,o),
(113,582,o),
(248,582,cs),
(330,582,o),
(385,553,o),
(428,493,c),
(545,585,l),
(479,678,o),
(382,732,o),
(245,732,cs),
(20,732,o),
(-131,574,o),
(-131,353,cs)
);
},
{
closed = 1;
nodes = (
(-132,-36,o),
(19,-194,o),
(244,-194,cs),
(381,-194,o),
(478,-140,o),
(544,-47,c),
(427,46,l),
(384,-14,o),
(329,-44,o),
(247,-44,cs),
(112,-44,o),
(33,55,o),
(33,186,cs),
(33,317,o),
(112,416,o),
(247,416,cs),
(329,416,o),
(384,386,o),
(427,326,c),
(544,419,l),
(478,512,o),
(381,566,o),
(244,566,cs),
(19,566,o),
(-132,408,o),
(-132,186,cs)
);
}
);
width = 562;
},
{
anchors = (
{
name = bottom;
pos = (318,0);
},
{
name = top;
pos = (313,557);
}
);
background = {
shapes = (
{
closed = 1;
nodes = (
(565,55,o),
(596,208,c),
(370,265,l),
(365,226,o),
(344,209,o),
(317,209,c),
(283,209,o),
(261,236,o),
(261,276,cs),
(261,316,o),
(283,344,o),
(317,344,c),
(344,344,o),
(364,326,o),
(370,294,c),
(596,341,l),
(565,496,o),
(458,570,o),
(314,570,cs),
(135,570,o),
(12,448,o),
(12,275,cs),
(12,102,o),
(136,-18,o),
(314,-18,cs),
(454,-18,o)
);
}
);
};
guides = (
{
angle = 0.2301;
pos = (273,551);
},
{
angle = 90;
pos = (633,552);
}
);
layerId = master03;
shapes = (
{
closed = 1;
nodes = (
(601,85,o),
(612,267,c),
(370,267,l),
(365,230,o),
(346,213,o),
(320,213,cs),
(287,213,o),
(267,239,o),
(267,276,cs),
(267,313,o),
(287,340,o),
(320,340,cs),
(346,340,o),
(366,323,o),
(370,287,c),
(612,287,l),
(603,462,o),
(502,570,o),
(318,570,cs),
(136,570,o),
(11,448,o),
(11,275,cs),
(11,102,o),
(137,-18,o),
(318,-18,cs),
(495,-18,o)
);
}
);
width = 623;
},
{
anchors = (
{
name = bottom;
pos = (318,0);
},
{
name = top;
pos = (313,557);
}
);
associatedMasterId = master03;
guides = (
{
angle = 0.2301;
pos = (273,551);
},
{
angle = 90;
pos = (633,552);
}
);
layerId = "F72A76E6-9F1D-4882-B4FD-CC37BB71350D";
name = foreground;
shapes = (
{
closed = 1;
nodes = (
(569,55,o),
(600,208,c),
(370,265,l),
(362,229,o),
(344,213,o),
(320,213,cs),
(287,213,o),
(267,239,o),
(267,276,cs),
(267,313,o),
(287,340,o),
(320,340,cs),
(344,340,o),
(363,324,o),
(370,289,c),
(600,346,l),
(569,498,o),
(462,570,o),
(318,570,cs),
(136,570,o),
(11,448,o),
(11,275,cs),
(11,102,o),
(137,-18,o),
(318,-18,cs),
(458,-18,o)
);
}
);
width = 601;
},
{
associatedMasterId = master03;
layerId = "6298190A-4BA8-40A0-97EB-5452F800C581";
name = bg;
shapes = (
{
closed = 1;
nodes = (
(25,277,o),
(90,225,o),
(215,197,cs),
(292,179,ls),
(315,174,o),
(321,168,o),
(321,159,cs),
(321,147,o),
(309,139,o),
(283,139,cs),
(250,139,o),
(223,152,o),
(209,186,c),
(14,121,l),
(59,28,o),
(164,-13,o),
(280,-13,cs),
(485,-13,o),
(584,67,o),
(584,185,cs),
(584,278,o),
(526,329,o),
(373,361,cs),
(291,378,ls),
(269,382,o),
(261,387,o),
(261,397,cs),
(261,407,o),
(271,415,o),
(297,415,cs),
(338,415,o),
(364,397,o),
(381,370,c),
(564,433,l),
(516,518,o),
(412,566,o),
(294,566,cs),
(124,566,o),
(25,486,o),
(25,372,cs)
);
},
{
closed = 1;
nodes = (
(555,61,o),
(590,185,c),
(370,262,l),
(361,223,o),
(340,211,o),
(315,211,cs),
(283,211,o),
(261,238,o),
(261,278,cs),
(261,318,o),
(283,346,o),
(315,346,cs),
(341,346,o),
(359,332,o),
(368,301,c),
(588,370,l),
(550,496,o),
(445,573,o),
(314,573,cs),
(135,573,o),
(12,451,o),
(12,277,cs),
(12,104,o),
(136,-16,o),
(314,-16,cs),
(454,-16,o)
);
},
{
closed = 1;
nodes = (
(347,211,o),
(369,236,o),
(369,276,cs),
(369,315,o),
(347,341,o),
(316,341,cs),
(286,341,o),
(263,315,o),
(263,276,cs),
(263,236,o),
(286,211,o),
(316,211,cs)
);
},
{
closed = 1;
nodes = (
(570,55,o),
(601,208,c),
(374,265,l),
(366,229,o),
(347,213,o),
(322,213,cs),
(288,213,o),
(268,239,o),
(268,276,cs),
(268,313,o),
(289,340,o),
(322,340,cs),
(347,340,o),
(366,324,o),
(373,289,c),
(601,346,l),
(570,498,o),
(463,570,o),
(319,570,cs),
(137,570,o),
(12,448,o),
(12,275,cs),
(12,102,o),
(138,-18,o),
(319,-18,cs),
(459,-18,o)
);
}
);
width = 631;
},
{
anchors = (
{
name = bottom;
pos = (308,0);
},
{
name = top;
pos = (310,535);
}
);
associatedMasterId = master02;
layerId = "8F0FF6FD-5929-4CCD-8F06-BB9D560B6E71";
name = "Nov 29, 20, 10:38";
shapes = (
{
closed = 1;
nodes = (
(431,183,l),
(401,140,o),
(360,121,o),
(310,121,cs),
(234,121,o),
(179,180,o),
(179,269,cs),
(179,357,o),
(234,417,o),
(310,417,cs),
(359,417,o),
(400,396,o),
(430,354,c),
(537,438,l),
(485,514,o),
(405,553,o),
(311,553,cs),
(144,553,o),
(28,434,o),
(28,268,cs),
(28,103,o),
(143,-16,o),
(308,-16,cs),
(405,-16,o),
(485,23,o),
(537,100,c)
);
}
);
width = 558;
},
{
anchors = (
{
name = bottom;
pos = (308,0);
},
{
name = top;
pos = (310,535);
}
);
associatedMasterId = master02;
layerId = "620CB7E4-87D1-47E8-8F3D-9C785227857A";
name = "Nov 29, 20, 11:03";
shapes = (
{
closed = 1;
nodes = (
(414,191,l),
(402,141,o),
(358,112,o),
(305,112,cs),
(227,112,o),
(179,174,o),
(179,269,cs),
(179,362,o),
(227,425,o),
(305,425,cs),
(356,425,o),
(397,402,o),
(413,357,c),
(562,358,l),
(532,477,o),
(446,553,o),
(307,553,cs),
(135,553,o),
(28,434,o),
(28,268,cs),
(28,103,o),
(134,-16,o),
(304,-16,cs),
(446,-16,o),
(541,62,o),
(562,191,c)
);
}
);
width = 618;
},
{
anchors = (
{
name = bottom;
pos = (308,0);
},
{
name = top;
pos = (310,535);
}
);
associatedMasterId = master02;
layerId = "CC6FACF4-D3A7-4920-A273-3212FDC4529C";
name = "Nov 29, 20, 11:22";
shapes = (
{
closed = 1;
nodes = (
(424,201,l),
(406,141,o),
(364,112,o),
(305,112,cs),
(227,112,o),
(179,174,o),
(179,269,cs),
(179,362,o),
(227,425,o),
(305,425,cs),
(362,425,o),
(401,402,o),
(423,336,c),
(572,337,l),
(542,474,o),
(451,553,o),
(307,553,cs),
(135,553,o),
(28,434,o),
(28,268,cs),
(28,103,o),
(134,-16,o),
(304,-16,cs),
(451,-16,o),
(550,64,o),
(572,201,c)
);
}
);
width = 618;
},
{
anchors = (
{
name = bottom;
pos = (308,0);
},
{
name = top;
pos = (310,535);
}
);
associatedMasterId = master02;
layerId = "B7244814-9D13-4FDB-A8DB-20401BC47C8F";
name = "Dec 1, 20, 11:15";
shapes = (
{
closed = 1;
nodes = (
(432,221,l),
(418,146,o),
(372,111,o),
(307,112,cs),
(228,113,o),
(179,174,o),
(179,269,cs),
(179,362,o),
(228,425,o),
(307,425,cs),
(372,425,o),
(417,391,o),
(431,316,c),
(580,317,l),
(559,477,o),
(455,553,o),
(307,553,cs),
(135,553,o),
(28,434,o),
(28,268,cs),
(28,103,o),
(135,-16,o),
(307,-16,cs),
(456,-16,o),
(559,63,o),
(580,221,c)
);
}
);
width = 603;
},
{
anchors = (
{
name = bottom;
pos = (308,0);
},
{
name = top;
pos = (310,535);
}
);
layerId = master02;
name = "Display Bold";
shapes = (
{
closed = 1;
nodes = (
(419,201,l),
(405,140,o),
(364,111,o),
(302,112,cs),
(226,113,o),
(179,174,o),
(179,269,cs),
(179,362,o),
(226,425,o),
(302,425,cs),
(364,425,o),
(404,397,o),
(418,336,c),
(565,337,l),
(539,483,o),
(442,553,o),
(302,553,cs),
(133,553,o),
(28,434,o),
(28,268,cs),
(28,103,o),
(133,-16,o),
(302,-16,cs),
(443,-16,o),
(539,56,o),
(565,201,c)
);
}
);
width = 587;
}
);
metricLeft = o;
metricRight = o;
unicode = 99;
},
{
glyphname = d;
kernLeft = o;
kernRight = H;
lastChange = "2020-12-08 17:36:49 +0000";
layers = (
{
background = {
shapes = (
{
closed = 1;
nodes = (
(513,509,l),
(514,274,l),
(513,274,l),
(508,431,o),
(409,523,o),
(277,523,cs),
(143,523,o),
(46,422,o),
(46,256,cs),
(46,88,o),
(145,-15,o),
(280,-15,cs),
(421,-15,o),
(508,97,o),
(513,235,c),
(514,235,l),
(513,0,l),
(514,0,l),
(514,727,l),
(513,727,l)
);
},
{
closed = 1;
nodes = (
(412,522,o),
(513,427,o),
(513,255,c),
(513,254,l),
(513,100,o),
(420,-14,o),
(280,-14,cs),
(146,-14,o),
(47,88,o),
(47,256,cs),
(47,420,o),
(143,522,o),
(277,522,cs)
);
}
);
};
layerId = master01;
shapes = (
{
closed = 1;
nodes = (
(537,274,l),
(537,274,l),
(532,425,o),
(438,523,o),
(299,523,cs),
(157,523,o),
(60,415,o),
(60,256,cs),
(60,96,o),
(158,-15,o),
(299,-15,cs),
(434,-15,o),
(531,88,o),
(537,235,c),
(537,235,l),
(537,0,l),
(538,0,l),
(538,727,l),
(537,727,l)
);
},
{
closed = 1;
nodes = (
(443,522,o),
(537,417,o),
(537,255,cs),
(537,96,o),
(439,-14,o),
(299,-14,cs),
(159,-14,o),
(61,96,o),
(61,256,cs),
(61,415,o),
(157,522,o),
(299,522,cs)
);
}
);
width = 623;
},
{
associatedMasterId = master01;
layerId = "FFDADCD7-96D4-4F42-8CD8-6245E802DFBA";
name = foreground;
shapes = (
{
closed = 1;
nodes = (
(537,274,l),
(537,274,l),
(532,425,o),
(438,523,o),
(299,523,cs),
(157,523,o),
(60,415,o),
(60,256,cs),
(60,96,o),
(158,-15,o),
(299,-15,cs),
(434,-15,o),
(531,88,o),
(537,235,c),
(537,235,l),
(537,0,l),
(538,0,l),
(538,727,l),
(537,727,l)
);
},
{
closed = 1;
nodes = (
(443,522,o),
(537,417,o),
(537,255,cs),
(537,96,o),
(439,-14,o),
(299,-14,cs),
(159,-14,o),
(61,96,o),
(61,256,cs),
(61,415,o),
(157,522,o),
(299,522,cs)
);
}
);
width = 623;
},
{
associatedMasterId = master01;
layerId = "482E90B8-3B5B-4118-9569-5B88E752475C";
name = "another one";
shapes = (
{
closed = 1;
nodes = (
(496,509,l),
(496,280,l),
(495,280,l),
(489,433,o),
(391,524,o),
(268,524,c),
(130,524,o),
(34,420,o),
(34,256,cs),
(34,88,o),
(133,-15,o),
(271,-15,c),
(405,-15,o),
(491,94,o),
(496,233,c),
(497,233,l),
(496,0,l),
(497,0,l),
(497,727,l),
(496,727,l)
);
},
{
closed = 1;
nodes = (
(396,522,o),
(496,426,o),
(496,253,c),
(496,252,l),
(496,99,o),
(405,-14,o),
(271,-14,c),
(133,-14,o),
(35,88,o),
(35,256,cs),
(35,420,o),
(130,522,o),
(268,522,cs)
);
},
{
closed = 1;
nodes = (
(513,509,l),
(513,274,l),
(513,274,l),
(508,431,o),
(409,523,o),
(277,523,cs),
(143,523,o),
(46,422,o),
(46,256,cs),
(46,88,o),
(145,-15,o),
(280,-15,cs),
(421,-15,o),
(508,97,o),
(513,235,c),
(513,235,l),
(513,0,l),
(514,0,l),
(514,727,l),
(513,727,l)
);
},
{
closed = 1;
nodes = (
(412,522,o),
(513,427,o),
(513,255,c),
(513,254,l),
(513,100,o),
(420,-14,o),
(280,-14,cs),
(146,-14,o),
(47,88,o),
(47,256,cs),
(47,420,o),
(143,522,o),
(277,522,cs)
);
}
);
width = 559;
},
{
layerId = master02;
shapes = (
{
closed = 1;
nodes = (
(592,727,l),
(592,0,l),
(447,0,l),
(447,66,l),
(443,66,l),
(411,19,o),
(360,-12,o),
(282,-12,cs),
(145,-12,o),
(30,88,o),
(30,268,cs),
(30,448,o),
(140,545,o),
(273,545,cs),
(345,545,o),
(400,523,o),
(438,479,c),
(442,479,l),
(442,727,l)
);
},
{
closed = 1;
nodes = (
(231,417,o),
(186,361,o),
(186,269,cs),
(186,177,o),
(232,120,o),
(309,120,cs),
(389,120,o),
(443,175,o),
(443,269,cs),
(443,365,o),
(391,417,o),
(309,417,cs)
);
}
);
width = 632;
},
{
associatedMasterId = master02;
layerId = "96229409-9956-41F3-BE42-6545C65F3591";
name = foreground;
shapes = (
{
closed = 1;
nodes = (
(436,483,l),
(433,483,l),
(396,521,o),
(347,545,o),
(276,545,cs),
(141,545,o),
(30,448,o),
(30,268,cs),
(30,88,o),
(142,-12,o),
(276,-12,cs),
(357,-12,o),
(412,21,o),
(444,75,c),
(448,75,l),
(457,0,l),
(586,0,l),
(586,727,l),
(436,727,l)
);
},
{
closed = 1;
nodes = (
(385,417,o),
(438,365,o),
(438,269,cs),
(438,175,o),
(383,120,o),
(310,120,cs),
(238,120,o),
(186,176,o),
(186,269,cs),
(186,361,o),
(237,417,o),
(311,417,cs)
);
}
);
width = 628;
},
{
background = {
shapes = (
{
closed = 1;
nodes = (
(380,552,l),
(380,504,l),
(389,504,l),
(356,539,o),
(315,558,o),
(251,558,cs),
(124,558,o),
(25,455,o),
(25,275,cs),
(25,95,o),
(125,-10,o),
(258,-10,cs),
(333,-10,o),
(378,19,o),
(412,71,c),
(403,71,l),
(418,0,l),
(635,0,l),
(635,727,l),
(380,727,l)
);
},
{
closed = 1;
nodes = (
(359,342,o),
(382,317,o),
(382,277,cs),
(382,237,o),
(359,212,o),
(328,212,cs),
(296,212,o),
(273,237,o),
(273,277,cs),
(273,317,o),
(296,342,o),
(328,342,cs)
);
}
);
};
layerId = master03;
shapes = (
{
closed = 1;
nodes = (
(630,727,l),
(630,0,l),
(383,0,l),
(383,44,l),
(379,44,l),
(343,7,o),
(302,-10,o),
(246,-10,cs),
(102,-10,o),
(12,106,o),
(12,275,cs),
(12,445,o),
(102,558,o),
(246,558,cs),
(297,558,o),
(342,541,o),
(371,516,c),
(375,516,l),
(375,727,l)
);
},
{
closed = 1;
nodes = (
(290,342,o),
(268,316,o),
(268,277,cs),
(268,238,o),
(290,212,o),
(323,212,cs),
(355,212,o),
(377,238,o),
(377,277,cs),
(377,316,o),
(355,342,o),
(323,342,cs)
);
}
);
width = 650;
},
{
associatedMasterId = master03;
layerId = "EEE069FE-1206-46C4-AB09-9D64C4682A16";
name = foreground;
shapes = (
{
closed = 1;
nodes = (
(375,510,l),
(371,510,l),
(342,539,o),
(297,558,o),
(246,558,cs),
(102,558,o),
(12,445,o),
(12,275,cs),
(12,106,o),
(102,-10,o),
(250,-10,cs),
(312,-10,o),
(363,12,o),
(397,54,c),
(401,54,l),
(413,0,l),
(630,0,l),
(630,727,l),
(375,727,l)
);
},
{
closed = 1;
nodes = (
(355,342,o),
(377,316,o),
(377,277,cs),
(377,238,o),
(355,212,o),
(323,212,cs),
(290,212,o),
(268,238,o),
(268,277,cs),
(268,316,o),
(290,342,o),
(323,342,cs)
);
}
);
width = 650;
},
{
associatedMasterId = master03;
layerId = "111723D9-C386-401C-9CB1-6A0763B8855D";
name = bg;
shapes = (
{
closed = 1;
nodes = (
(380,552,l),
(380,504,l),
(376,504,l),
(343,539,o),
(302,558,o),
(238,558,cs),
(111,558,o),
(12,455,o),
(12,275,cs),
(12,95,o),
(112,-10,o),
(245,-10,cs),
(320,-10,o),
(365,19,o),
(399,71,c),
(403,71,l),
(418,0,l),
(635,0,l),
(635,727,l),
(380,727,l)
);
},
{
closed = 1;
nodes = (
(354,342,o),
(377,317,o),
(377,277,cs),
(377,237,o),
(354,212,o),
(323,212,cs),
(291,212,o),
(268,237,o),
(268,277,cs),
(268,317,o),
(291,342,o),
(323,342,cs)
);
},
{
closed = 1;
nodes = (
(375,516,l),
(371,516,l),
(339,543,o),
(294,558,o),
(246,558,cs),
(102,558,o),
(12,445,o),
(12,275,cs),
(12,106,o),
(102,-10,o),
(244,-10,cs),
(312,-10,o),
(363,12,o),
(397,54,c),
(401,54,l),
(413,0,l),
(630,0,l),
(630,727,l),
(375,727,l)
);
},
{
closed = 1;
nodes = (
(355,342,o),
(377,316,o),
(377,277,cs),
(377,238,o),
(355,212,o),
(323,212,cs),
(290,212,o),
(268,238,o),
(268,277,cs),
(268,316,o),
(290,342,o),
(323,342,cs)
);
}
);
width = 655;
},
{
associatedMasterId = master03;
layerId = "00A03320-9667-4F0D-ACED-44104EDF93E7";
name = "another one";
shapes = (
{
closed = 1;
nodes = (
(380,552,l),
(380,504,l),
(394,501,l),
(362,534,o),
(312,558,o),
(251,558,cs),
(119,558,o),
(16,455,o),
(16,275,cs),
(16,95,o),
(119,-10,o),
(258,-10,cs),
(333,-10,o),
(381,17,o),
(414,68,c),
(403,71,l),
(418,0,l),
(635,0,l),
(635,727,l),
(380,727,l)
);
},
{
closed = 1;
nodes = (
(359,342,o),
(382,317,o),
(382,277,cs),
(382,237,o),
(359,212,o),
(328,212,cs),
(296,212,o),
(273,237,o),
(273,277,cs),
(273,317,o),
(296,342,o),
(328,342,cs)
);
}
);
width = 655;
}
);
unicode = 100;
},
{
color = (255,166,166,255);
glyphname = dcaron;
kernLeft = o;
lastChange = "2020-11-26 16:42:11 +0000";
layers = (
{
layerId = master01;
shapes = (
{
closed = 1;
nodes = (
(708,727,l),
(707,727,l),
(654,469,l),
(655,469,l)
);
},
{
ref = d;
}
);
width = 703;
},
{
associatedMasterId = master01;
layerId = "E80DA679-3AFA-459B-A1DC-7CB60C562909";
name = foreground;
shapes = (
{
closed = 1;
nodes = (
(708,727,l),
(707,727,l),
(654,469,l),
(655,469,l)
);
},
{
ref = d;
}
);
width = 703;
},
{
layerId = master02;
shapes = (
{
closed = 1;
nodes = (
(796,727,l),
(643,727,l),
(643,486,l),
(740,486,l)
);
},
{
ref = d;
}
);
width = 767;
},
{
associatedMasterId = master02;
layerId = "E86C5710-5AAA-4BD9-B7AB-897E2DE4FE2A";
name = foreground;
shapes = (
{
closed = 1;
nodes = (
(796,727,l),
(643,727,l),
(643,486,l),
(740,486,l)
);
},
{
ref = d;
}
);
width = 767;
},
{
layerId = master03;
shapes = (
{
closed = 1;
nodes = (
(840,727,l),
(673,727,l),
(673,427,l),
(771,427,l)
);
},
{
ref = d;
}
);
width = 810;
},
{
associatedMasterId = master03;
layerId = "161E7B76-ECB3-4B7D-9D1B-A061ADEDC439";
name = foreground;
shapes = (
{
closed = 1;
nodes = (
(840,727,l),
(673,727,l),
(673,427,l),
(771,427,l)
);
},
{
ref = d;
}
);
width = 810;
}
);
unicode = 271;
},
